<svg width="299" height="282" viewBox="0 0 299 282" fill="none" xmlns="http://www.w3.org/2000/svg">
<circle cx="149.5" cy="145.5" r="119.5" fill="#F7BACE"/>
<mask id="mask0_244_2" style="mask-type:alpha" maskUnits="userSpaceOnUse" x="45" y="54" width="211" height="211">
<circle cx="150.644" cy="159.794" r="105.206" fill="#C50505"/>
<circle cx="150.644" cy="159.794" r="105.206" fill="#C50505"/>
</mask>
<g mask="url(#mask0_244_2)">
<path d="M119.682 226.417C120.022 225.969 120.303 225.604 120.513 225.333H178.068C178.334 225.624 178.715 226.044 179.19 226.576C180.176 227.681 181.569 229.269 183.189 231.194C186.432 235.049 190.567 240.238 194.172 245.608C197.801 251.013 200.794 256.46 201.884 260.856C202.428 263.051 202.454 264.817 202.002 266.136C201.578 267.374 200.68 268.381 198.952 269.027C194.94 270.526 187.671 271.796 178.686 272.71C169.751 273.618 159.262 274.163 148.901 274.264C138.537 274.366 128.332 274.024 119.959 273.168C115.771 272.74 112.067 272.186 109.043 271.502C105.984 270.811 103.751 270.014 102.411 269.165C100.168 267.743 99.5396 264.789 100.633 260.152C101.7 255.627 104.275 250.201 107.308 244.906C110.327 239.636 113.74 234.598 116.404 230.872C117.734 229.01 118.875 227.48 119.682 226.417Z" fill="white" stroke="black" stroke-width="3"/>
<path d="M210.323 177.958C210.323 191.084 207.214 204.266 197.999 214.164C188.804 224.042 173.285 230.909 147.903 230.909C122.56 230.909 107.567 223.434 98.874 213.264C90.1421 203.049 87.5335 189.847 87.5335 177.958C87.5335 168.63 94.154 156.748 105.211 147.115C116.212 137.53 131.341 130.419 147.903 130.419C164.465 130.419 180.115 137.673 191.641 147.347C197.399 152.179 202.089 157.583 205.331 162.928C208.584 168.29 210.323 173.497 210.323 177.958Z" fill="white" stroke="black" stroke-width="3"/>
<path d="M149.032 195C149.567 195 150.006 195.435 149.938 195.966C149.744 197.465 149.102 198.867 148.096 199.95C146.877 201.263 145.224 202 143.5 202C141.776 202 140.123 201.263 138.904 199.95C137.898 198.867 137.256 197.465 137.062 195.966C136.994 195.435 137.433 195 137.968 195V195C138.503 195 138.927 195.437 139.025 195.963C139.2 196.908 139.631 197.784 140.273 198.475C141.129 199.397 142.29 199.915 143.5 199.915C144.71 199.915 145.871 199.397 146.727 198.475C147.369 197.784 147.8 196.908 147.975 195.963C148.073 195.437 148.497 195 149.032 195V195Z" fill="black"/>
<path d="M160.032 195C160.567 195 161.006 195.435 160.938 195.966C160.744 197.465 160.102 198.867 159.096 199.95C157.877 201.263 156.224 202 154.5 202C152.776 202 151.123 201.263 149.904 199.95C148.898 198.867 148.256 197.465 148.062 195.966C147.994 195.435 148.433 195 148.968 195V195C149.503 195 149.927 195.437 150.025 195.963C150.2 196.908 150.631 197.784 151.273 198.475C152.129 199.397 153.29 199.915 154.5 199.915C155.71 199.915 156.871 199.397 157.727 198.475C158.369 197.784 158.8 196.908 158.975 195.963C159.073 195.437 159.497 195 160.032 195V195Z" fill="black"/>
<path d="M136 177.869C136 180.992 133.314 185 130 185C126.686 185 124 180.992 124 177.869C124 174.745 126.686 170 130 170C133.314 170 136 174.745 136 177.869Z" fill="black"/>
<path d="M174 177.869C174 180.992 171.314 185 168 185C164.686 185 162 180.992 162 177.869C162 174.745 164.686 170 168 170C171.314 170 174 174.745 174 177.869Z" fill="black"/>
<path d="M148 174C148 186.631 137.105 197 123.5 197C109.895 197 99 186.631 99 174C99 161.369 109.895 151 123.5 151C137.105 151 148 161.369 148 174Z" stroke="black" stroke-width="3"/>
<path d="M90.8349 114.292C91.6696 113.704 92.9098 113.407 94.639 113.508C96.3591 113.609 98.4135 114.098 100.711 114.908C105.304 116.527 110.604 119.334 115.671 122.398C120.724 125.454 125.484 128.727 128.985 131.24C130.693 132.466 132.099 133.509 133.089 134.254L95.3948 160.801C95.0264 159.618 94.5179 157.943 93.9389 155.922C92.7524 151.779 91.2743 146.195 90.0997 140.407C88.9218 134.604 88.0642 128.668 88.087 123.798C88.0984 121.362 88.3305 119.263 88.8151 117.61C89.3021 115.948 90.0002 114.88 90.8349 114.292Z" fill="white" stroke="black" stroke-width="3"/>
<path d="M203.57 110.31C202.689 109.794 201.428 109.601 199.714 109.846C198.008 110.09 196.001 110.749 193.779 111.747C189.338 113.744 184.291 116.984 179.497 120.46C174.716 123.927 170.246 127.586 166.967 130.382C165.367 131.747 164.054 132.904 163.129 133.729L202.907 157.037C203.176 155.827 203.543 154.116 203.951 152.053C204.788 147.826 205.794 142.138 206.482 136.273C207.171 130.391 207.531 124.404 207.101 119.554C206.887 117.127 206.48 115.055 205.859 113.447C205.235 111.832 204.451 110.826 203.57 110.31Z" fill="white" stroke="black" stroke-width="3"/>
<path d="M95.3579 155.792L130 133.5L139.5 132.5L93.4665 165.512L95.3579 155.792Z" fill="white"/>
<path d="M202.5 152.5L171.513 134.636L158.388 132.663L198.958 162.367L202.5 152.5Z" fill="white"/>
<path d="M110.564 178.417C94.5086 174.136 85.5072 171.735 69.4521 167.454" stroke="black" stroke-width="2"/>
<path d="M238.009 191.436C221.954 187.154 212.953 184.754 196.898 180.473" stroke="black" stroke-width="2"/>
<path d="M110.564 181.158C94.5086 185.439 85.5072 187.84 69.4521 192.121" stroke="black" stroke-width="2"/>
<path d="M196.898 177.047C212.953 172.765 221.954 170.365 238.009 166.084" stroke="black" stroke-width="2"/>
<path d="M143 174.836C143 181.916 136.06 191 127.5 191C118.94 191 112 181.916 112 174.836C112 167.756 118.94 157 127.5 157C136.06 157 143 167.756 143 174.836Z" fill="black"/>
<path d="M185 173.836C185 180.916 178.06 190 169.5 190C160.94 190 154 180.916 154 173.836C154 166.756 160.94 156 169.5 156C178.06 156 185 166.756 185 173.836Z" fill="black"/>
<path d="M143 167.442C143 171.191 139.194 176 134.5 176C129.806 176 126 171.191 126 167.442C126 163.694 129.806 158 134.5 158C139.194 158 143 163.694 143 167.442Z" fill="white"/>
<path d="M185 166.442C185 170.191 181.194 175 176.5 175C171.806 175 168 170.191 168 166.442C168 162.694 171.806 157 176.5 157C181.194 157 185 162.694 185 166.442Z" fill="white"/>
<path d="M110.462 227C110.462 227 131.903 231.284 145.841 231C159.508 230.722 178.5 227.5 178.5 227.5L183 233H145.681L106 232.25L110.462 227Z" fill="#FF6699"/>
<mask id="path-23-inside-1_244_2" fill="white">
<path d="M123.517 266.892C123.496 267.997 122.583 268.874 121.478 268.853L94.205 268.317C93.1006 268.296 92.2229 267.383 92.2446 266.279L93.3235 211.314C93.493 202.678 100.631 195.815 109.267 195.984V195.984C117.902 196.154 124.766 203.292 124.596 211.928L123.517 266.892Z"/>
</mask>
<path d="M123.517 266.892C123.496 267.997 122.583 268.874 121.478 268.853L94.205 268.317C93.1006 268.296 92.2229 267.383 92.2446 266.279L93.3235 211.314C93.493 202.678 100.631 195.815 109.267 195.984V195.984C117.902 196.154 124.766 203.292 124.596 211.928L123.517 266.892Z" fill="white"/>
<path d="M123.478 268.892L92.2054 268.278L123.478 268.892ZM90.3241 211.255C90.5261 200.963 99.0334 192.783 109.326 192.985L109.326 192.985C119.618 193.187 127.798 201.694 127.596 211.986L121.597 211.869C121.734 204.889 116.187 199.121 109.208 198.984C102.229 198.847 96.4599 204.393 96.3229 211.373L90.3241 211.255ZM109.326 192.985C119.618 193.187 127.798 201.694 127.596 211.986L126.576 263.952C126.521 266.713 124.239 268.907 121.478 268.853L120.479 268.833C120.479 268.833 120.496 267.938 120.518 266.834L121.597 211.869C121.734 204.889 116.187 199.121 109.208 198.984L109.326 192.985ZM94.205 268.317C91.4441 268.263 89.2499 265.981 89.3041 263.22L90.3241 211.255C90.5261 200.963 99.0334 192.783 109.326 192.985L109.208 198.984C102.229 198.847 96.4599 204.393 96.3229 211.373L95.244 266.337C95.2224 267.442 95.2048 268.337 95.2048 268.337L94.205 268.317Z" fill="url(#paint0_linear_244_2)" mask="url(#path-23-inside-1_244_2)"/>
</g>
<path d="M115.871 220.107C115.871 223.651 112.492 224.835 108.63 222.471C105.411 225.511 101.871 223.651 101.871 220.107C101.871 216.562 105.341 212 108.63 212C111.918 212 115.871 216.562 115.871 220.107Z" fill="#F7BACE"/>
<ellipse cx="2.60091" cy="2.99436" rx="2.60091" ry="2.99436" transform="matrix(0.940055 -0.341023 0.417252 0.908791 97 210.845)" fill="#F7BACE"/>
<ellipse cx="2.60091" cy="2.99436" rx="2.60091" ry="2.99436" transform="matrix(-0.940055 -0.341023 -0.417252 0.908791 120.871 210.845)" fill="#F7BACE"/>
<path d="M109.871 208C109.871 210.209 110.99 212 112.371 212C113.752 212 114.871 210.209 114.871 208C114.871 205.791 113.752 204 112.371 204C110.99 204 109.871 205.791 109.871 208Z" fill="#F7BACE"/>
<path d="M103.871 208C103.871 210.209 104.99 212 106.371 212C107.752 212 108.871 210.209 108.871 208C108.871 205.791 107.752 204 106.371 204C104.99 204 103.871 205.791 103.871 208Z" fill="#F7BACE"/>
<path d="M137 244.639L139.319 251C139.319 251 151.408 223.642 144.82 223.765C130.28 224.037 165 242.21 165 242.21L159.294 241.954C159.294 241.954 126.18 224.206 143.83 221.271C163.223 218.047 137 244.639 137 244.639Z" fill="#FF6699"/>
<path d="M97 176H82V179H97V176Z" fill="black"/>
<path d="M216 174H203V177H216V174Z" fill="black"/>
<path d="M199 174C199 186.649 188.31 197 175 197C161.69 197 151 186.649 151 174C151 161.351 161.69 151 175 151C188.31 151 199 161.351 199 174Z" stroke="black" stroke-width="3"/>
<defs>
<linearGradient id="paint0_linear_244_2" x1="107.842" y1="268.585" x2="109.267" y2="195.984" gradientUnits="userSpaceOnUse">
<stop stop-color="white"/>
<stop offset="0.47"/>
</linearGradient>
</defs>
</svg>
