<svg width="287" height="149" viewBox="0 0 287 149" fill="none" xmlns="http://www.w3.org/2000/svg">
<path d="M0.356022 59.3981L5.03778 73.785C5.03778 73.785 39.2609 7.94014 24.4115 8.78169C6.73108 9.78369 19 26.2142 49 40.9459C79 55.6776 144 62.5144 173 63.3251C214 64.4714 233.789 60.2548 263.5 68C268.349 68.415 275.72 70.8505 279 71.0703C305.393 72.8389 219.489 148.783 219.489 148.783L227 133.251C227 133.251 304.361 63.8946 282.766 63.3251C280.169 63.2567 275.995 62.7734 272.403 62.5144C247.632 60.7282 196.286 60.1804 184 59.3981C144.778 56.9007 75.5994 45.9254 62.5 40.9459C26.6343 27.3122 -4.22803 8.08899 21.7167 1.59489C64.8974 -9.2135 0.356022 59.3981 0.356022 59.3981Z" fill="#FF6699" fill-opacity="0.11"/>
</svg>
