<svg width="362" height="491" viewBox="0 0 362 491" fill="none" xmlns="http://www.w3.org/2000/svg">
<rect width="362" height="491" fill="#F7BACE"/>
<mask id="mask0_224_195" style="mask-type:alpha" maskUnits="userSpaceOnUse" x="0" y="123" width="362" height="368">
<path d="M181 491C280.964 491 362 408.62 362 307C362 205.38 280.964 123 181 123C81.0365 123 0 205.38 0 307C0 408.62 81.0365 491 181 491Z" fill="#FFFFFF"/>
<path d="M181 491C280.964 491 362 408.62 362 307C362 205.38 280.964 123 181 123C81.0365 123 0 205.38 0 307C0 408.62 81.0365 491 181 491Z" fill="#FFFFFF"/>
</mask>
<g mask="url(#mask0_224_195)">
<path d="M128.48 420.683C128.53 420.618 128.577 420.557 128.621 420.5H228.668C228.749 420.59 228.842 420.692 228.944 420.806C229.407 421.321 230.084 422.08 230.936 423.049C232.64 424.989 235.043 427.775 237.838 431.152C243.43 437.911 250.572 447.02 256.805 456.458C263.06 465.931 268.305 475.593 270.228 483.482C271.189 487.424 271.278 490.755 270.404 493.351C269.557 495.865 267.75 497.86 264.498 499.095C257.449 501.773 244.817 504.003 229.357 505.601C213.946 507.195 195.866 508.148 178.012 508.326C160.155 508.504 142.555 507.906 128.095 506.403C120.865 505.652 114.446 504.677 109.185 503.468C103.89 502.251 99.8969 500.824 97.4268 499.233C92.9185 496.328 91.985 490.45 93.8845 482.263C95.7575 474.188 100.251 464.584 105.484 455.298C110.704 446.036 116.598 437.193 121.193 430.658C123.49 427.392 125.458 424.707 126.852 422.84C127.55 421.907 128.102 421.178 128.48 420.683Z" fill="white" stroke="black" stroke-width="3"/>
<path d="M284.78 338.767C284.78 361.882 279.395 385.259 263.281 402.856C247.187 420.432 220.147 432.5 176.285 432.5C132.46 432.5 106.317 419.351 91.0941 401.246C75.832 383.096 71.3179 359.699 71.3179 338.767C71.3179 321.995 82.9668 300.931 102.11 283.977C121.197 267.072 147.475 254.5 176.285 254.5C205.094 254.5 232.262 267.322 252.244 284.37C262.23 292.889 270.383 302.433 276.032 311.898C281.69 321.381 284.78 330.692 284.78 338.767Z" fill="white" stroke="black" stroke-width="3"/>
<path d="M191.82 296.164C191.82 301.786 185.655 309 178.049 309C170.443 309 164.277 301.786 164.277 296.164C164.277 290.541 170.443 282 178.049 282C185.655 282 191.82 290.541 191.82 296.164Z" fill="white"/>
<path d="M77.4672 226.501C79.1837 225.271 81.6016 224.741 84.7121 224.926C87.8146 225.111 91.4573 226 95.4619 227.436C103.469 230.305 112.663 235.261 121.404 240.634C130.131 245.999 138.345 251.742 144.382 256.147C147.399 258.348 149.87 260.214 151.585 261.528C151.99 261.838 152.354 262.118 152.672 262.365L85.3475 310.566C85.2265 310.178 85.0898 309.736 84.9383 309.243C84.2989 307.159 83.4038 304.166 82.3807 300.536C80.3346 293.274 77.7839 283.477 75.7555 273.316C73.7232 263.14 72.2309 252.67 72.2703 244.04C72.29 239.723 72.6943 235.937 73.5678 232.905C74.4443 229.865 75.7496 227.73 77.4672 226.501Z" fill="white" stroke="black" stroke-width="3"/>
<path d="M272.614 219.485C270.802 218.406 268.35 218.082 265.265 218.531C262.189 218.978 258.632 220.174 254.759 221.944C247.016 225.483 238.261 231.201 229.992 237.297C221.735 243.384 214.021 249.803 208.366 254.705C205.541 257.155 203.232 259.223 201.631 260.678C201.252 261.023 200.914 261.332 200.617 261.605L271.663 303.925C271.752 303.529 271.852 303.077 271.962 302.572C272.428 300.441 273.075 297.383 273.796 293.68C275.239 286.269 276.977 276.29 278.164 265.992C279.354 255.679 279.981 245.119 279.233 236.522C278.859 232.222 278.146 228.483 277.026 225.537C275.904 222.582 274.427 220.564 272.614 219.485Z" fill="white" stroke="black" stroke-width="3"/>
<path d="M85.8844 300L154.44 259.5L168.28 271.149L82.6304 317L85.8844 300Z" fill="white"/>
<path d="M268.057 300L216.904 263L194.324 259.548L264.122 311.5L268.057 300Z" fill="white"/>
<path d="M184.935 345H175.098V349H184.935V345Z" fill="black"/>
<path d="M91.3874 345.174C63.7658 337.686 48.2794 333.488 20.6577 326" stroke="black" stroke-width="2"/>
<path d="M336.328 383.174C308.707 375.686 293.22 371.488 265.598 364" stroke="black" stroke-width="2"/>
<path d="M90.4035 364C62.7819 371.488 47.2955 375.686 19.6738 383.174" stroke="black" stroke-width="2"/>
<path d="M265.598 336.174C293.22 328.686 308.707 324.488 336.328 317" stroke="black" stroke-width="2"/>
</g>
<path d="M96 347H72V351H96V347Z" fill="black"/>
<path d="M286 344H266V348H286V344Z" fill="black"/>
<path d="M159 347.902C159 359.771 147.359 375 133 375C118.641 375 107 359.771 107 347.902C107 336.032 118.641 318 133 318C147.359 318 159 336.032 159 347.902Z" fill="black"/>
<path d="M250 344.902C250 356.771 238.359 372 224 372C209.641 372 198 356.771 198 344.902C198 333.032 209.641 315 224 315C238.359 315 250 333.032 250 344.902Z" fill="black"/>
<path d="M159 335.262C159 341.718 152.732 350 145 350C137.268 350 131 341.718 131 335.262C131 328.807 137.268 319 145 319C152.732 319 159 328.807 159 335.262Z" fill="white"/>
<path d="M250 332.262C250 338.718 243.732 347 236 347C228.268 347 222 338.718 222 332.262C222 325.807 228.268 316 236 316C243.732 316 250 325.807 250 332.262Z" fill="white"/>
<path d="M173.5 346.5C173.5 366.82 156.157 383.5 134.5 383.5C112.843 383.5 95.5 366.82 95.5 346.5C95.5 326.18 112.843 309.5 134.5 309.5C156.157 309.5 173.5 326.18 173.5 346.5Z" stroke="black" stroke-width="5"/>
<path d="M263.5 346.5C263.5 366.848 246.352 383.5 225 383.5C203.648 383.5 186.5 366.848 186.5 346.5C186.5 326.152 203.648 309.5 225 309.5C246.352 309.5 263.5 326.152 263.5 346.5Z" stroke="black" stroke-width="5"/>
<path d="M182.808 384C183.467 384 184.007 384.535 183.93 385.189C183.699 387.137 182.906 388.959 181.657 390.364C180.157 392.052 178.122 393 176 393C173.878 393 171.843 392.052 170.343 390.364C169.094 388.959 168.301 387.137 168.07 385.189C167.993 384.535 168.533 384 169.192 384C169.85 384 170.373 384.537 170.483 385.186C170.693 386.421 171.227 387.567 172.028 388.468C173.082 389.653 174.51 390.319 176 390.319C177.49 390.319 178.918 389.653 179.972 388.468C180.773 387.567 181.307 386.421 181.517 385.186C181.627 384.537 182.15 384 182.808 384Z" fill="black"/>
<path d="M196.808 384C197.467 384 198.007 384.535 197.93 385.189C197.699 387.137 196.906 388.959 195.657 390.364C194.157 392.052 192.122 393 190 393C187.878 393 185.843 392.052 184.343 390.364C183.094 388.959 182.301 387.137 182.07 385.189C181.993 384.535 182.533 384 183.192 384C183.85 384 184.373 384.537 184.483 385.186C184.693 386.421 185.227 387.567 186.028 388.468C187.082 389.653 188.51 390.319 190 390.319C191.49 390.319 192.918 389.653 193.972 388.468C194.773 387.567 195.307 386.421 195.517 385.186C195.627 384.537 196.15 384 196.808 384Z" fill="black"/>
<path d="M124.5 426C124.5 426 158.136 434.568 180 434C201.44 433.443 234 424 234 424L243 436.5L179.75 438L117.5 436.5L124.5 426Z" fill="#FF6699"/>
<path d="M166.025 459.883L169.67 471.865C169.67 471.865 188.667 420.336 178.314 420.568C155.464 421.079 210.028 455.308 210.028 455.308L201.061 454.827C201.061 454.827 149.021 421.397 176.759 415.87C207.235 409.797 166.025 459.883 166.025 459.883Z" fill="#FF6699"/>
<path d="M58.7656 85.8906V84.0156C58.7656 83.3281 59.0312 82.6719 59.5625 82.0469C60.125 81.3906 60.8125 80.75 61.625 80.125C62.4375 79.4688 63.25 78.8125 64.0625 78.1562C64.9062 77.4688 65.5938 76.7656 66.125 76.0469C66.6875 75.3281 66.9688 74.5625 66.9688 73.75C66.9688 72.2188 66.4688 70.9531 65.4688 69.9531C64.5 68.9531 63.0781 68.4531 61.2031 68.4531C59.3281 68.4531 57.7656 68.8281 56.5156 69.5781C55.2969 70.2969 54.125 71.375 53 72.8125V67.7031C53.8438 66.6719 55.0469 65.7969 56.6094 65.0781C58.1719 64.3594 59.8594 64 61.6719 64C63.5469 64 65.25 64.3906 66.7812 65.1719C68.3125 65.9531 69.5156 67.0312 70.3906 68.4062C71.2969 69.7812 71.75 71.3594 71.75 73.1406C71.75 74.2969 71.4531 75.3438 70.8594 76.2812C70.2969 77.1875 69.5781 78.0156 68.7031 78.7656C67.8594 79.5156 67.0156 80.2188 66.1719 80.875C65.3281 81.5312 64.625 82.1875 64.0625 82.8438C63.5 83.5 63.2344 84.1875 63.2656 84.9062L63.3125 85.8906H58.7656ZM61.25 96.9531C60.3438 96.9531 59.5625 96.625 58.9062 95.9688C58.2812 95.3125 57.9688 94.5469 57.9688 93.6719C57.9688 92.7656 58.2812 92 58.9062 91.375C59.5625 90.7188 60.3438 90.3906 61.25 90.3906C62.1562 90.3906 62.9219 90.7188 63.5469 91.375C64.2031 92 64.5312 92.7656 64.5312 93.6719C64.5312 94.5469 64.2031 95.3125 63.5469 95.9688C62.9219 96.625 62.1562 96.9531 61.25 96.9531Z" fill="white"/>
<path d="M28.7656 232.891V231.016C28.7656 230.328 29.0312 229.672 29.5625 229.047C30.125 228.391 30.8125 227.75 31.625 227.125C32.4375 226.469 33.25 225.812 34.0625 225.156C34.9062 224.469 35.5938 223.766 36.125 223.047C36.6875 222.328 36.9688 221.562 36.9688 220.75C36.9688 219.219 36.4688 217.953 35.4688 216.953C34.5 215.953 33.0781 215.453 31.2031 215.453C29.3281 215.453 27.7656 215.828 26.5156 216.578C25.2969 217.297 24.125 218.375 23 219.812V214.703C23.8438 213.672 25.0469 212.797 26.6094 212.078C28.1719 211.359 29.8594 211 31.6719 211C33.5469 211 35.25 211.391 36.7812 212.172C38.3125 212.953 39.5156 214.031 40.3906 215.406C41.2969 216.781 41.75 218.359 41.75 220.141C41.75 221.297 41.4531 222.344 40.8594 223.281C40.2969 224.188 39.5781 225.016 38.7031 225.766C37.8594 226.516 37.0156 227.219 36.1719 227.875C35.3281 228.531 34.625 229.188 34.0625 229.844C33.5 230.5 33.2344 231.188 33.2656 231.906L33.3125 232.891H28.7656ZM31.25 243.953C30.3438 243.953 29.5625 243.625 28.9062 242.969C28.2812 242.312 27.9688 241.547 27.9688 240.672C27.9688 239.766 28.2812 239 28.9062 238.375C29.5625 237.719 30.3438 237.391 31.25 237.391C32.1562 237.391 32.9219 237.719 33.5469 238.375C34.2031 239 34.5312 239.766 34.5312 240.672C34.5312 241.547 34.2031 242.312 33.5469 242.969C32.9219 243.625 32.1562 243.953 31.25 243.953Z" fill="white"/>
<path d="M304.766 150.891V149.016C304.766 148.328 305.031 147.672 305.562 147.047C306.125 146.391 306.812 145.75 307.625 145.125C308.438 144.469 309.25 143.812 310.062 143.156C310.906 142.469 311.594 141.766 312.125 141.047C312.688 140.328 312.969 139.562 312.969 138.75C312.969 137.219 312.469 135.953 311.469 134.953C310.5 133.953 309.078 133.453 307.203 133.453C305.328 133.453 303.766 133.828 302.516 134.578C301.297 135.297 300.125 136.375 299 137.812V132.703C299.844 131.672 301.047 130.797 302.609 130.078C304.172 129.359 305.859 129 307.672 129C309.547 129 311.25 129.391 312.781 130.172C314.312 130.953 315.516 132.031 316.391 133.406C317.297 134.781 317.75 136.359 317.75 138.141C317.75 139.297 317.453 140.344 316.859 141.281C316.297 142.188 315.578 143.016 314.703 143.766C313.859 144.516 313.016 145.219 312.172 145.875C311.328 146.531 310.625 147.188 310.062 147.844C309.5 148.5 309.234 149.188 309.266 149.906L309.312 150.891H304.766ZM307.25 161.953C306.344 161.953 305.562 161.625 304.906 160.969C304.281 160.312 303.969 159.547 303.969 158.672C303.969 157.766 304.281 157 304.906 156.375C305.562 155.719 306.344 155.391 307.25 155.391C308.156 155.391 308.922 155.719 309.547 156.375C310.203 157 310.531 157.766 310.531 158.672C310.531 159.547 310.203 160.312 309.547 160.969C308.922 161.625 308.156 161.953 307.25 161.953Z" fill="white"/>
<path d="M241.766 94.8906V93.0156C241.766 92.3281 242.031 91.6719 242.562 91.0469C243.125 90.3906 243.812 89.75 244.625 89.125C245.438 88.4688 246.25 87.8125 247.062 87.1562C247.906 86.4688 248.594 85.7656 249.125 85.0469C249.688 84.3281 249.969 83.5625 249.969 82.75C249.969 81.2188 249.469 79.9531 248.469 78.9531C247.5 77.9531 246.078 77.4531 244.203 77.4531C242.328 77.4531 240.766 77.8281 239.516 78.5781C238.297 79.2969 237.125 80.375 236 81.8125V76.7031C236.844 75.6719 238.047 74.7969 239.609 74.0781C241.172 73.3594 242.859 73 244.672 73C246.547 73 248.25 73.3906 249.781 74.1719C251.312 74.9531 252.516 76.0312 253.391 77.4062C254.297 78.7812 254.75 80.3594 254.75 82.1406C254.75 83.2969 254.453 84.3438 253.859 85.2812C253.297 86.1875 252.578 87.0156 251.703 87.7656C250.859 88.5156 250.016 89.2188 249.172 89.875C248.328 90.5312 247.625 91.1875 247.062 91.8438C246.5 92.5 246.234 93.1875 246.266 93.9062L246.312 94.8906H241.766ZM244.25 105.953C243.344 105.953 242.562 105.625 241.906 104.969C241.281 104.312 240.969 103.547 240.969 102.672C240.969 101.766 241.281 101 241.906 100.375C242.562 99.7188 243.344 99.3906 244.25 99.3906C245.156 99.3906 245.922 99.7188 246.547 100.375C247.203 101 247.531 101.766 247.531 102.672C247.531 103.547 247.203 104.312 246.547 104.969C245.922 105.625 245.156 105.953 244.25 105.953Z" fill="white"/>
<path d="M324.766 49.8906V48.0156C324.766 47.3281 325.031 46.6719 325.562 46.0469C326.125 45.3906 326.812 44.75 327.625 44.125C328.438 43.4688 329.25 42.8125 330.062 42.1562C330.906 41.4688 331.594 40.7656 332.125 40.0469C332.688 39.3281 332.969 38.5625 332.969 37.75C332.969 36.2188 332.469 34.9531 331.469 33.9531C330.5 32.9531 329.078 32.4531 327.203 32.4531C325.328 32.4531 323.766 32.8281 322.516 33.5781C321.297 34.2969 320.125 35.375 319 36.8125V31.7031C319.844 30.6719 321.047 29.7969 322.609 29.0781C324.172 28.3594 325.859 28 327.672 28C329.547 28 331.25 28.3906 332.781 29.1719C334.312 29.9531 335.516 31.0312 336.391 32.4062C337.297 33.7812 337.75 35.3594 337.75 37.1406C337.75 38.2969 337.453 39.3438 336.859 40.2812C336.297 41.1875 335.578 42.0156 334.703 42.7656C333.859 43.5156 333.016 44.2188 332.172 44.875C331.328 45.5312 330.625 46.1875 330.062 46.8438C329.5 47.5 329.234 48.1875 329.266 48.9062L329.312 49.8906H324.766ZM327.25 60.9531C326.344 60.9531 325.562 60.625 324.906 59.9688C324.281 59.3125 323.969 58.5469 323.969 57.6719C323.969 56.7656 324.281 56 324.906 55.375C325.562 54.7188 326.344 54.3906 327.25 54.3906C328.156 54.3906 328.922 54.7188 329.547 55.375C330.203 56 330.531 56.7656 330.531 57.6719C330.531 58.5469 330.203 59.3125 329.547 59.9688C328.922 60.625 328.156 60.9531 327.25 60.9531Z" fill="white"/>
<path d="M314.766 281.891V280.016C314.766 279.328 315.031 278.672 315.562 278.047C316.125 277.391 316.812 276.75 317.625 276.125C318.438 275.469 319.25 274.812 320.062 274.156C320.906 273.469 321.594 272.766 322.125 272.047C322.688 271.328 322.969 270.562 322.969 269.75C322.969 268.219 322.469 266.953 321.469 265.953C320.5 264.953 319.078 264.453 317.203 264.453C315.328 264.453 313.766 264.828 312.516 265.578C311.297 266.297 310.125 267.375 309 268.812V263.703C309.844 262.672 311.047 261.797 312.609 261.078C314.172 260.359 315.859 260 317.672 260C319.547 260 321.25 260.391 322.781 261.172C324.312 261.953 325.516 263.031 326.391 264.406C327.297 265.781 327.75 267.359 327.75 269.141C327.75 270.297 327.453 271.344 326.859 272.281C326.297 273.188 325.578 274.016 324.703 274.766C323.859 275.516 323.016 276.219 322.172 276.875C321.328 277.531 320.625 278.188 320.062 278.844C319.5 279.5 319.234 280.188 319.266 280.906L319.312 281.891H314.766ZM317.25 292.953C316.344 292.953 315.562 292.625 314.906 291.969C314.281 291.312 313.969 290.547 313.969 289.672C313.969 288.766 314.281 288 314.906 287.375C315.562 286.719 316.344 286.391 317.25 286.391C318.156 286.391 318.922 286.719 319.547 287.375C320.203 288 320.531 288.766 320.531 289.672C320.531 290.547 320.203 291.312 319.547 291.969C318.922 292.625 318.156 292.953 317.25 292.953Z" fill="white"/>
<path d="M58.7656 443.891V442.016C58.7656 441.328 59.0312 440.672 59.5625 440.047C60.125 439.391 60.8125 438.75 61.625 438.125C62.4375 437.469 63.25 436.812 64.0625 436.156C64.9062 435.469 65.5938 434.766 66.125 434.047C66.6875 433.328 66.9688 432.562 66.9688 431.75C66.9688 430.219 66.4688 428.953 65.4688 427.953C64.5 426.953 63.0781 426.453 61.2031 426.453C59.3281 426.453 57.7656 426.828 56.5156 427.578C55.2969 428.297 54.125 429.375 53 430.812V425.703C53.8438 424.672 55.0469 423.797 56.6094 423.078C58.1719 422.359 59.8594 422 61.6719 422C63.5469 422 65.25 422.391 66.7812 423.172C68.3125 423.953 69.5156 425.031 70.3906 426.406C71.2969 427.781 71.75 429.359 71.75 431.141C71.75 432.297 71.4531 433.344 70.8594 434.281C70.2969 435.188 69.5781 436.016 68.7031 436.766C67.8594 437.516 67.0156 438.219 66.1719 438.875C65.3281 439.531 64.625 440.188 64.0625 440.844C63.5 441.5 63.2344 442.188 63.2656 442.906L63.3125 443.891H58.7656ZM61.25 454.953C60.3438 454.953 59.5625 454.625 58.9062 453.969C58.2812 453.312 57.9688 452.547 57.9688 451.672C57.9688 450.766 58.2812 450 58.9062 449.375C59.5625 448.719 60.3438 448.391 61.25 448.391C62.1562 448.391 62.9219 448.719 63.5469 449.375C64.2031 450 64.5312 450.766 64.5312 451.672C64.5312 452.547 64.2031 453.312 63.5469 453.969C62.9219 454.625 62.1562 454.953 61.25 454.953Z" fill="white"/>
<path d="M164.766 187.891V186.016C164.766 185.328 165.031 184.672 165.562 184.047C166.125 183.391 166.812 182.75 167.625 182.125C168.438 181.469 169.25 180.812 170.062 180.156C170.906 179.469 171.594 178.766 172.125 178.047C172.688 177.328 172.969 176.562 172.969 175.75C172.969 174.219 172.469 172.953 171.469 171.953C170.5 170.953 169.078 170.453 167.203 170.453C165.328 170.453 163.766 170.828 162.516 171.578C161.297 172.297 160.125 173.375 159 174.812V169.703C159.844 168.672 161.047 167.797 162.609 167.078C164.172 166.359 165.859 166 167.672 166C169.547 166 171.25 166.391 172.781 167.172C174.312 167.953 175.516 169.031 176.391 170.406C177.297 171.781 177.75 173.359 177.75 175.141C177.75 176.297 177.453 177.344 176.859 178.281C176.297 179.188 175.578 180.016 174.703 180.766C173.859 181.516 173.016 182.219 172.172 182.875C171.328 183.531 170.625 184.188 170.062 184.844C169.5 185.5 169.234 186.188 169.266 186.906L169.312 187.891H164.766ZM167.25 198.953C166.344 198.953 165.562 198.625 164.906 197.969C164.281 197.312 163.969 196.547 163.969 195.672C163.969 194.766 164.281 194 164.906 193.375C165.562 192.719 166.344 192.391 167.25 192.391C168.156 192.391 168.922 192.719 169.547 193.375C170.203 194 170.531 194.766 170.531 195.672C170.531 196.547 170.203 197.312 169.547 197.969C168.922 198.625 168.156 198.953 167.25 198.953Z" fill="white"/>
</svg>
