<svg width="361" height="429" viewBox="0 0 361 429" fill="none" xmlns="http://www.w3.org/2000/svg">
<path d="M130.58 348.791C130.656 348.685 130.726 348.588 130.789 348.5H232.338C232.398 348.585 232.463 348.677 232.534 348.778C232.952 349.373 233.564 350.246 234.337 351.358C235.882 353.582 238.071 356.759 240.643 360.573C245.789 368.203 252.462 378.367 258.586 388.524C264.722 398.703 270.259 408.797 273.175 416.308C274.649 420.107 275.369 423.04 275.291 424.936C275.252 425.866 275.029 426.344 274.816 426.581C274.637 426.779 274.294 427 273.5 427H273.396H273.29H273.181H273.07H272.955H272.839H272.72H272.598H272.474H272.348H272.219H272.087H271.953H271.817H271.678H271.536H271.393H271.247H271.098H270.947H270.794H270.638H270.48H270.32H270.157H269.992H269.824H269.655H269.483H269.308H269.132H268.953H268.772H268.588H268.402H268.215H268.024H267.832H267.637H267.441H267.242H267.041H266.837H266.632H266.424H266.214H266.002H265.788H265.572H265.354H265.134H264.911H264.687H264.46H264.231H264.001H263.768H263.533H263.297H263.058H262.817H262.574H262.329H262.083H261.834H261.583H261.331H261.076H260.82H260.562H260.301H260.039H259.775H259.509H259.242H258.972H258.701H258.427H258.152H257.875H257.596H257.316H257.034H256.749H256.464H256.176H255.887H255.595H255.303H255.008H254.712H254.414H254.114H253.813H253.51H253.205H252.899H252.59H252.281H251.97H251.657H251.342H251.026H250.709H250.389H250.068H249.746H249.422H249.097H248.77H248.441H248.111H247.78H247.447H247.112H246.776H246.439H246.1H245.76H245.418H245.075H244.73H244.384H244.037H243.688H243.338H242.987H242.634H242.279H241.924H241.567H241.209H240.849H240.489H240.127H239.763H239.399H239.033H238.666H238.297H237.928H237.557H237.185H236.811H236.437H236.061H235.685H235.307H234.928H234.547H234.166H233.783H233.4H233.015H232.629H232.242H231.854H231.465H231.075H230.684H230.292H229.898H229.504H229.109H228.713H228.315H227.917H227.518H227.118H226.717H226.315H225.912H225.508H225.103H224.697H224.29H223.883H223.474H223.065H222.655H222.244H221.832H221.42H221.006H220.592H220.177H219.761H219.344H218.927H218.509H218.09H217.67H217.25H216.829H216.407H215.984H215.561H215.137H214.713H214.287H213.861H213.435H213.008H212.58H212.152H211.723H211.293H210.863H210.432H210.001H209.569H209.136H208.703H208.27H207.836H207.401H206.966H206.53H206.094H205.658H205.221H204.783H204.345H203.907H203.468H203.029H202.59H202.15H201.709H201.269H200.828H200.386H199.944H199.502H199.06H198.617H198.174H197.731H197.287H196.843H196.399H195.954H195.51H195.065H194.619H194.174H193.728H193.282H192.836H192.39H191.944H191.497H191.05H190.604H190.157H189.709H189.262H188.815H188.367H187.92H187.472H187.025H186.577H186.129H185.681H185.233H184.785H184.338H183.89H183.442H182.994H182.546H182.098H181.65H181.203H180.755H180.307H179.86H179.413H178.965H178.518H178.071H177.624H177.177H176.731H176.284H175.838H175.392H174.946H174.5H174.055H173.609H173.164H172.719H172.275H171.831H171.386H170.943H170.499H170.056H169.613H169.17H168.728H168.286H167.845H167.403H166.963H166.522H166.082H165.642H165.203H164.764H164.326H163.888H163.45H163.013H162.576H162.14H161.704H161.269H160.834H160.4H159.966H159.533H159.1H158.668H158.236H157.805H157.375H156.945H156.516H156.087H155.659H155.232H154.805H154.379H153.953H153.528H153.104H152.681H152.258H151.836H151.414H150.994H150.574H150.154H149.736H149.318H148.901H148.485H148.07H147.655H147.241H146.828H146.416H146.005H145.594H145.185H144.776H144.368H143.961H143.555H143.15H142.746H142.342H141.94H141.538H141.138H140.738H140.339H139.942H139.545H139.149H138.755H138.361H137.968H137.577H137.186H136.797H136.408H136.021H135.635H135.249H134.865H134.482H134.101H133.72H133.34H132.962H132.585H132.209H131.834H131.46H131.087H130.716H130.346H129.977H129.609H129.243H128.878H128.514H128.151H127.79H127.43H127.071H126.714H126.358H126.003H125.65H125.298H124.947H124.598H124.25H123.903H123.558H123.214H122.872H122.531H122.192H121.854H121.517H121.182H120.848H120.516H120.186H119.857H119.529H119.203H118.878H118.555H118.234H117.914H117.596H117.279H116.964H116.65H116.338H116.028H115.72H115.413H115.107H114.803H114.501H114.201H113.902H113.605H113.31H113.017H112.725H112.435H112.146H111.86H111.575H111.292H111.01H110.731H110.453H110.177H109.903H109.631H109.361H109.092H108.826H108.561H108.298H108.037H107.778H107.521H107.265H107.012H106.761H106.511H106.264H106.018H105.775H105.533H105.293H105.056H104.82H104.587H104.355H104.126H103.898H103.673H103.45H103.228H103.009H102.792H102.577H102.365H102.154H101.945H101.739H101.535H101.333H101.133H100.935H100.74H100.547H100.356H100.167H99.9802H99.7958H99.6137H99.4339H99.2564H99.0811H98.9081H98.7375H98.5691H98.4031H98.2394C96.6822 427 95.5553 426.713 94.7467 426.27C93.9578 425.837 93.3908 425.211 93.0032 424.37C92.1884 422.602 92.1463 419.827 92.9682 416.088C94.5962 408.681 99.3366 398.661 105.038 388.483C110.717 378.346 117.265 368.196 122.401 360.572C124.967 356.763 127.177 353.588 128.745 351.367C129.529 350.257 130.153 349.385 130.58 348.791Z" fill="white" stroke="black" stroke-width="3"/>
<path d="M289.5 266.767C289.5 289.882 284.026 313.259 267.645 330.856C251.284 348.431 223.796 360.5 179.207 360.5C134.656 360.5 108.079 347.351 92.6035 329.246C77.0892 311.096 72.5 287.699 72.5 266.767C72.5 249.995 84.3423 228.931 103.802 211.977C123.206 195.072 149.919 182.5 179.207 182.5C208.493 182.5 236.112 195.322 256.425 212.37C266.576 220.889 274.865 230.433 280.607 239.898C286.359 249.381 289.5 258.692 289.5 266.767Z" fill="white" stroke="black" stroke-width="3"/>
<path d="M179.808 292C180.467 292 181.007 292.535 180.93 293.189C180.699 295.137 179.906 296.959 178.657 298.364C177.157 300.052 175.122 301 173 301C170.878 301 168.843 300.052 167.343 298.364C166.094 296.959 165.301 295.137 165.07 293.189C164.993 292.535 165.533 292 166.192 292V292C166.85 292 167.373 292.537 167.483 293.186C167.693 294.421 168.227 295.567 169.028 296.468C170.082 297.653 171.51 298.319 173 298.319C174.49 298.319 175.918 297.653 176.972 296.468C177.773 295.567 178.307 294.421 178.517 293.186C178.627 292.537 179.15 292 179.808 292V292Z" fill="black"/>
<path d="M193.808 292C194.467 292 195.007 292.535 194.93 293.189C194.699 295.137 193.906 296.959 192.657 298.364C191.157 300.052 189.122 301 187 301C184.878 301 182.843 300.052 181.343 298.364C180.094 296.959 179.301 295.137 179.07 293.189C178.993 292.535 179.533 292 180.192 292V292C180.85 292 181.373 292.537 181.483 293.186C181.693 294.421 182.227 295.567 183.028 296.468C184.082 297.653 185.51 298.319 187 298.319C188.49 298.319 189.918 297.653 190.972 296.468C191.773 295.567 192.307 294.421 192.517 293.186C192.627 292.537 193.15 292 193.808 292V292Z" fill="black"/>
<path d="M78.7506 154.501C80.4963 153.271 82.954 152.741 86.1164 152.926C89.2697 153.111 92.9728 154 97.0441 155.436C105.184 158.305 114.53 163.261 123.416 168.634C132.288 173.999 140.638 179.742 146.775 184.147C149.842 186.348 152.354 188.214 154.097 189.528C154.509 189.838 154.879 190.118 155.202 190.365L86.7617 238.566C86.6388 238.178 86.4997 237.736 86.3459 237.243C85.696 235.159 84.7858 232.166 83.7463 228.536C81.6663 221.274 79.0728 211.477 77.0106 201.316C74.9451 191.14 73.4277 180.67 73.468 172.04C73.4882 167.723 73.8985 163.937 74.7868 160.905C75.6775 157.865 77.0049 155.73 78.7506 154.501Z" fill="white" stroke="black" stroke-width="3"/>
<path d="M277.133 147.485C275.291 146.406 272.798 146.082 269.662 146.531C266.535 146.978 262.919 148.174 258.982 149.944C251.11 153.483 242.21 159.201 233.804 165.297C225.41 171.384 217.568 177.803 211.82 182.705C208.948 185.155 206.601 187.223 204.973 188.678C204.588 189.023 204.244 189.332 203.942 189.605L276.166 231.925C276.256 231.529 276.358 231.077 276.47 230.572C276.944 228.441 277.601 225.383 278.334 221.679C279.801 214.269 281.568 204.29 282.775 193.992C283.984 183.679 284.622 173.119 283.861 164.522C283.481 160.222 282.756 156.483 281.618 153.537C280.477 150.582 278.976 148.564 277.133 147.485Z" fill="white" stroke="black" stroke-width="3"/>
<path d="M87.3082 228L157 187.5L171.069 199.149L84.0002 245L87.3082 228Z" fill="white"/>
<path d="M272.5 228L220.5 191L197.546 187.548L268.5 239.5L272.5 228Z" fill="white"/>
<path d="M228.025 222.883L231.67 234.864C231.67 234.864 250.667 183.336 240.314 183.568C217.464 184.079 272.028 218.308 272.028 218.308L263.061 217.827C263.061 217.827 211.021 184.397 238.759 178.87C269.235 172.797 228.025 222.883 228.025 222.883Z" fill="#FF6699"/>
<path d="M284 244.767C284 258.03 281.31 271.164 276.083 283.418C270.857 295.672 263.196 306.806 253.539 316.185C243.882 325.563 232.417 333.003 219.799 338.079C207.181 343.154 193.657 345.767 180 345.767C166.343 345.767 152.819 343.154 140.201 338.079C127.583 333.003 116.118 325.563 106.461 316.185C96.8036 306.806 89.143 295.672 83.9165 283.418C78.69 271.164 76 258.03 76 244.767H87.5758C87.5758 256.554 89.9664 268.226 94.6111 279.116C99.2559 290.006 106.064 299.901 114.646 308.235C123.229 316.57 133.417 323.182 144.631 327.692C155.844 332.203 167.863 334.525 180 334.525C192.137 334.525 204.156 332.203 215.369 327.692C226.583 323.182 236.771 316.57 245.354 308.235C253.936 299.901 260.744 290.006 265.389 279.116C270.034 268.226 272.424 256.554 272.424 244.767H284Z" fill="#4DCBFF"/>
<circle cx="276" cy="235" r="14" fill="#817F7F"/>
<path d="M113.902 267.571C85.8228 260.083 70.0797 255.885 42.0002 248.397" stroke="black" stroke-width="2"/>
<path d="M336.799 290.34C308.719 282.852 292.976 278.654 264.897 271.166" stroke="black" stroke-width="2"/>
<path d="M113.902 272.364C85.8228 279.852 70.0797 284.05 42.0002 291.538" stroke="black" stroke-width="2"/>
<path d="M264.897 265.174C292.977 257.686 308.72 253.488 336.799 246" stroke="black" stroke-width="2"/>
<path d="M132.523 426.718L86.0067 426.516C85.7306 426.515 85.5077 426.29 85.5089 426.014L85.9382 327.265C85.9952 314.143 96.6784 303.553 109.8 303.61C122.921 303.667 133.512 314.35 133.455 327.471L133.025 426.22C133.024 426.496 132.799 426.719 132.523 426.718Z" fill="white" stroke="black" stroke-width="3"/>
<path d="M165 269.902C165 281.771 153.359 297 139 297C124.641 297 113 281.771 113 269.902C113 258.032 124.641 240 139 240C153.359 240 165 258.032 165 269.902Z" fill="black"/>
<path d="M244 267.902C244 279.771 232.359 295 218 295C203.641 295 192 279.771 192 267.902C192 256.032 203.641 238 218 238C232.359 238 244 256.032 244 267.902Z" fill="black"/>
<path d="M165 257.262C165 263.718 158.732 272 151 272C143.268 272 137 263.718 137 257.262C137 250.807 143.268 241 151 241C158.732 241 165 250.807 165 257.262Z" fill="white"/>
<path d="M244 255.262C244 261.718 237.732 270 230 270C222.268 270 216 261.718 216 255.262C216 248.807 222.268 239 230 239C237.732 239 244 248.807 244 255.262Z" fill="white"/>
<circle cx="84" cy="242" r="14" fill="#817F7F"/>
<path d="M181.5 347.43C198.5 333.93 185.114 420.43 157.5 420.43C129.886 420.43 116 385.978 116 356.43C116 326.883 129.886 409.93 157.5 409.93C185.114 409.93 167 335.43 181.5 347.43Z" fill="#4DCBFF"/>
<circle cx="114.5" cy="334.5" r="27.5" fill="#FF7A2E"/>
<path d="M134.6 334C134.6 345.046 125.646 354 114.6 354C103.554 354 94.6001 345.046 94.6001 334C94.6001 322.954 103.554 314 114.6 314C125.646 314 134.6 322.954 134.6 334Z" fill="#D81212"/>
<circle cx="33" cy="43" r="9.5" stroke="#FFFDF1" stroke-width="3"/>
<circle cx="197" cy="11" r="9.5" stroke="#FFFDF1" stroke-width="3"/>
<path d="M309.5 65C309.5 70.2467 305.247 74.5 300 74.5C294.753 74.5 290.5 70.2467 290.5 65C290.5 59.7533 294.753 55.5 300 55.5C305.247 55.5 309.5 59.7533 309.5 65Z" stroke="#FFFDF1" stroke-width="3"/>
<circle cx="236" cy="145" r="9.5" stroke="#FFFDF1" stroke-width="3"/>
<path d="M50 170.5C50 175.747 45.7467 180 40.5 180C35.2533 180 31 175.747 31 170.5C31 165.253 35.2533 161 40.5 161C45.7467 161 50 165.253 50 170.5Z" stroke="#FFFDF1" stroke-width="3"/>
<circle cx="33" cy="261" r="9.5" stroke="#FFFDF1" stroke-width="3"/>
<circle cx="44" cy="357" r="9.5" stroke="#FFFDF1" stroke-width="3"/>
<circle cx="328" cy="123" r="9.5" stroke="#FFFDF1" stroke-width="3"/>
<circle cx="328" cy="364" r="9.5" stroke="#FFFDF1" stroke-width="3"/>
<circle cx="350" cy="209" r="9.5" stroke="#FFFDF1" stroke-width="3"/>
<path d="M123.5 90C123.5 95.2467 119.247 99.5 114 99.5C108.753 99.5 104.5 95.2467 104.5 90C104.5 84.7533 108.753 80.5 114 80.5C119.247 80.5 123.5 84.7533 123.5 90Z" stroke="#FFFDF1" stroke-width="3"/>
</svg>
