<svg width="182" height="182" viewBox="0 0 182 182" fill="none" xmlns="http://www.w3.org/2000/svg">
<g clip-path="url(#clip0_195_12)">
<path d="M91 182C141.258 182 182 141.258 182 91C182 40.7421 141.258 0 91 0C40.7421 0 0 40.7421 0 91C0 141.258 40.7421 182 91 182Z" fill="#9AC2E6"/>
<mask id="mask0_195_12" style="mask-type:alpha" maskUnits="userSpaceOnUse" x="11" y="21" width="161" height="161">
<path d="M91.8708 182C136.117 182 171.986 146.131 171.986 101.885C171.986 57.6389 136.117 21.7703 91.8708 21.7703C47.6246 21.7703 11.756 57.6389 11.756 101.885C11.756 146.131 47.6246 182 91.8708 182Z" fill="#FFFFFF"/>
<path d="M91.8708 182C136.117 182 171.986 146.131 171.986 101.885C171.986 57.6389 136.117 21.7703 91.8708 21.7703C47.6246 21.7703 11.756 57.6389 11.756 101.885C11.756 146.131 47.6246 182 91.8708 182Z" fill="#FFFFFF"/>
</mask>
<g mask="url(#mask0_195_12)">
<path d="M68.6244 151.383C68.6466 151.355 68.6675 151.329 68.6866 151.304H112.97C113.006 151.343 113.047 151.387 113.092 151.437C113.297 151.661 113.597 151.992 113.974 152.414C114.728 153.258 115.792 154.471 117.029 155.942C119.504 158.885 122.665 162.851 125.424 166.96C128.193 171.085 130.514 175.292 131.365 178.726C131.791 180.443 131.83 181.893 131.443 183.024C131.068 184.118 130.268 184.987 128.829 185.525C125.709 186.691 120.118 187.661 113.275 188.357C106.453 189.051 98.451 189.466 90.5484 189.544C82.6445 189.621 74.8542 189.361 68.4541 188.706C65.2539 188.379 62.4124 187.955 60.0839 187.429C57.7401 186.899 55.9728 186.277 54.8795 185.585C52.884 184.32 52.4708 181.76 53.3116 178.196C54.1406 174.68 56.1295 170.498 58.4459 166.455C60.7561 162.422 63.3651 158.572 65.3989 155.727C66.4156 154.305 67.2868 153.135 67.9038 152.323C68.2125 151.916 68.4572 151.599 68.6244 151.383Z" fill="white" stroke="black" stroke-width="3"/>
<path d="M137.806 115.717C137.806 125.781 135.423 135.96 128.29 143.622C121.167 151.274 109.198 156.529 89.7838 156.529C70.386 156.529 58.8142 150.804 52.0763 142.921C45.321 135.018 43.3229 124.831 43.3229 115.717C43.3229 108.414 48.479 99.2427 56.952 91.8609C65.4006 84.5003 77.0316 79.0264 89.7838 79.0264C102.535 79.0264 114.561 84.6091 123.405 92.032C127.825 95.7412 131.434 99.8967 133.934 104.018C136.439 108.147 137.806 112.201 137.806 115.717Z" fill="white" stroke="black" stroke-width="3"/>
<path d="M90.0456 126.703C90.3325 126.703 90.5676 126.936 90.5341 127.221C90.4335 128.069 90.0882 128.863 89.5444 129.474C88.8913 130.209 88.0053 130.622 87.0813 130.622C86.1574 130.622 85.2713 130.209 84.6182 129.474C84.0744 128.863 83.7291 128.069 83.6286 127.221C83.595 126.936 83.8301 126.703 84.1171 126.703C84.4036 126.703 84.6313 126.937 84.6792 127.22C84.7706 127.757 85.0031 128.256 85.3519 128.649C85.8108 129.165 86.4326 129.455 87.0813 129.455C87.7301 129.455 88.3518 129.165 88.8108 128.649C89.1595 128.256 89.392 127.757 89.4835 127.22C89.5314 126.937 89.7591 126.703 90.0456 126.703Z" fill="black"/>
<path d="M96.1413 126.703C96.4282 126.703 96.6633 126.936 96.6298 127.221C96.5292 128.069 96.184 128.863 95.6401 129.474C94.987 130.209 94.101 130.622 93.177 130.622C92.2531 130.622 91.367 130.209 90.7139 129.474C90.1701 128.863 89.8248 128.069 89.7243 127.221C89.6907 126.936 89.9259 126.703 90.2128 126.703C90.4993 126.703 90.727 126.937 90.7749 127.22C90.8663 127.757 91.0988 128.256 91.4476 128.649C91.9065 129.165 92.5283 129.455 93.177 129.455C93.8258 129.455 94.4476 129.165 94.9065 128.649C95.2552 128.256 95.4877 127.757 95.5792 127.22C95.6271 126.937 95.8548 126.703 96.1413 126.703Z" fill="black"/>
<path d="M46.0446 66.8354C46.8044 66.2999 47.8746 66.0691 49.2514 66.1497C50.6246 66.2302 52.237 66.6173 54.0095 67.2426C57.5537 68.4917 61.623 70.6496 65.4921 72.989C69.355 75.325 72.9906 77.8255 75.6627 79.7435C76.9981 80.7018 78.0918 81.5143 78.8508 82.0864C79.0301 82.2214 79.1912 82.3433 79.3319 82.4509L49.5327 103.438C49.4791 103.269 49.4186 103.077 49.3515 102.862C49.0685 101.954 48.6723 100.651 48.2195 99.0708C47.3138 95.9089 46.1848 91.6432 45.287 87.219C44.3875 82.7883 43.7269 78.2296 43.7444 74.472C43.7531 72.5924 43.932 70.9439 44.3187 69.6238C44.7066 68.3002 45.2844 67.3706 46.0446 66.8354Z" fill="white" stroke="black" stroke-width="3"/>
<path d="M132.421 63.7805C131.619 63.3107 130.534 63.1696 129.169 63.3651C127.807 63.5598 126.233 64.0805 124.518 64.8512C121.091 66.3921 117.216 68.8817 113.556 71.536C109.901 74.1863 106.486 76.9812 103.984 79.1155C102.733 80.1823 101.711 81.0827 101.002 81.7162C100.835 81.8664 100.685 82.001 100.554 82.1198L132 100.546C132.04 100.374 132.084 100.177 132.133 99.9572C132.339 99.0293 132.625 97.6978 132.944 96.0855C133.583 92.8587 134.352 88.5138 134.878 84.03C135.404 79.5396 135.682 74.9417 135.351 71.1985C135.185 69.3263 134.87 67.6983 134.374 66.4156C133.877 65.129 133.224 64.2503 132.421 63.7805Z" fill="white" stroke="black" stroke-width="3"/>
<path d="M49.7704 98.8373L80.1148 81.2034L86.2405 86.2754L48.3301 106.239L49.7704 98.8373Z" fill="white"/>
<path d="M130.404 98.8372L107.763 82.7271L97.7683 81.2241L128.663 103.844L130.404 98.8372Z" fill="white"/>
<path d="M111.04 96.6093L112.627 101.826C112.627 101.826 120.898 79.3903 116.39 79.4913C106.441 79.7138 130.199 94.6174 130.199 94.6174L126.294 94.4079C126.294 94.4079 103.636 79.8523 115.713 77.4458C128.983 74.8016 111.04 96.6093 111.04 96.6093Z" fill="#FF6699"/>
<path d="M135.411 106.138C135.411 111.912 134.24 117.631 131.964 122.967C129.689 128.302 126.353 133.15 122.148 137.234C117.944 141.317 112.952 144.556 107.458 146.766C101.964 148.976 96.0754 150.114 90.1291 150.114C84.1827 150.114 78.2943 148.976 72.8003 146.766C67.3064 144.556 62.3144 141.317 58.1097 137.234C53.905 133.15 50.5694 128.302 48.2939 122.967C46.018 117.631 44.8468 111.912 44.8468 106.138H49.8871C49.8871 111.27 50.9277 116.352 52.9502 121.093C54.9726 125.835 57.9369 130.143 61.6735 133.772C65.4106 137.401 69.8465 140.28 74.7292 142.244C79.6114 144.208 84.8446 145.219 90.1291 145.219C95.4136 145.219 100.647 144.208 105.529 142.244C110.412 140.28 114.848 137.401 118.585 133.772C122.321 130.143 125.286 125.835 127.308 121.093C129.331 116.352 130.371 111.27 130.371 106.138H135.411Z" fill="#4DCBFF"/>
<path d="M131.928 107.981C135.295 107.981 138.024 105.252 138.024 101.885C138.024 98.5187 135.295 95.7896 131.928 95.7896C128.562 95.7896 125.833 98.5187 125.833 101.885C125.833 105.252 128.562 107.981 131.928 107.981Z" fill="#817F7F"/>
<path d="M61.3496 116.067C49.1238 112.806 42.269 110.979 30.043 107.718" stroke="black" stroke-width="2"/>
<path d="M158.4 125.981C146.174 122.72 139.32 120.892 127.094 117.632" stroke="black" stroke-width="2"/>
<path d="M61.3496 118.154C49.1238 121.414 42.269 123.242 30.043 126.502" stroke="black" stroke-width="2"/>
<path d="M127.094 115.023C139.32 111.763 146.174 109.935 158.4 106.675" stroke="black" stroke-width="2"/>
<path d="M71.2011 184.093C71.1915 184.574 70.7944 184.956 70.3133 184.947L50.0634 184.549C49.5827 184.54 49.2004 184.142 49.21 183.662L50.0621 140.242C50.1814 134.169 55.2008 129.343 61.2738 129.462C67.3464 129.581 72.1725 134.601 72.0532 140.673L71.2011 184.093Z" fill="white"/>
<mask id="mask1_195_12" style="mask-type:luminance" maskUnits="userSpaceOnUse" x="49" y="129" width="24" height="56">
<path d="M71.2011 184.093C71.1915 184.574 70.7944 184.956 70.3133 184.947L50.0634 184.549C49.5827 184.54 49.2004 184.142 49.21 183.662L50.0621 140.242C50.1814 134.169 55.2008 129.343 61.2738 129.462C67.3464 129.581 72.1725 134.601 72.0532 140.673L71.2011 184.093Z" fill="white"/>
</mask>
<g mask="url(#mask1_195_12)">
<path d="M48.7563 140.216C48.8896 133.422 54.5054 128.023 61.2991 128.156C68.0932 128.29 73.4927 133.905 73.3594 140.699L70.7474 140.648C70.8524 135.297 66.5993 130.873 61.2482 130.768C55.8966 130.663 51.4733 134.916 51.3683 140.268L48.7563 140.216ZM61.2991 128.156C68.0932 128.29 73.4927 133.905 73.3594 140.699L72.5326 182.813C72.5091 184.015 71.5155 184.97 70.3133 184.947L69.8779 184.938C69.8779 184.938 69.8858 184.549 69.8953 184.068L70.7474 140.648C70.8524 135.297 66.5993 130.873 61.2482 130.768L61.2991 128.156ZM50.0634 184.549C48.8613 184.526 47.906 183.532 47.9295 182.33L48.7563 140.216C48.8896 133.422 54.5054 128.023 61.2991 128.156L61.2482 130.768C55.8966 130.663 51.4733 134.916 51.3683 140.268L50.5158 183.687C50.5067 184.168 50.4988 184.558 50.4988 184.558L50.0634 184.549Z" fill="url(#paint0_linear_195_12)"/>
</g>
<path d="M83.5981 117.082C83.5981 122.25 78.5295 128.88 72.2775 128.88C66.0255 128.88 60.9569 122.25 60.9569 117.082C60.9569 111.914 66.0255 104.062 72.2775 104.062C78.5295 104.062 83.5981 111.914 83.5981 117.082Z" fill="black"/>
<path d="M117.995 116.211C117.995 121.379 112.927 128.01 106.675 128.01C100.423 128.01 95.354 121.379 95.354 116.211C95.354 111.043 100.423 103.191 106.675 103.191C112.927 103.191 117.995 111.043 117.995 116.211Z" fill="black"/>
<path d="M83.598 111.578C83.598 114.389 80.8689 117.995 77.5023 117.995C74.1357 117.995 71.4066 114.389 71.4066 111.578C71.4066 108.768 74.1357 104.498 77.5023 104.498C80.8689 104.498 83.598 108.768 83.598 111.578Z" fill="white"/>
<path d="M117.995 110.707C117.995 113.518 115.266 117.124 111.899 117.124C108.533 117.124 105.804 113.518 105.804 110.707C105.804 107.897 108.533 103.627 111.899 103.627C115.266 103.627 117.995 107.897 117.995 110.707Z" fill="white"/>
</g>
<path d="M47.0239 107.981C50.3905 107.981 53.1196 105.252 53.1196 101.885C53.1196 98.5187 50.3905 95.7896 47.0239 95.7896C43.6574 95.7896 40.9282 98.5187 40.9282 101.885C40.9282 105.252 43.6574 107.981 47.0239 107.981Z" fill="#817F7F"/>
<path d="M65.7464 146.366C65.7464 148.681 63.5394 149.455 61.0171 147.91C58.9149 149.896 56.6029 148.681 56.6029 146.366C56.6029 144.051 58.8692 141.072 61.0171 141.072C63.1645 141.072 65.7464 144.051 65.7464 146.366Z" fill="#F7BACE"/>
<path d="M56.4561 143.106C57.3674 142.775 57.7287 141.685 57.263 140.671C56.7973 139.656 55.681 139.102 54.7697 139.433C53.8584 139.763 53.4971 140.853 53.9628 141.868C54.4285 142.882 55.5448 143.436 56.4561 143.106Z" fill="#F7BACE"/>
<path d="M65.8931 143.106C64.9818 142.775 64.6206 141.685 65.0862 140.671C65.5519 139.656 66.6682 139.102 67.5795 139.433C68.4908 139.763 68.8521 140.853 68.3864 141.868C67.9207 142.882 66.8045 143.436 65.8931 143.106Z" fill="#F7BACE"/>
<path d="M61.8278 138.024C61.8278 139.467 62.6076 140.636 63.5694 140.636C64.5312 140.636 65.311 139.467 65.311 138.024C65.311 136.581 64.5312 135.411 63.5694 135.411C62.6076 135.411 61.8278 136.581 61.8278 138.024Z" fill="#F7BACE"/>
<path d="M57.4736 138.024C57.4736 139.467 58.2534 140.636 59.2153 140.636C60.1771 140.636 60.9569 139.467 60.9569 138.024C60.9569 136.581 60.1771 135.411 59.2153 135.411C58.2534 135.411 57.4736 136.581 57.4736 138.024Z" fill="#F7BACE"/>
<path d="M88.823 148.256C96.2249 142.378 90.3965 180.041 78.3732 180.041C66.3499 180.041 60.3038 165.04 60.3038 152.175C60.3038 139.31 66.3499 175.469 78.3732 175.469C90.3965 175.469 82.5096 143.031 88.823 148.256Z" fill="#4DCBFF"/>
<path d="M60.3039 155.44C66.9168 155.44 72.2776 150.079 72.2776 143.467C72.2776 136.854 66.9168 131.493 60.3039 131.493C53.691 131.493 48.3302 136.854 48.3302 143.467C48.3302 150.079 53.691 155.44 60.3039 155.44Z" fill="#FF7A2E"/>
<path d="M69.0556 143.249C69.0556 148.058 65.1569 151.957 60.3474 151.957C55.5379 151.957 51.6393 148.058 51.6393 143.249C51.6393 138.439 55.5379 134.541 60.3474 134.541C65.1569 134.541 69.0556 138.439 69.0556 143.249Z" fill="#D81212"/>
</g>
<defs>
<linearGradient id="paint0_linear_195_12" x1="60.1884" y1="184.748" x2="61.2738" y2="129.462" gradientUnits="userSpaceOnUse">
<stop stop-color="white"/>
<stop offset="0.47"/>
</linearGradient>
<clipPath id="clip0_195_12">
<rect width="182" height="182" fill="white"/>
</clipPath>
</defs>
</svg>
