<svg width="182" height="232" viewBox="0 0 182 232" fill="none" xmlns="http://www.w3.org/2000/svg">
<path d="M91 187C141.258 187 182 145.139 182 93.5C182 41.8614 141.258 0 91 0C40.7421 0 0 41.8614 0 93.5C0 145.139 40.7421 187 91 187Z" fill="#F7BACE"/>
<mask id="path-2-inside-1_191_11" fill="white">
<path d="M52.8072 150C52.8251 148.895 53.735 148.015 54.8394 148.032L73.1441 148.329C74.2485 148.347 75.1293 149.257 75.1114 150.361L74.485 188.99C74.3851 195.149 69.3112 200.061 63.1521 199.961V199.961C56.9929 199.861 52.081 194.787 52.1808 188.628L52.8072 150Z"/>
</mask>
<path d="M52.8072 150C52.8251 148.895 53.735 148.015 54.8394 148.032L73.1441 148.329C74.2485 148.347 75.1293 149.257 75.1114 150.361L74.485 188.99C74.3851 195.149 69.3112 200.061 63.1521 199.961V199.961C56.9929 199.861 52.081 194.787 52.1808 188.628L52.8072 150Z" fill="white"/>
<path d="M52.8397 148L75.1438 148.362L52.8397 148ZM77.4846 189.038C77.3578 196.854 70.9192 203.087 63.1034 202.961C55.2877 202.834 49.0545 196.395 49.1812 188.579L55.1804 188.677C55.1074 193.179 58.6982 196.888 63.2007 196.961C67.7032 197.034 71.4124 193.444 71.4854 188.941L77.4846 189.038ZM63.1034 202.961C55.2877 202.834 49.0545 196.395 49.1812 188.579L49.759 152.951C49.8038 150.19 52.0783 147.988 54.8394 148.032L55.8393 148.049C55.8393 148.049 55.8247 148.944 55.8068 150.048L55.1804 188.677C55.1074 193.179 58.6982 196.888 63.2007 196.961L63.1034 202.961ZM73.1441 148.329C75.9051 148.374 78.1071 150.649 78.0623 153.41L77.4846 189.038C77.3578 196.854 70.9192 203.087 63.1034 202.961L63.2007 196.961C67.7032 197.034 71.4124 193.444 71.4854 188.941L72.1118 150.313C72.1297 149.208 72.1442 148.313 72.1442 148.313L73.1441 148.329Z" fill="url(#paint0_linear_191_11)" mask="url(#path-2-inside-1_191_11)"/>
<path d="M112.815 151.532L131.12 151.829C131.396 151.834 131.616 152.061 131.612 152.337L130.985 190.965C130.899 196.296 126.507 200.548 121.176 200.461C115.846 200.375 111.594 195.983 111.681 190.652L112.307 152.024C112.312 151.748 112.539 151.528 112.815 151.532Z" fill="white" stroke="url(#paint1_linear_191_11)" stroke-width="3"/>
<path d="M144.252 151.107C144.252 164.212 138.394 173.473 128.993 179.492C119.553 185.538 106.499 188.334 92.1511 188.334C79.6173 188.334 66.7443 185.293 57.0307 179.108C47.3399 172.938 40.8165 163.662 40.8165 151.107C40.8165 141.361 46.9053 132.438 56.2521 125.915C65.5894 119.398 78.0782 115.357 90.6187 115.357C103.165 115.357 116.623 119.401 126.929 125.934C137.261 132.482 144.252 141.407 144.252 151.107Z" fill="white" stroke="black" stroke-width="3"/>
<path d="M91.5422 165.096C91.8788 165.096 92.1547 165.37 92.1153 165.704C91.9973 166.699 91.5923 167.629 90.9543 168.347C90.1881 169.209 89.1487 169.693 88.0648 169.693C86.9809 169.693 85.9414 169.209 85.1752 168.347C84.5372 167.629 84.1322 166.699 84.0142 165.704C83.9749 165.37 84.2507 165.096 84.5873 165.096C84.9234 165.096 85.1905 165.371 85.2467 165.702C85.354 166.333 85.6267 166.918 86.0359 167.378C86.5743 167.984 87.3037 168.324 88.0648 168.324C88.8258 168.324 89.5552 167.984 90.0936 167.378C90.5028 166.918 90.7755 166.333 90.8828 165.702C90.939 165.371 91.2061 165.096 91.5422 165.096Z" fill="black"/>
<path d="M98.6933 165.096C99.0299 165.096 99.3057 165.37 99.2664 165.704C99.1484 166.699 98.7433 167.629 98.1054 168.347C97.3392 169.209 96.2997 169.693 95.2158 169.693C94.1319 169.693 93.0925 169.209 92.3263 168.347C91.6883 167.629 91.2832 166.699 91.1652 165.704C91.1259 165.37 91.4017 165.096 91.7383 165.096C92.0745 165.096 92.3416 165.371 92.3978 165.702C92.505 166.333 92.7778 166.918 93.187 167.378C93.7253 167.984 94.4547 168.324 95.2158 168.324C95.9769 168.324 96.7063 167.984 97.2447 167.378C97.6538 166.918 97.9266 166.333 98.0339 165.702C98.09 165.371 98.3572 165.096 98.6933 165.096Z" fill="black"/>
<path d="M78.3597 151.052C78.3597 154.295 75.7296 158.457 72.4856 158.457C69.2416 158.457 66.6115 154.295 66.6115 151.052C66.6115 147.808 69.2416 142.88 72.4856 142.88C75.7296 142.88 78.3597 147.808 78.3597 151.052Z" fill="black"/>
<path d="M116.669 151.307C116.669 154.551 114.039 158.713 110.795 158.713C107.551 158.713 104.921 154.551 104.921 151.307C104.921 148.064 107.551 143.136 110.795 143.136C114.039 143.136 116.669 148.064 116.669 151.307Z" fill="black"/>
<path d="M46.364 99.1181C47.1152 98.6781 48.1454 98.5386 49.4665 98.7276C50.7831 98.916 52.3124 99.4204 53.9848 100.172C57.3282 101.675 61.1136 104.106 64.6943 106.703C68.268 109.294 71.6081 112.027 74.0563 114.115C75.2802 115.158 76.2798 116.039 76.9729 116.659C77.0843 116.759 77.188 116.852 77.2835 116.937L46.7975 134.798C46.7693 134.673 46.7388 134.537 46.7063 134.391C46.5046 133.484 46.2247 132.181 45.9125 130.604C45.2877 127.448 44.5353 123.198 44.0214 118.814C43.5064 114.422 43.2355 109.932 43.5585 106.281C43.7201 104.454 44.0275 102.874 44.5067 101.633C44.9876 100.389 45.6128 99.5582 46.364 99.1181Z" fill="white" stroke="black" stroke-width="3"/>
<path d="M138.659 100.14C137.908 99.6995 136.878 99.5601 135.557 99.7491C134.24 99.9374 132.711 100.442 131.038 101.194C127.695 102.697 123.91 105.128 120.329 107.724C116.755 110.315 113.415 113.049 110.967 115.137C109.743 116.18 108.744 117.061 108.05 117.68C107.939 117.78 107.835 117.873 107.74 117.959L138.225 135.819C138.254 135.694 138.284 135.558 138.317 135.412C138.519 134.505 138.799 133.203 139.111 131.625C139.735 128.469 140.488 124.22 141.002 119.836C141.517 115.443 141.788 110.953 141.464 107.302C141.303 105.476 140.996 103.895 140.516 102.655C140.036 101.41 139.41 100.58 138.659 100.14Z" fill="white" stroke="black" stroke-width="3"/>
<path d="M48.012 131.985L61.1916 124.112L74.3713 116.238L78.6228 118.194L46.3114 137.518L48.012 131.985Z" fill="white"/>
<path d="M137.293 132.836L124.114 124.963L110.934 117.089L106.683 119.045L138.994 138.369L137.293 132.836Z" fill="white"/>
<path d="M137.796 134.183L109.473 117.6L106.257 119.643L137.16 137.518L137.796 134.183Z" fill="white"/>
<path d="M116.003 136.39L117.557 141.496C117.557 141.496 125.654 119.536 121.242 119.635C111.502 119.852 134.759 134.44 134.759 134.44L130.937 134.235C130.937 134.235 108.756 119.988 120.579 117.633C133.569 115.045 116.003 136.39 116.003 136.39Z" fill="#FF6699"/>
<path d="M87.0431 149.214C87.0431 155.276 81.097 163.054 73.7626 163.054C66.4281 163.054 60.482 155.276 60.482 149.214C60.482 143.152 66.4281 133.943 73.7626 133.943C81.097 133.943 87.0431 143.152 87.0431 149.214Z" fill="black"/>
<path d="M122.288 149.725C122.288 155.787 116.342 163.564 109.007 163.564C101.673 163.564 95.7266 155.787 95.7266 149.725C95.7266 143.663 101.673 134.454 109.007 134.454C116.342 134.454 122.288 143.663 122.288 149.725Z" fill="black"/>
<path d="M87.0432 142.759C87.0432 146.056 83.8415 150.286 79.8921 150.286C75.9427 150.286 72.741 146.056 72.741 142.759C72.741 139.462 75.9427 134.454 79.8921 134.454C83.8415 134.454 87.0432 139.462 87.0432 142.759Z" fill="white"/>
<path d="M122.288 143.27C122.288 146.567 119.086 150.796 115.137 150.796C111.187 150.796 107.986 146.567 107.986 143.27C107.986 139.973 111.187 134.964 115.137 134.964C119.086 134.964 122.288 139.973 122.288 143.27Z" fill="white"/>
<path d="M60.482 156.925C48.5134 153.734 41.8031 151.944 29.8345 148.754" stroke="black" stroke-width="2"/>
<path d="M155.489 166.629C143.521 163.438 136.81 161.648 124.842 158.457" stroke="black" stroke-width="2"/>
<path d="M60.482 158.968C48.5134 162.159 41.8031 163.948 29.8345 167.139" stroke="black" stroke-width="2"/>
<path d="M124.842 155.904C136.81 152.713 143.521 150.923 155.489 147.732" stroke="black" stroke-width="2"/>
<defs>
<linearGradient id="paint0_linear_191_11" x1="63.9917" y1="148.181" x2="63.1521" y2="199.961" gradientUnits="userSpaceOnUse">
<stop stop-color="white"/>
<stop offset="0.47"/>
</linearGradient>
<linearGradient id="paint1_linear_191_11" x1="122.73" y1="153.681" x2="121.89" y2="205.461" gradientUnits="userSpaceOnUse">
<stop stop-color="white"/>
<stop offset="0.47"/>
</linearGradient>
</defs>
</svg>
