<svg width="120" height="120" viewBox="0 0 120 120" fill="none" xmlns="http://www.w3.org/2000/svg">
<g filter="url(#filter0_d_182_6)">
<circle cx="60" cy="56" r="50" fill="white"/>
</g>
<path d="M42.5557 61.2197C41.999 61.2197 41.4863 61.1221 41.0176 60.9268C40.5586 60.7217 40.1533 60.4434 39.8018 60.0918C39.46 59.7305 39.1963 59.3203 39.0107 58.8613C38.8252 58.3926 38.7324 57.8994 38.7324 57.3818C38.7324 56.8643 38.8252 56.376 39.0107 55.917C39.1963 55.4482 39.46 55.0381 39.8018 54.6865C40.1533 54.3252 40.5586 54.042 41.0176 53.8369C41.4863 53.6318 41.999 53.5293 42.5557 53.5293C43.0928 53.5293 43.5566 53.6172 43.9473 53.793C44.3379 53.959 44.6064 54.1104 44.7529 54.2471V55.4629C44.4795 55.2578 44.167 55.082 43.8154 54.9355C43.4639 54.7793 43.0439 54.7012 42.5557 54.7012C42.0381 54.7012 41.584 54.8281 41.1934 55.082C40.8027 55.3262 40.5 55.6533 40.2852 56.0635C40.0801 56.4639 39.9775 56.9033 39.9775 57.3818C39.9775 57.8506 40.0801 58.29 40.2852 58.7002C40.5 59.1006 40.8027 59.4277 41.1934 59.6816C41.584 59.9258 42.0381 60.0479 42.5557 60.0479C43.0439 60.0479 43.4639 59.9746 43.8154 59.8281C44.167 59.6719 44.4795 59.4912 44.7529 59.2861V60.502C44.6064 60.6484 44.3379 60.8047 43.9473 60.9707C43.5566 61.1367 43.0928 61.2197 42.5557 61.2197ZM50.041 61.2197C49.4844 61.2197 48.9717 61.1221 48.5029 60.9268C48.0439 60.7217 47.6387 60.4434 47.2871 60.0918C46.9453 59.7305 46.6816 59.3203 46.4961 58.8613C46.3105 58.3926 46.2178 57.8994 46.2178 57.3818C46.2178 56.6885 46.3691 56.0488 46.6719 55.4629C46.9746 54.877 47.3896 54.4082 47.917 54.0566C48.4541 53.7051 49.0645 53.5293 49.748 53.5293C50.5 53.5293 51.125 53.6855 51.623 53.998C52.1211 54.3105 52.4922 54.7354 52.7363 55.2725C52.9902 55.8096 53.1172 56.415 53.1172 57.0889V57.8066H47.3457V56.7812H51.9307C51.8818 56.3027 51.7451 55.9121 51.5205 55.6094C51.3057 55.3066 51.042 55.082 50.7295 54.9355C50.417 54.7793 50.0898 54.7012 49.748 54.7012C49.2793 54.7012 48.874 54.8281 48.5322 55.082C48.1904 55.3262 47.9268 55.6533 47.7412 56.0635C47.5557 56.4639 47.4629 56.9033 47.4629 57.3818C47.4629 57.8506 47.5654 58.29 47.7705 58.7002C47.9854 59.1006 48.2881 59.4277 48.6787 59.6816C49.0693 59.9258 49.5234 60.0479 50.041 60.0479C50.5684 60.0479 51.0566 59.916 51.5059 59.6523C51.9648 59.3789 52.3506 59.0811 52.6631 58.7588V60.0625C52.5264 60.2285 52.3213 60.4043 52.0479 60.5898C51.7842 60.7656 51.4766 60.9121 51.125 61.0293C50.7832 61.1562 50.4219 61.2197 50.041 61.2197ZM60.1924 61L60.1777 56.6494C60.1777 56.0146 60.0361 55.5312 59.7529 55.1992C59.4795 54.8672 59.0547 54.7012 58.4785 54.7012C58.0879 54.7012 57.6973 54.8477 57.3066 55.1406C56.9258 55.4238 56.5889 55.7559 56.2959 56.1367V54.833C56.4521 54.6377 56.6523 54.4424 56.8965 54.2471C57.1406 54.042 57.4141 53.8711 57.7168 53.7344C58.0293 53.5977 58.3516 53.5293 58.6836 53.5293C59.1816 53.5293 59.6357 53.6416 60.0459 53.8662C60.4561 54.0811 60.7832 54.4131 61.0273 54.8623C61.2715 55.3018 61.3936 55.8584 61.3936 56.5322V61H60.1924ZM55.0947 61V53.6758H56.2959V61H55.0947ZM66.5059 61.2197C66.0957 61.2197 65.7393 61.1367 65.4365 60.9707C65.1338 60.7949 64.8994 60.5508 64.7334 60.2383C64.5674 59.9258 64.4844 59.5645 64.4844 59.1543V54.8037H63.0781V54.4521C63.5566 54.2373 63.957 53.8857 64.2793 53.3975C64.6016 52.8994 64.8848 52.2891 65.1289 51.5664H65.6855V53.6758H68.0439V54.8037H65.6855V59.0957C65.6855 59.3984 65.7832 59.6377 65.9785 59.8135C66.1836 59.9893 66.4473 60.0771 66.7695 60.0771C67.0625 60.0771 67.3262 60.043 67.5605 59.9746C67.8047 59.8965 68 59.8135 68.1465 59.7256V60.7803C67.9512 60.9365 67.7217 61.0488 67.458 61.1172C67.1943 61.1855 66.877 61.2197 66.5059 61.2197ZM73.5811 61.2197C73.0244 61.2197 72.5117 61.1221 72.043 60.9268C71.584 60.7217 71.1787 60.4434 70.8271 60.0918C70.4854 59.7305 70.2217 59.3203 70.0361 58.8613C69.8506 58.3926 69.7578 57.8994 69.7578 57.3818C69.7578 56.6885 69.9092 56.0488 70.2119 55.4629C70.5146 54.877 70.9297 54.4082 71.457 54.0566C71.9941 53.7051 72.6045 53.5293 73.2881 53.5293C74.04 53.5293 74.665 53.6855 75.1631 53.998C75.6611 54.3105 76.0322 54.7354 76.2764 55.2725C76.5303 55.8096 76.6572 56.415 76.6572 57.0889V57.8066H70.8857V56.7812H75.4707C75.4219 56.3027 75.2852 55.9121 75.0605 55.6094C74.8457 55.3066 74.582 55.082 74.2695 54.9355C73.957 54.7793 73.6299 54.7012 73.2881 54.7012C72.8193 54.7012 72.4141 54.8281 72.0723 55.082C71.7305 55.3262 71.4668 55.6533 71.2812 56.0635C71.0957 56.4639 71.0029 56.9033 71.0029 57.3818C71.0029 57.8506 71.1055 58.29 71.3105 58.7002C71.5254 59.1006 71.8281 59.4277 72.2188 59.6816C72.6094 59.9258 73.0635 60.0479 73.5811 60.0479C74.1084 60.0479 74.5967 59.916 75.0459 59.6523C75.5049 59.3789 75.8906 59.0811 76.2031 58.7588V60.0625C76.0664 60.2285 75.8613 60.4043 75.5879 60.5898C75.3242 60.7656 75.0166 60.9121 74.665 61.0293C74.3232 61.1562 73.9619 61.2197 73.5811 61.2197ZM78.6348 61V53.6758H79.8359V61H78.6348ZM79.8359 56.5762V55.1406C80.1191 54.6523 80.4609 54.2617 80.8613 53.9688C81.2617 53.6758 81.6719 53.5293 82.0918 53.5293C82.375 53.5293 82.6289 53.5781 82.8535 53.6758V55.0674C82.707 54.9795 82.5557 54.9111 82.3994 54.8623C82.2432 54.8135 82.082 54.7891 81.916 54.7891C81.418 54.7891 81.0127 54.9648 80.7002 55.3164C80.3975 55.668 80.1094 56.0879 79.8359 56.5762Z" fill="#403F3C"/>
<defs>
<filter id="filter0_d_182_6" x="0.1" y="0.1" width="119.8" height="119.8" filterUnits="userSpaceOnUse" color-interpolation-filters="sRGB">
<feFlood flood-opacity="0" result="BackgroundImageFix"/>
<feColorMatrix in="SourceAlpha" type="matrix" values="0 0 0 0 0 0 0 0 0 0 0 0 0 0 0 0 0 0 127 0" result="hardAlpha"/>
<feMorphology radius="2" operator="erode" in="SourceAlpha" result="effect1_dropShadow_182_6"/>
<feOffset dy="4"/>
<feGaussianBlur stdDeviation="5.95"/>
<feComposite in2="hardAlpha" operator="out"/>
<feColorMatrix type="matrix" values="0 0 0 0 0.301667 0 0 0 0 0.11765 0 0 0 0 0.11765 0 0 0 0.25 0"/>
<feBlend mode="normal" in2="BackgroundImageFix" result="effect1_dropShadow_182_6"/>
<feBlend mode="normal" in="SourceGraphic" in2="effect1_dropShadow_182_6" result="shape"/>
</filter>
</defs>
</svg>
