<svg width="189" height="185" viewBox="0 0 189 185" fill="none" xmlns="http://www.w3.org/2000/svg">
<g filter="url(#filter0_d_182_3)">
<path d="M10 95.5C10 83.7467 12.315 72.1085 16.8128 61.2498C21.3106 50.3912 27.9031 40.5248 36.2139 32.2139C44.5248 23.9031 54.3912 17.3106 65.2498 12.8128C76.1085 8.31499 87.7467 6 99.5 6L99.5 95.5H10Z" fill="white"/>
</g>
<path d="M45.2451 53V42.4531H46.4463V53H45.2451ZM52.2471 53.2197C51.6904 53.2197 51.1777 53.1221 50.709 52.9268C50.25 52.7217 49.8447 52.4434 49.4932 52.0918C49.1514 51.7305 48.8877 51.3203 48.7021 50.8613C48.5166 50.3926 48.4238 49.8994 48.4238 49.3818C48.4238 48.6885 48.5752 48.0488 48.8779 47.4629C49.1807 46.877 49.5957 46.4082 50.123 46.0566C50.6602 45.7051 51.2705 45.5293 51.9541 45.5293C52.7061 45.5293 53.3311 45.6855 53.8291 45.998C54.3271 46.3105 54.6982 46.7354 54.9424 47.2725C55.1963 47.8096 55.3232 48.415 55.3232 49.0889V49.8066H49.5518V48.7812H54.1367C54.0879 48.3027 53.9512 47.9121 53.7266 47.6094C53.5117 47.3066 53.248 47.082 52.9355 46.9355C52.623 46.7793 52.2959 46.7012 51.9541 46.7012C51.4854 46.7012 51.0801 46.8281 50.7383 47.082C50.3965 47.3262 50.1328 47.6533 49.9473 48.0635C49.7617 48.4639 49.6689 48.9033 49.6689 49.3818C49.6689 49.8506 49.7715 50.29 49.9766 50.7002C50.1914 51.1006 50.4941 51.4277 50.8848 51.6816C51.2754 51.9258 51.7295 52.0479 52.2471 52.0479C52.7744 52.0479 53.2627 51.916 53.7119 51.6523C54.1709 51.3789 54.5566 51.0811 54.8691 50.7588V52.0625C54.7324 52.2285 54.5273 52.4043 54.2539 52.5898C53.9902 52.7656 53.6826 52.9121 53.3311 53.0293C52.9893 53.1562 52.6279 53.2197 52.2471 53.2197ZM57.7549 53V44.7383C57.7549 44.1621 57.8672 43.6934 58.0918 43.332C58.3164 42.9609 58.6045 42.6875 58.9561 42.5117C59.3076 42.3262 59.6641 42.2334 60.0254 42.2334C60.2793 42.2334 60.5088 42.2676 60.7139 42.3359C60.9189 42.4043 61.0947 42.502 61.2412 42.6289V43.6836C61.0947 43.5859 60.9189 43.5078 60.7139 43.4492C60.5088 43.3906 60.3037 43.3662 60.0986 43.376C59.7373 43.3857 59.4541 43.5029 59.249 43.7275C59.0537 43.9424 58.9561 44.3232 58.9561 44.8701V53H57.7549ZM56.5977 46.8037V45.6758H61.0947V46.8037H56.5977ZM65.5332 53.2197C65.123 53.2197 64.7666 53.1367 64.4639 52.9707C64.1611 52.7949 63.9268 52.5508 63.7607 52.2383C63.5947 51.9258 63.5117 51.5645 63.5117 51.1543V46.8037H62.1055V46.4521C62.584 46.2373 62.9844 45.8857 63.3066 45.3975C63.6289 44.8994 63.9121 44.2891 64.1562 43.5664H64.7129V45.6758H67.0713V46.8037H64.7129V51.0957C64.7129 51.3984 64.8105 51.6377 65.0059 51.8135C65.2109 51.9893 65.4746 52.0771 65.7969 52.0771C66.0898 52.0771 66.3535 52.043 66.5879 51.9746C66.832 51.8965 67.0273 51.8135 67.1738 51.7256V52.7803C66.9785 52.9365 66.749 53.0488 66.4854 53.1172C66.2217 53.1855 65.9043 53.2197 65.5332 53.2197ZM48.1309 71.1465C47.5449 71.1465 47.0176 71.0195 46.5488 70.7656C46.0801 70.5117 45.709 70.1504 45.4355 69.6816C45.1621 69.2129 45.0254 68.6562 45.0254 68.0117V63.6758H46.2705V68.0117C46.2705 68.6465 46.4561 69.1348 46.8271 69.4766C47.208 69.8086 47.6426 69.9746 48.1309 69.9746C48.6191 69.9746 49.0488 69.8086 49.4199 69.4766C49.8008 69.1348 49.9912 68.6465 49.9912 68.0117V63.6758H51.2363V68.0117C51.2363 68.6562 51.0996 69.2129 50.8262 69.6816C50.5527 70.1504 50.1816 70.5117 49.7129 70.7656C49.2441 71.0195 48.7168 71.1465 48.1309 71.1465ZM53.5068 74.5156V63.6758H54.708V64.9209C54.9619 64.5303 55.3037 64.2031 55.7334 63.9395C56.1729 63.666 56.6709 63.5293 57.2275 63.5293C57.8623 63.5293 58.4336 63.6855 58.9414 63.998C59.459 64.3008 59.8691 64.7305 60.1719 65.2871C60.4844 65.834 60.6406 66.4785 60.6406 67.2207C60.6406 68.0215 60.4844 68.7246 60.1719 69.3301C59.8691 69.9258 59.4492 70.3896 58.9121 70.7217C58.3848 71.0537 57.7842 71.2197 57.1104 71.2197C56.6904 71.2197 56.2607 71.1074 55.8213 70.8828C55.3916 70.6582 55.0205 70.3701 54.708 70.0186V74.5156H53.5068ZM56.8906 70.0479C57.418 70.0479 57.8672 69.9111 58.2383 69.6377C58.6094 69.3643 58.8926 69.0127 59.0879 68.583C59.293 68.1436 59.3955 67.6895 59.3955 67.2207C59.3955 66.7422 59.2979 66.3174 59.1025 65.9463C58.9072 65.5654 58.6338 65.2627 58.2822 65.0381C57.9307 64.8135 57.5156 64.7012 57.0371 64.7012C56.5977 64.7012 56.1973 64.8135 55.8359 65.0381C55.4844 65.2627 55.2061 65.5752 55.001 65.9756C54.8057 66.3662 54.708 66.8252 54.708 67.3525L54.7227 68.7588C55.0352 69.1396 55.3623 69.4521 55.7041 69.6963C56.0459 69.9307 56.4414 70.0479 56.8906 70.0479Z" fill="#403F3C"/>
<defs>
<filter id="filter0_d_182_3" x="0.1" y="0.1" width="109.3" height="109.3" filterUnits="userSpaceOnUse" color-interpolation-filters="sRGB">
<feFlood flood-opacity="0" result="BackgroundImageFix"/>
<feColorMatrix in="SourceAlpha" type="matrix" values="0 0 0 0 0 0 0 0 0 0 0 0 0 0 0 0 0 0 127 0" result="hardAlpha"/>
<feMorphology radius="2" operator="erode" in="SourceAlpha" result="effect1_dropShadow_182_3"/>
<feOffset dy="4"/>
<feGaussianBlur stdDeviation="5.95"/>
<feComposite in2="hardAlpha" operator="out"/>
<feColorMatrix type="matrix" values="0 0 0 0 0.301667 0 0 0 0 0.11765 0 0 0 0 0.11765 0 0 0 0.25 0"/>
<feBlend mode="normal" in2="BackgroundImageFix" result="effect1_dropShadow_182_3"/>
<feBlend mode="normal" in="SourceGraphic" in2="effect1_dropShadow_182_3" result="shape"/>
</filter>
</defs>
</svg>
