<svg width="189" height="193" viewBox="0 0 189 193" fill="none" xmlns="http://www.w3.org/2000/svg">
<g filter="url(#filter0_d_182_5)">
<path d="M10 89.5C10 101.253 12.315 112.892 16.8128 123.75C21.3106 134.609 27.9031 144.475 36.2139 152.786C44.5248 161.097 54.3912 167.689 65.2498 172.187C76.1085 176.685 87.7467 179 99.5 179L99.5 89.5H10Z" fill="white"/>
</g>
<path d="M45.2451 122V111.453H46.4463V122H45.2451ZM52.2471 122.22C51.6904 122.22 51.1777 122.122 50.709 121.927C50.25 121.722 49.8447 121.443 49.4932 121.092C49.1514 120.73 48.8877 120.32 48.7021 119.861C48.5166 119.393 48.4238 118.899 48.4238 118.382C48.4238 117.688 48.5752 117.049 48.8779 116.463C49.1807 115.877 49.5957 115.408 50.123 115.057C50.6602 114.705 51.2705 114.529 51.9541 114.529C52.7061 114.529 53.3311 114.686 53.8291 114.998C54.3271 115.311 54.6982 115.735 54.9424 116.272C55.1963 116.81 55.3232 117.415 55.3232 118.089V118.807H49.5518V117.781H54.1367C54.0879 117.303 53.9512 116.912 53.7266 116.609C53.5117 116.307 53.248 116.082 52.9355 115.936C52.623 115.779 52.2959 115.701 51.9541 115.701C51.4854 115.701 51.0801 115.828 50.7383 116.082C50.3965 116.326 50.1328 116.653 49.9473 117.063C49.7617 117.464 49.6689 117.903 49.6689 118.382C49.6689 118.851 49.7715 119.29 49.9766 119.7C50.1914 120.101 50.4941 120.428 50.8848 120.682C51.2754 120.926 51.7295 121.048 52.2471 121.048C52.7744 121.048 53.2627 120.916 53.7119 120.652C54.1709 120.379 54.5566 120.081 54.8691 119.759V121.062C54.7324 121.229 54.5273 121.404 54.2539 121.59C53.9902 121.766 53.6826 121.912 53.3311 122.029C52.9893 122.156 52.6279 122.22 52.2471 122.22ZM57.7549 122V113.738C57.7549 113.162 57.8672 112.693 58.0918 112.332C58.3164 111.961 58.6045 111.688 58.9561 111.512C59.3076 111.326 59.6641 111.233 60.0254 111.233C60.2793 111.233 60.5088 111.268 60.7139 111.336C60.9189 111.404 61.0947 111.502 61.2412 111.629V112.684C61.0947 112.586 60.9189 112.508 60.7139 112.449C60.5088 112.391 60.3037 112.366 60.0986 112.376C59.7373 112.386 59.4541 112.503 59.249 112.728C59.0537 112.942 58.9561 113.323 58.9561 113.87V122H57.7549ZM56.5977 115.804V114.676H61.0947V115.804H56.5977ZM65.5332 122.22C65.123 122.22 64.7666 122.137 64.4639 121.971C64.1611 121.795 63.9268 121.551 63.7607 121.238C63.5947 120.926 63.5117 120.564 63.5117 120.154V115.804H62.1055V115.452C62.584 115.237 62.9844 114.886 63.3066 114.397C63.6289 113.899 63.9121 113.289 64.1562 112.566H64.7129V114.676H67.0713V115.804H64.7129V120.096C64.7129 120.398 64.8105 120.638 65.0059 120.813C65.2109 120.989 65.4746 121.077 65.7969 121.077C66.0898 121.077 66.3535 121.043 66.5879 120.975C66.832 120.896 67.0273 120.813 67.1738 120.726V121.78C66.9785 121.937 66.749 122.049 66.4854 122.117C66.2217 122.186 65.9043 122.22 65.5332 122.22ZM45.2451 140V129.453H46.4463V140H45.2451ZM52.2471 140.22C51.6904 140.22 51.1777 140.122 50.709 139.927C50.25 139.722 49.8447 139.443 49.4932 139.092C49.1514 138.73 48.8877 138.32 48.7021 137.861C48.5166 137.393 48.4238 136.899 48.4238 136.382C48.4238 135.864 48.5166 135.376 48.7021 134.917C48.8877 134.448 49.1514 134.038 49.4932 133.687C49.8447 133.325 50.25 133.042 50.709 132.837C51.1777 132.632 51.6904 132.529 52.2471 132.529C52.8037 132.529 53.3115 132.632 53.7705 132.837C54.2393 133.042 54.6445 133.325 54.9863 133.687C55.3379 134.038 55.6064 134.448 55.792 134.917C55.9775 135.376 56.0703 135.864 56.0703 136.382C56.0703 136.899 55.9775 137.393 55.792 137.861C55.6064 138.32 55.3379 138.73 54.9863 139.092C54.6445 139.443 54.2393 139.722 53.7705 139.927C53.3115 140.122 52.8037 140.22 52.2471 140.22ZM52.2471 139.048C52.7744 139.048 53.2285 138.926 53.6094 138.682C54 138.428 54.2979 138.101 54.5029 137.7C54.7178 137.29 54.8252 136.851 54.8252 136.382C54.8252 135.903 54.7178 135.464 54.5029 135.063C54.2979 134.653 54 134.326 53.6094 134.082C53.2285 133.828 52.7744 133.701 52.2471 133.701C51.7295 133.701 51.2754 133.828 50.8848 134.082C50.4941 134.326 50.1914 134.653 49.9766 135.063C49.7715 135.464 49.6689 135.903 49.6689 136.382C49.6689 136.851 49.7715 137.29 49.9766 137.7C50.1914 138.101 50.4941 138.428 50.8848 138.682C51.2754 138.926 51.7295 139.048 52.2471 139.048ZM59.5859 140L57.0225 132.676H58.458L60.084 137.817L62.0029 132.676H62.6768L64.5957 137.817L66.2217 132.676H67.6572L65.0938 140H64.3467L62.3398 134.829L60.333 140H59.5859Z" fill="#403F3C"/>
<defs>
<filter id="filter0_d_182_5" x="0.1" y="83.6" width="109.3" height="109.3" filterUnits="userSpaceOnUse" color-interpolation-filters="sRGB">
<feFlood flood-opacity="0" result="BackgroundImageFix"/>
<feColorMatrix in="SourceAlpha" type="matrix" values="0 0 0 0 0 0 0 0 0 0 0 0 0 0 0 0 0 0 127 0" result="hardAlpha"/>
<feMorphology radius="2" operator="erode" in="SourceAlpha" result="effect1_dropShadow_182_5"/>
<feOffset dy="4"/>
<feGaussianBlur stdDeviation="5.95"/>
<feComposite in2="hardAlpha" operator="out"/>
<feColorMatrix type="matrix" values="0 0 0 0 0.301667 0 0 0 0 0.11765 0 0 0 0 0.11765 0 0 0 0.25 0"/>
<feBlend mode="normal" in2="BackgroundImageFix" result="effect1_dropShadow_182_5"/>
<feBlend mode="normal" in="SourceGraphic" in2="effect1_dropShadow_182_5" result="shape"/>
</filter>
</defs>
</svg>
