<svg width="189" height="193" viewBox="0 0 189 193" fill="none" xmlns="http://www.w3.org/2000/svg">
<g filter="url(#filter0_d_182_4)">
<path d="M179 89.5C179 101.253 176.685 112.892 172.187 123.75C167.689 134.609 161.097 144.475 152.786 152.786C144.475 161.097 134.609 167.689 123.75 172.187C112.892 176.685 101.253 179 89.5 179L89.5 89.5H179Z" fill="white"/>
</g>
<path d="M116.245 122V114.676H117.446V122H116.245ZM117.446 117.576V116.141C117.729 115.652 118.071 115.262 118.472 114.969C118.872 114.676 119.282 114.529 119.702 114.529C119.985 114.529 120.239 114.578 120.464 114.676V116.067C120.317 115.979 120.166 115.911 120.01 115.862C119.854 115.813 119.692 115.789 119.526 115.789C119.028 115.789 118.623 115.965 118.311 116.316C118.008 116.668 117.72 117.088 117.446 117.576ZM123.174 113.152C122.891 113.152 122.651 113.05 122.456 112.845C122.271 112.64 122.178 112.41 122.178 112.156C122.178 111.893 122.271 111.663 122.456 111.468C122.651 111.263 122.891 111.16 123.174 111.16C123.359 111.16 123.525 111.209 123.672 111.307C123.828 111.395 123.95 111.517 124.038 111.673C124.126 111.819 124.17 111.98 124.17 112.156C124.17 112.322 124.126 112.483 124.038 112.64C123.95 112.796 123.828 112.923 123.672 113.021C123.525 113.108 123.359 113.152 123.174 113.152ZM122.72 122V114.676H123.921V122H122.72ZM121.562 115.804V114.676H123.921V115.804H121.562ZM129.282 125.735C128.833 125.735 128.447 125.682 128.125 125.574C127.812 125.477 127.544 125.35 127.319 125.193C127.095 125.047 126.89 124.905 126.704 124.769V123.479C126.851 123.587 127.041 123.724 127.275 123.89C127.52 124.065 127.808 124.222 128.14 124.358C128.481 124.495 128.862 124.563 129.282 124.563C129.761 124.563 130.2 124.476 130.601 124.3C131.001 124.124 131.323 123.865 131.567 123.523C131.812 123.182 131.934 122.771 131.934 122.293V120.755C131.68 121.146 131.333 121.487 130.894 121.78C130.464 122.073 129.971 122.22 129.414 122.22C128.789 122.22 128.218 122.063 127.7 121.751C127.183 121.429 126.768 120.984 126.455 120.418C126.152 119.852 126.001 119.197 126.001 118.455C126.001 117.645 126.152 116.946 126.455 116.36C126.768 115.774 127.192 115.325 127.729 115.013C128.267 114.69 128.867 114.529 129.531 114.529C129.951 114.529 130.376 114.632 130.806 114.837C131.245 115.032 131.621 115.306 131.934 115.657V114.676H133.135V121.854C133.135 122.723 132.959 123.445 132.607 124.021C132.256 124.598 131.787 125.027 131.201 125.311C130.615 125.594 129.976 125.735 129.282 125.735ZM129.604 121.033C130.054 121.033 130.449 120.916 130.791 120.682C131.143 120.447 131.416 120.125 131.611 119.715C131.816 119.305 131.919 118.841 131.919 118.323V116.917C131.616 116.536 131.289 116.243 130.938 116.038C130.596 115.823 130.2 115.716 129.751 115.716C129.224 115.716 128.774 115.848 128.403 116.111C128.032 116.365 127.744 116.702 127.539 117.122C127.344 117.532 127.246 117.977 127.246 118.455C127.246 118.924 127.344 119.354 127.539 119.744C127.734 120.135 128.008 120.447 128.359 120.682C128.721 120.916 129.136 121.033 129.604 121.033ZM140.723 122L140.708 117.649C140.708 117.015 140.566 116.531 140.283 116.199C140.01 115.867 139.585 115.701 139.009 115.701C138.618 115.701 138.228 115.848 137.837 116.141C137.456 116.424 137.119 116.756 136.826 117.137V115.833C136.982 115.638 137.183 115.442 137.427 115.247C137.671 115.042 137.944 114.871 138.247 114.734C138.56 114.598 138.882 114.529 139.214 114.529C139.712 114.529 140.166 114.642 140.576 114.866C140.986 115.081 141.313 115.413 141.558 115.862C141.802 116.302 141.924 116.858 141.924 117.532V122H140.723ZM135.625 122V111.453H136.826V122H135.625ZM147.036 122.22C146.626 122.22 146.27 122.137 145.967 121.971C145.664 121.795 145.43 121.551 145.264 121.238C145.098 120.926 145.015 120.564 145.015 120.154V115.804H143.608V115.452C144.087 115.237 144.487 114.886 144.81 114.397C145.132 113.899 145.415 113.289 145.659 112.566H146.216V114.676H148.574V115.804H146.216V120.096C146.216 120.398 146.313 120.638 146.509 120.813C146.714 120.989 146.978 121.077 147.3 121.077C147.593 121.077 147.856 121.043 148.091 120.975C148.335 120.896 148.53 120.813 148.677 120.726V121.78C148.481 121.937 148.252 122.049 147.988 122.117C147.725 122.186 147.407 122.22 147.036 122.22ZM116.245 140V129.453H117.446V140H116.245ZM123.247 140.22C122.69 140.22 122.178 140.122 121.709 139.927C121.25 139.722 120.845 139.443 120.493 139.092C120.151 138.73 119.888 138.32 119.702 137.861C119.517 137.393 119.424 136.899 119.424 136.382C119.424 135.864 119.517 135.376 119.702 134.917C119.888 134.448 120.151 134.038 120.493 133.687C120.845 133.325 121.25 133.042 121.709 132.837C122.178 132.632 122.69 132.529 123.247 132.529C123.804 132.529 124.312 132.632 124.771 132.837C125.239 133.042 125.645 133.325 125.986 133.687C126.338 134.038 126.606 134.448 126.792 134.917C126.978 135.376 127.07 135.864 127.07 136.382C127.07 136.899 126.978 137.393 126.792 137.861C126.606 138.32 126.338 138.73 125.986 139.092C125.645 139.443 125.239 139.722 124.771 139.927C124.312 140.122 123.804 140.22 123.247 140.22ZM123.247 139.048C123.774 139.048 124.229 138.926 124.609 138.682C125 138.428 125.298 138.101 125.503 137.7C125.718 137.29 125.825 136.851 125.825 136.382C125.825 135.903 125.718 135.464 125.503 135.063C125.298 134.653 125 134.326 124.609 134.082C124.229 133.828 123.774 133.701 123.247 133.701C122.729 133.701 122.275 133.828 121.885 134.082C121.494 134.326 121.191 134.653 120.977 135.063C120.771 135.464 120.669 135.903 120.669 136.382C120.669 136.851 120.771 137.29 120.977 137.7C121.191 138.101 121.494 138.428 121.885 138.682C122.275 138.926 122.729 139.048 123.247 139.048ZM130.586 140L128.022 132.676H129.458L131.084 137.817L133.003 132.676H133.677L135.596 137.817L137.222 132.676H138.657L136.094 140H135.347L133.34 134.829L131.333 140H130.586Z" fill="#403F3C"/>
<defs>
<filter id="filter0_d_182_4" x="79.6" y="83.6" width="109.3" height="109.3" filterUnits="userSpaceOnUse" color-interpolation-filters="sRGB">
<feFlood flood-opacity="0" result="BackgroundImageFix"/>
<feColorMatrix in="SourceAlpha" type="matrix" values="0 0 0 0 0 0 0 0 0 0 0 0 0 0 0 0 0 0 127 0" result="hardAlpha"/>
<feMorphology radius="2" operator="erode" in="SourceAlpha" result="effect1_dropShadow_182_4"/>
<feOffset dy="4"/>
<feGaussianBlur stdDeviation="5.95"/>
<feComposite in2="hardAlpha" operator="out"/>
<feColorMatrix type="matrix" values="0 0 0 0 0.301667 0 0 0 0 0.11765 0 0 0 0 0.11765 0 0 0 0.25 0"/>
<feBlend mode="normal" in2="BackgroundImageFix" result="effect1_dropShadow_182_4"/>
<feBlend mode="normal" in="SourceGraphic" in2="effect1_dropShadow_182_4" result="shape"/>
</filter>
</defs>
</svg>
