<svg width="189" height="185" viewBox="0 0 189 185" fill="none" xmlns="http://www.w3.org/2000/svg">
<g filter="url(#filter0_d_182_2)">
<path d="M179 95.5C179 83.7467 176.685 72.1085 172.187 61.2498C167.689 50.3912 161.097 40.5248 152.786 32.2139C144.475 23.9031 134.609 17.3106 123.75 12.8128C112.892 8.31499 101.253 6 89.5 6L89.5 95.5H179Z" fill="white"/>
</g>
<path d="M116.245 51V43.6758H117.446V51H116.245ZM117.446 46.5762V45.1406C117.729 44.6523 118.071 44.2617 118.472 43.9688C118.872 43.6758 119.282 43.5293 119.702 43.5293C119.985 43.5293 120.239 43.5781 120.464 43.6758V45.0674C120.317 44.9795 120.166 44.9111 120.01 44.8623C119.854 44.8135 119.692 44.7891 119.526 44.7891C119.028 44.7891 118.623 44.9648 118.311 45.3164C118.008 45.668 117.72 46.0879 117.446 46.5762ZM123.174 42.1523C122.891 42.1523 122.651 42.0498 122.456 41.8447C122.271 41.6396 122.178 41.4102 122.178 41.1562C122.178 40.8926 122.271 40.6631 122.456 40.4678C122.651 40.2627 122.891 40.1602 123.174 40.1602C123.359 40.1602 123.525 40.209 123.672 40.3066C123.828 40.3945 123.95 40.5166 124.038 40.6729C124.126 40.8193 124.17 40.9805 124.17 41.1562C124.17 41.3223 124.126 41.4834 124.038 41.6396C123.95 41.7959 123.828 41.9229 123.672 42.0205C123.525 42.1084 123.359 42.1523 123.174 42.1523ZM122.72 51V43.6758H123.921V51H122.72ZM121.562 44.8037V43.6758H123.921V44.8037H121.562ZM129.282 54.7354C128.833 54.7354 128.447 54.6816 128.125 54.5742C127.812 54.4766 127.544 54.3496 127.319 54.1934C127.095 54.0469 126.89 53.9053 126.704 53.7686V52.4795C126.851 52.5869 127.041 52.7236 127.275 52.8896C127.52 53.0654 127.808 53.2217 128.14 53.3584C128.481 53.4951 128.862 53.5635 129.282 53.5635C129.761 53.5635 130.2 53.4756 130.601 53.2998C131.001 53.124 131.323 52.8652 131.567 52.5234C131.812 52.1816 131.934 51.7715 131.934 51.293V49.7549C131.68 50.1455 131.333 50.4873 130.894 50.7803C130.464 51.0732 129.971 51.2197 129.414 51.2197C128.789 51.2197 128.218 51.0635 127.7 50.751C127.183 50.4287 126.768 49.9844 126.455 49.418C126.152 48.8516 126.001 48.1973 126.001 47.4551C126.001 46.6445 126.152 45.9463 126.455 45.3604C126.768 44.7744 127.192 44.3252 127.729 44.0127C128.267 43.6904 128.867 43.5293 129.531 43.5293C129.951 43.5293 130.376 43.6318 130.806 43.8369C131.245 44.0322 131.621 44.3057 131.934 44.6572V43.6758H133.135V50.8535C133.135 51.7227 132.959 52.4453 132.607 53.0215C132.256 53.5977 131.787 54.0273 131.201 54.3105C130.615 54.5938 129.976 54.7354 129.282 54.7354ZM129.604 50.0332C130.054 50.0332 130.449 49.916 130.791 49.6816C131.143 49.4473 131.416 49.125 131.611 48.7148C131.816 48.3047 131.919 47.8408 131.919 47.3232V45.917C131.616 45.5361 131.289 45.2432 130.938 45.0381C130.596 44.8232 130.2 44.7158 129.751 44.7158C129.224 44.7158 128.774 44.8477 128.403 45.1113C128.032 45.3652 127.744 45.7021 127.539 46.1221C127.344 46.5322 127.246 46.9766 127.246 47.4551C127.246 47.9238 127.344 48.3535 127.539 48.7441C127.734 49.1348 128.008 49.4473 128.359 49.6816C128.721 49.916 129.136 50.0332 129.604 50.0332ZM140.723 51L140.708 46.6494C140.708 46.0146 140.566 45.5312 140.283 45.1992C140.01 44.8672 139.585 44.7012 139.009 44.7012C138.618 44.7012 138.228 44.8477 137.837 45.1406C137.456 45.4238 137.119 45.7559 136.826 46.1367V44.833C136.982 44.6377 137.183 44.4424 137.427 44.2471C137.671 44.042 137.944 43.8711 138.247 43.7344C138.56 43.5977 138.882 43.5293 139.214 43.5293C139.712 43.5293 140.166 43.6416 140.576 43.8662C140.986 44.0811 141.313 44.4131 141.558 44.8623C141.802 45.3018 141.924 45.8584 141.924 46.5322V51H140.723ZM135.625 51V40.4531H136.826V51H135.625ZM147.036 51.2197C146.626 51.2197 146.27 51.1367 145.967 50.9707C145.664 50.7949 145.43 50.5508 145.264 50.2383C145.098 49.9258 145.015 49.5645 145.015 49.1543V44.8037H143.608V44.4521C144.087 44.2373 144.487 43.8857 144.81 43.3975C145.132 42.8994 145.415 42.2891 145.659 41.5664H146.216V43.6758H148.574V44.8037H146.216V49.0957C146.216 49.3984 146.313 49.6377 146.509 49.8135C146.714 49.9893 146.978 50.0771 147.3 50.0771C147.593 50.0771 147.856 50.043 148.091 49.9746C148.335 49.8965 148.53 49.8135 148.677 49.7256V50.7803C148.481 50.9365 148.252 51.0488 147.988 51.1172C147.725 51.1855 147.407 51.2197 147.036 51.2197ZM119.131 69.1465C118.545 69.1465 118.018 69.0195 117.549 68.7656C117.08 68.5117 116.709 68.1504 116.436 67.6816C116.162 67.2129 116.025 66.6562 116.025 66.0117V61.6758H117.271V66.0117C117.271 66.6465 117.456 67.1348 117.827 67.4766C118.208 67.8086 118.643 67.9746 119.131 67.9746C119.619 67.9746 120.049 67.8086 120.42 67.4766C120.801 67.1348 120.991 66.6465 120.991 66.0117V61.6758H122.236V66.0117C122.236 66.6562 122.1 67.2129 121.826 67.6816C121.553 68.1504 121.182 68.5117 120.713 68.7656C120.244 69.0195 119.717 69.1465 119.131 69.1465ZM124.507 72.5156V61.6758H125.708V62.9209C125.962 62.5303 126.304 62.2031 126.733 61.9395C127.173 61.666 127.671 61.5293 128.228 61.5293C128.862 61.5293 129.434 61.6855 129.941 61.998C130.459 62.3008 130.869 62.7305 131.172 63.2871C131.484 63.834 131.641 64.4785 131.641 65.2207C131.641 66.0215 131.484 66.7246 131.172 67.3301C130.869 67.9258 130.449 68.3896 129.912 68.7217C129.385 69.0537 128.784 69.2197 128.11 69.2197C127.69 69.2197 127.261 69.1074 126.821 68.8828C126.392 68.6582 126.021 68.3701 125.708 68.0186V72.5156H124.507ZM127.891 68.0479C128.418 68.0479 128.867 67.9111 129.238 67.6377C129.609 67.3643 129.893 67.0127 130.088 66.583C130.293 66.1436 130.396 65.6895 130.396 65.2207C130.396 64.7422 130.298 64.3174 130.103 63.9463C129.907 63.5654 129.634 63.2627 129.282 63.0381C128.931 62.8135 128.516 62.7012 128.037 62.7012C127.598 62.7012 127.197 62.8135 126.836 63.0381C126.484 63.2627 126.206 63.5752 126.001 63.9756C125.806 64.3662 125.708 64.8252 125.708 65.3525L125.723 66.7588C126.035 67.1396 126.362 67.4521 126.704 67.6963C127.046 67.9307 127.441 68.0479 127.891 68.0479Z" fill="#403F3C"/>
<defs>
<filter id="filter0_d_182_2" x="79.6" y="0.1" width="109.3" height="109.3" filterUnits="userSpaceOnUse" color-interpolation-filters="sRGB">
<feFlood flood-opacity="0" result="BackgroundImageFix"/>
<feColorMatrix in="SourceAlpha" type="matrix" values="0 0 0 0 0 0 0 0 0 0 0 0 0 0 0 0 0 0 127 0" result="hardAlpha"/>
<feMorphology radius="2" operator="erode" in="SourceAlpha" result="effect1_dropShadow_182_2"/>
<feOffset dy="4"/>
<feGaussianBlur stdDeviation="5.95"/>
<feComposite in2="hardAlpha" operator="out"/>
<feColorMatrix type="matrix" values="0 0 0 0 0.301667 0 0 0 0 0.11765 0 0 0 0 0.11765 0 0 0 0.25 0"/>
<feBlend mode="normal" in2="BackgroundImageFix" result="effect1_dropShadow_182_2"/>
<feBlend mode="normal" in="SourceGraphic" in2="effect1_dropShadow_182_2" result="shape"/>
</filter>
</defs>
</svg>
