<svg width="278" height="280" viewBox="0 0 278 280" fill="none" xmlns="http://www.w3.org/2000/svg">
<path d="M38.3414 162.209C56.8546 152.548 91.1509 144.418 124.235 142.795C140.757 141.984 156.891 142.801 170.531 145.823C184.204 148.852 195.167 154.052 201.605 161.835C218.233 181.939 227.273 204.397 214.358 226.112C205.965 240.226 194.093 246.655 180.051 249.577C168.067 252.07 154.616 251.992 140.431 251.909C137.859 251.894 135.263 251.879 132.648 251.879C127.948 251.879 122.567 251.992 116.732 252.115C100.274 252.461 80.2041 252.884 61.6174 251.056C49.0445 249.82 37.2807 247.562 27.8827 243.609C18.4849 239.657 11.6288 234.088 8.54138 226.325C2.37165 210.81 2.55367 198.712 7.729 188.618C12.946 178.443 23.3767 170.017 38.3414 162.209Z" fill="white" stroke="black" stroke-width="3" stroke-miterlimit="5.75877"/>
<path d="M255 121.609C255 147.269 243.531 165.402 225.128 177.188C206.646 189.026 181.09 194.5 153 194.5C128.462 194.5 103.26 188.546 84.2432 176.436C65.2712 164.354 52.5 146.191 52.5 121.609C52.5 102.525 64.4202 85.0535 82.7189 72.2807C100.999 59.5206 125.449 51.6088 150 51.6088C174.562 51.6088 200.909 59.5272 221.087 72.3176C241.313 85.1388 255 102.616 255 121.609Z" fill="white" stroke="black" stroke-width="3"/>
<path d="M151.808 149C152.467 149 153.007 149.535 152.93 150.189C152.699 152.137 151.906 153.959 150.657 155.364C149.157 157.052 147.122 158 145 158C142.878 158 140.843 157.052 139.343 155.364C138.094 153.959 137.301 152.137 137.07 150.189C136.993 149.535 137.533 149 138.192 149C138.85 149 139.373 149.537 139.483 150.186C139.693 151.421 140.227 152.567 141.028 153.468C142.082 154.653 143.51 155.319 145 155.319C146.49 155.319 147.918 154.653 148.972 153.468C149.773 152.567 150.307 151.421 150.517 150.186C150.627 149.537 151.15 149 151.808 149Z" fill="black"/>
<path d="M165.808 149C166.467 149 167.007 149.535 166.93 150.189C166.699 152.137 165.906 153.959 164.657 155.364C163.157 157.052 161.122 158 159 158C156.878 158 154.843 157.052 153.343 155.364C152.094 153.959 151.301 152.137 151.07 150.189C150.993 149.535 151.533 149 152.192 149C152.85 149 153.373 149.537 153.483 150.186C153.693 151.421 154.227 152.567 155.028 153.468C156.082 154.653 157.51 155.319 159 155.319C160.49 155.319 161.918 154.653 162.972 153.468C163.773 152.567 164.307 151.421 164.517 150.186C164.627 149.537 165.15 149 165.808 149Z" fill="black"/>
<path d="M126 121.5C126 127.851 120.851 136 114.5 136C108.149 136 103 127.851 103 121.5C103 115.149 108.149 105.5 114.5 105.5C120.851 105.5 126 115.149 126 121.5Z" fill="black"/>
<path d="M201 122C201 128.351 195.851 136.5 189.5 136.5C183.149 136.5 178 128.351 178 122C178 115.649 183.149 106 189.5 106C195.851 106 201 115.649 201 122Z" fill="black"/>
<path d="M152.001 221.601C150.024 218.856 147.866 216.927 145.305 215.875C142.754 214.828 139.641 214.586 135.631 215.503C127.51 217.361 116.067 223.885 99.1289 237.221C90.2245 244.231 79.4943 245.524 68.6911 243.946C57.9077 242.37 46.8985 237.916 37.2218 233.236C32.3749 230.891 27.8374 228.477 23.8139 226.323C23.5321 226.173 23.2531 226.023 22.9767 225.875C19.2898 223.9 16.0881 222.186 13.4748 220.958C12.0718 220.299 10.8778 219.799 9.89817 219.48C8.8839 219.148 8.24611 219.06 7.89841 219.089C7.88752 219.09 7.87735 219.091 7.86786 219.092C7.84785 219.281 7.8571 219.704 8.0761 220.493C13.9592 241.664 33.004 253.882 57.0603 258.733C81.0973 263.58 109.786 260.971 134.176 252.779C143.366 249.693 149.739 244.422 152.835 238.701C155.906 233.027 155.796 226.87 152.001 221.601Z" fill="white" stroke="black" stroke-width="3"/>
<path d="M63.3605 19.8117C64.8311 18.95 66.848 18.677 69.4345 19.0471C72.012 19.4159 75.0059 20.4036 78.2801 21.8756C84.8257 24.8185 92.2365 29.579 99.2465 34.6624C106.243 39.7363 112.782 45.0886 117.575 49.1765C119.971 51.2194 121.928 52.9441 123.285 54.1571C123.503 54.3524 123.706 54.5344 123.893 54.7024L64.2091 89.6743C64.1539 89.4294 64.0943 89.1634 64.0307 88.8773C63.6357 87.1006 63.0877 84.5505 62.4765 81.4621C61.2534 75.2822 59.7804 66.9616 58.7742 58.3774C57.7661 49.7771 57.2357 40.985 57.868 33.8362C58.1844 30.2603 58.7862 27.1657 59.7244 24.7368C60.6658 22.2995 61.8899 20.6734 63.3605 19.8117Z" fill="white" stroke="black" stroke-width="3"/>
<path d="M244.051 21.8117C242.58 20.95 240.563 20.677 237.977 21.0471C235.399 21.4159 232.406 22.4036 229.131 23.8756C222.586 26.8185 215.175 31.579 208.165 36.6624C201.168 41.7363 194.629 47.0886 189.836 51.1765C187.44 53.2194 185.484 54.9441 184.127 56.1571C183.908 56.3524 183.705 56.5344 183.519 56.7024L243.202 91.6743C243.257 91.4294 243.317 91.1634 243.381 90.8773C243.776 89.1006 244.324 86.5505 244.935 83.4621C246.158 77.2822 247.631 68.9616 248.637 60.3774C249.645 51.7771 250.176 42.985 249.543 35.8362C249.227 32.2603 248.625 29.1657 247.687 26.7368C246.746 24.2995 245.521 22.6734 244.051 21.8117Z" fill="white" stroke="black" stroke-width="3"/>
<path d="M65.0494 86.471L120.5 54L125.5 56L65 91L65.0494 86.471Z" fill="white"/>
<path d="M242.362 88.471L186.911 56L181.911 58L242.411 93L242.362 88.471Z" fill="white"/>
<path d="M199.697 92.7913L202.738 102.789C202.738 102.789 218.591 59.7909 209.952 59.984C190.884 60.4102 236.416 88.9734 236.416 88.9734L228.933 88.5722C228.933 88.5722 185.508 60.6761 208.654 56.0638C234.085 50.9965 199.697 92.7913 199.697 92.7913Z" fill="#FF6699"/>
<path d="M143 117.902C143 129.771 131.359 145 117 145C102.641 145 91 129.771 91 117.902C91 106.032 102.641 88 117 88C131.359 88 143 106.032 143 117.902Z" fill="black"/>
<path d="M212 118.902C212 130.771 200.359 146 186 146C171.641 146 160 130.771 160 118.902C160 107.032 171.641 89 186 89C200.359 89 212 107.032 212 118.902Z" fill="black"/>
<path d="M143 105.262C143 111.718 136.732 120 129 120C121.268 120 115 111.718 115 105.262C115 98.8069 121.268 89 129 89C136.732 89 143 98.8069 143 105.262Z" fill="white"/>
<path d="M212 106.262C212 112.718 205.732 121 198 121C190.268 121 184 112.718 184 106.262C184 99.8069 190.268 90 198 90C205.732 90 212 99.8069 212 106.262Z" fill="white"/>
<path d="M91 133C67.5685 126.752 54.4315 123.248 31 117" stroke="black" stroke-width="2"/>
<path d="M277 152C253.569 145.752 240.431 142.248 217 136" stroke="black" stroke-width="2"/>
<path d="M91 137C67.5685 143.248 54.4315 146.752 31 153" stroke="black" stroke-width="2"/>
<path d="M217 131C240.431 124.752 253.569 121.248 277 115" stroke="black" stroke-width="2"/>
</svg>
