<svg width="418" height="418" viewBox="0 0 418 418" fill="none" xmlns="http://www.w3.org/2000/svg">
<circle cx="209" cy="209" r="209" fill="#F7BACE"/>
<mask id="mask0_2_439" style="mask-type:alpha" maskUnits="userSpaceOnUse" x="27" y="50" width="368" height="368">
<circle cx="211" cy="234" r="184" fill="#C50505"/>
<circle cx="211" cy="234" r="184" fill="#C50505"/>
</mask>
<g mask="url(#mask0_2_439)">
<path d="M157.61 347.683C157.661 347.618 157.709 347.557 157.753 347.5H259.458C259.541 347.59 259.635 347.692 259.739 347.806C260.21 348.321 260.898 349.08 261.764 350.049C263.496 351.989 265.939 354.775 268.78 358.152C274.465 364.911 281.726 374.02 288.062 383.458C294.421 392.931 299.752 402.593 301.707 410.482C302.684 414.424 302.775 417.755 301.886 420.351C301.025 422.865 299.188 424.86 295.882 426.095C288.717 428.773 275.875 431.003 260.159 432.601C244.492 434.195 226.113 435.148 207.963 435.326C189.81 435.504 171.918 434.906 157.219 433.403C149.869 432.652 143.343 431.677 137.995 430.468C132.612 429.251 128.553 427.824 126.042 426.233C121.459 423.328 120.51 417.45 122.441 409.263C124.345 401.188 128.913 391.584 134.233 382.298C139.539 373.036 145.531 364.193 150.202 357.658C152.537 354.392 154.538 351.707 155.955 349.84C156.664 348.907 157.226 348.178 157.61 347.683Z" fill="white" stroke="black" stroke-width="3"/>
<path d="M316.5 265.767C316.5 288.882 311.026 312.259 294.645 329.856C278.284 347.432 250.796 359.5 206.207 359.5C161.656 359.5 135.079 346.351 119.604 328.246C104.089 310.096 99.5 286.699 99.5 265.767C99.5 248.995 111.342 227.931 130.802 210.977C150.206 194.072 176.919 181.5 206.207 181.5C235.493 181.5 263.112 194.322 283.425 211.37C293.576 219.889 301.865 229.433 307.607 238.898C313.359 248.381 316.5 257.692 316.5 265.767Z" fill="white" stroke="black" stroke-width="3"/>
<path d="M206.808 291C207.467 291 208.007 291.535 207.93 292.189C207.699 294.137 206.906 295.959 205.657 297.364C204.157 299.052 202.122 300 200 300C197.878 300 195.843 299.052 194.343 297.364C193.094 295.959 192.301 294.137 192.07 292.189C191.993 291.535 192.533 291 193.192 291C193.85 291 194.373 291.537 194.483 292.186C194.693 293.421 195.227 294.567 196.028 295.468C197.082 296.653 198.51 297.319 200 297.319C201.49 297.319 202.918 296.653 203.972 295.468C204.773 294.567 205.307 293.421 205.517 292.186C205.627 291.537 206.15 291 206.808 291Z" fill="black"/>
<path d="M220.808 291C221.467 291 222.007 291.535 221.93 292.189C221.699 294.137 220.906 295.959 219.657 297.364C218.157 299.052 216.122 300 214 300C211.878 300 209.843 299.052 208.343 297.364C207.094 295.959 206.301 294.137 206.07 292.189C205.993 291.535 206.533 291 207.192 291C207.85 291 208.373 291.537 208.483 292.186C208.693 293.421 209.227 294.567 210.028 295.468C211.082 296.653 212.51 297.319 214 297.319C215.49 297.319 216.918 296.653 217.972 295.468C218.773 294.567 219.307 293.421 219.517 292.186C219.627 291.537 220.15 291 220.808 291Z" fill="black"/>
<path d="M105.751 153.501C107.496 152.271 109.954 151.741 113.116 151.926C116.27 152.111 119.973 153 124.044 154.436C132.184 157.305 141.53 162.261 150.416 167.634C159.288 172.999 167.638 178.742 173.775 183.147C176.842 185.348 179.354 187.214 181.097 188.528C181.509 188.838 181.879 189.118 182.202 189.365L113.762 237.566C113.639 237.178 113.5 236.736 113.346 236.243C112.696 234.159 111.786 231.166 110.746 227.536C108.666 220.274 106.073 210.477 104.011 200.316C101.945 190.14 100.428 179.67 100.468 171.04C100.488 166.723 100.899 162.937 101.787 159.905C102.678 156.865 104.005 154.73 105.751 153.501Z" fill="white" stroke="black" stroke-width="3"/>
<path d="M304.133 146.485C302.291 145.406 299.798 145.082 296.662 145.531C293.535 145.978 289.919 147.174 285.982 148.944C278.11 152.483 269.21 158.201 260.804 164.297C252.41 170.384 244.568 176.803 238.82 181.705C235.948 184.155 233.601 186.223 231.973 187.678C231.588 188.023 231.244 188.332 230.942 188.605L303.166 230.925C303.256 230.529 303.358 230.077 303.47 229.572C303.944 227.441 304.601 224.383 305.334 220.68C306.801 213.269 308.568 203.29 309.775 192.992C310.984 182.679 311.622 172.119 310.861 163.522C310.481 159.222 309.756 155.483 308.618 152.537C307.477 149.582 305.976 147.564 304.133 146.485Z" fill="white" stroke="black" stroke-width="3"/>
<path d="M114.308 227L184 186.5L198.069 198.149L111 244L114.308 227Z" fill="white"/>
<path d="M299.5 227L247.5 190L224.545 186.548L295.5 238.5L299.5 227Z" fill="white"/>
<path d="M255.025 221.883L258.67 233.865C258.67 233.865 277.667 182.336 267.314 182.568C244.464 183.079 299.028 217.308 299.028 217.308L290.061 216.827C290.061 216.827 238.021 183.397 265.759 177.87C296.235 171.797 255.025 221.883 255.025 221.883Z" fill="#FF6699"/>
<path d="M311 243.767C311 257.03 308.31 270.164 303.083 282.418C297.857 294.672 290.196 305.806 280.539 315.185C270.882 324.563 259.417 332.003 246.799 337.079C234.181 342.154 220.657 344.767 207 344.767C193.343 344.767 179.819 342.154 167.201 337.079C154.583 332.003 143.118 324.563 133.461 315.185C123.804 305.806 116.143 294.672 110.917 282.418C105.69 270.164 103 257.03 103 243.767H114.576C114.576 255.554 116.966 267.226 121.611 278.116C126.256 289.006 133.064 298.901 141.646 307.235C150.229 315.57 160.417 322.182 171.631 326.693C182.844 331.203 194.863 333.525 207 333.525C219.137 333.525 231.156 331.203 242.369 326.693C253.583 322.182 263.771 315.57 272.354 307.235C280.936 298.901 287.744 289.006 292.389 278.116C297.034 267.226 299.424 255.554 299.424 243.767H311Z" fill="#4DCBFF"/>
<circle cx="303" cy="234" r="14" fill="#817F7F"/>
<path d="M140.902 266.571C112.823 259.083 97.0795 254.885 68.9999 247.397" stroke="black" stroke-width="2"/>
<path d="M363.799 289.34C335.719 281.852 319.976 277.654 291.897 270.166" stroke="black" stroke-width="2"/>
<path d="M140.902 271.364C112.823 278.852 97.0795 283.05 68.9999 290.538" stroke="black" stroke-width="2"/>
<path d="M291.897 264.174C319.976 256.686 335.719 252.488 363.799 245" stroke="black" stroke-width="2"/>
<mask id="path-18-inside-1_2_439" fill="white">
<path d="M163.528 422.807C163.506 423.912 162.594 424.789 161.489 424.768L114.981 423.855C113.877 423.833 112.999 422.92 113.021 421.816L114.978 322.094C115.252 308.146 126.78 297.062 140.728 297.336C154.675 297.61 165.759 309.138 165.485 323.085L163.528 422.807Z"/>
</mask>
<path d="M163.528 422.807C163.506 423.912 162.594 424.789 161.489 424.768L114.981 423.855C113.877 423.833 112.999 422.92 113.021 421.816L114.978 322.094C115.252 308.146 126.78 297.062 140.728 297.336C154.675 297.61 165.759 309.138 165.485 323.085L163.528 422.807Z" fill="white"/>
<path d="M163.489 424.807L112.982 423.816L163.489 424.807ZM111.979 322.035C112.285 306.431 125.183 294.03 140.786 294.336C156.39 294.643 168.791 307.54 168.485 323.144L162.486 323.026C162.727 310.736 152.959 300.576 140.669 300.335C128.378 300.094 118.219 309.862 117.978 322.153L111.979 322.035ZM140.786 294.336C156.39 294.643 168.791 307.54 168.485 323.144L166.586 419.867C166.532 422.628 164.25 424.822 161.489 424.768L160.489 424.748C160.489 424.748 160.507 423.853 160.529 422.749L162.486 323.026C162.727 310.736 152.959 300.576 140.669 300.335L140.786 294.336ZM114.981 423.855C112.22 423.801 110.026 421.519 110.08 418.758L111.979 322.035C112.285 306.431 125.183 294.03 140.786 294.336L140.669 300.335C128.378 300.094 118.219 309.862 117.978 322.153L116.02 421.875C115.999 422.979 115.981 423.874 115.981 423.874L114.981 423.855Z" fill="url(#paint0_linear_2_439)" mask="url(#path-18-inside-1_2_439)"/>
<path d="M192 268.902C192 280.771 180.359 296 166 296C151.641 296 140 280.771 140 268.902C140 257.032 151.641 239 166 239C180.359 239 192 257.032 192 268.902Z" fill="black"/>
<path d="M271 266.902C271 278.771 259.359 294 245 294C230.641 294 219 278.771 219 266.902C219 255.032 230.641 237 245 237C259.359 237 271 255.032 271 266.902Z" fill="black"/>
<path d="M192 256.262C192 262.718 185.732 271 178 271C170.268 271 164 262.718 164 256.262C164 249.807 170.268 240 178 240C185.732 240 192 249.807 192 256.262Z" fill="white"/>
<path d="M271 254.262C271 260.718 264.732 269 257 269C249.268 269 243 260.718 243 254.262C243 247.807 249.268 238 257 238C264.732 238 271 247.807 271 254.262Z" fill="white"/>
</g>
<circle cx="108" cy="234" r="14" fill="#817F7F"/>
<path d="M151 336.16C151 341.476 145.931 343.253 140.138 339.706C135.31 344.266 130 341.476 130 336.16C130 330.843 135.205 324 140.138 324C145.07 324 151 330.843 151 336.16Z" fill="#F7BACE"/>
<ellipse cx="4.03142" cy="4.64125" rx="4.03142" ry="4.64125" transform="matrix(0.940055 -0.341023 0.417252 0.908791 122 321.61)" fill="#F7BACE"/>
<ellipse cx="4.03142" cy="4.64125" rx="4.03142" ry="4.64125" transform="matrix(-0.940055 -0.341023 -0.417252 0.908791 159 321.61)" fill="#F7BACE"/>
<path d="M142 317C142 320.314 143.791 323 146 323C148.209 323 150 320.314 150 317C150 313.686 148.209 311 146 311C143.791 311 142 313.686 142 317Z" fill="#F7BACE"/>
<path d="M132 317C132 320.314 133.791 323 136 323C138.209 323 140 320.314 140 317C140 313.686 138.209 311 136 311C133.791 311 132 313.686 132 317Z" fill="#F7BACE"/>
<path d="M204 340.5C221 327 207.614 413.5 180 413.5C152.386 413.5 138.5 379.047 138.5 349.5C138.5 319.953 152.386 403 180 403C207.614 403 189.5 328.5 204 340.5Z" fill="#4DCBFF"/>
<circle cx="138.5" cy="329.5" r="27.5" fill="#FF7A2E"/>
<path d="M158.6 329C158.6 340.046 149.646 349 138.6 349C127.554 349 118.6 340.046 118.6 329C118.6 317.954 127.554 309 138.6 309C149.646 309 158.6 317.954 158.6 329Z" fill="#D81212"/>
<defs>
<linearGradient id="paint0_linear_2_439" x1="138.235" y1="424.311" x2="140.728" y2="297.336" gradientUnits="userSpaceOnUse">
<stop stop-color="white"/>
<stop offset="0.47"/>
</linearGradient>
</defs>
</svg>
