<svg width="418" height="418" viewBox="0 0 418 418" fill="none" xmlns="http://www.w3.org/2000/svg">
<circle cx="209" cy="209" r="209" fill="#F7BACE"/>
<mask id="mask0_104_113" style="mask-type:alpha" maskUnits="userSpaceOnUse" x="27" y="50" width="368" height="368">
<circle cx="211" cy="234" r="184" fill="#C50505"/>
<circle cx="211" cy="234" r="184" fill="#C50505"/>
</mask>
<g mask="url(#mask0_104_113)">
<path d="M157.61 347.683C157.661 347.618 157.709 347.557 157.753 347.5H259.458C259.541 347.59 259.635 347.692 259.739 347.806C260.21 348.321 260.898 349.08 261.764 350.049C263.496 351.989 265.939 354.775 268.78 358.152C274.465 364.911 281.726 374.02 288.062 383.458C294.421 392.931 299.752 402.593 301.707 410.482C302.684 414.424 302.775 417.755 301.886 420.351C301.025 422.865 299.188 424.86 295.882 426.095C288.717 428.773 275.875 431.003 260.159 432.601C244.492 434.195 226.113 435.148 207.963 435.326C189.81 435.504 171.918 434.906 157.219 433.403C149.869 432.652 143.343 431.677 137.995 430.468C132.612 429.251 128.553 427.824 126.042 426.233C121.459 423.328 120.51 417.45 122.441 409.263C124.345 401.188 128.913 391.584 134.233 382.298C139.539 373.036 145.531 364.193 150.202 357.658C152.537 354.392 154.538 351.707 155.955 349.84C156.664 348.907 157.226 348.178 157.61 347.683Z" fill="white" stroke="black" stroke-width="3"/>
<path d="M316.5 265.767C316.5 288.882 311.026 312.259 294.645 329.856C278.284 347.432 250.796 359.5 206.207 359.5C161.656 359.5 135.079 346.351 119.604 328.246C104.089 310.096 99.5 286.699 99.5 265.767C99.5 248.995 111.342 227.931 130.802 210.977C150.206 194.072 176.919 181.5 206.207 181.5C235.493 181.5 263.112 194.322 283.425 211.37C293.576 219.889 301.865 229.433 307.607 238.898C313.359 248.381 316.5 257.692 316.5 265.767Z" fill="white" stroke="black" stroke-width="3"/>
<path d="M222 223.164C222 228.786 215.732 236 208 236C200.268 236 194 228.786 194 223.164C194 217.541 200.268 209 208 209C215.732 209 222 217.541 222 223.164Z" fill="white"/>
<path d="M105.751 153.501C107.496 152.271 109.954 151.741 113.116 151.926C116.27 152.111 119.973 153 124.044 154.436C132.184 157.305 141.53 162.261 150.416 167.634C159.288 172.999 167.638 178.742 173.775 183.147C176.842 185.348 179.354 187.214 181.097 188.528C181.509 188.838 181.879 189.118 182.202 189.365L113.762 237.566C113.639 237.178 113.5 236.736 113.346 236.243C112.696 234.159 111.786 231.166 110.746 227.536C108.666 220.274 106.073 210.477 104.011 200.316C101.945 190.14 100.428 179.67 100.468 171.04C100.488 166.723 100.899 162.937 101.787 159.905C102.678 156.865 104.005 154.73 105.751 153.501Z" fill="white" stroke="black" stroke-width="3"/>
<path d="M304.133 146.485C302.291 145.406 299.798 145.082 296.662 145.531C293.535 145.978 289.919 147.174 285.982 148.944C278.11 152.483 269.21 158.201 260.804 164.297C252.41 170.384 244.568 176.803 238.82 181.705C235.948 184.155 233.601 186.223 231.973 187.678C231.588 188.023 231.244 188.332 230.942 188.605L303.166 230.925C303.256 230.529 303.358 230.077 303.47 229.572C303.944 227.441 304.601 224.383 305.334 220.68C306.801 213.269 308.568 203.29 309.775 192.992C310.984 182.679 311.622 172.119 310.861 163.522C310.481 159.222 309.756 155.483 308.618 152.537C307.477 149.582 305.976 147.564 304.133 146.485Z" fill="white" stroke="black" stroke-width="3"/>
<path d="M114.308 227L184 186.5L198.069 198.149L111 244L114.308 227Z" fill="white"/>
<path d="M299.5 227L247.5 190L224.545 186.548L295.5 238.5L299.5 227Z" fill="white"/>
<rect x="205" y="272" width="10" height="4" fill="black"/>
<path d="M119.902 272.174C91.8226 264.686 76.0795 260.488 48 253" stroke="black" stroke-width="2"/>
<path d="M368.902 310.174C340.823 302.686 325.08 298.488 297 291" stroke="black" stroke-width="2"/>
<path d="M118.902 291C90.8226 298.488 75.0795 302.686 47 310.174" stroke="black" stroke-width="2"/>
<path d="M297 263.174C325.08 255.686 340.823 251.488 368.902 244" stroke="black" stroke-width="2"/>
</g>
<rect x="101" y="274" width="24" height="4" fill="black"/>
<rect x="295" y="271" width="20" height="4" fill="black"/>
<path d="M188 274.902C188 286.771 176.359 302 162 302C147.641 302 136 286.771 136 274.902C136 263.032 147.641 245 162 245C176.359 245 188 263.032 188 274.902Z" fill="black"/>
<path d="M279 271.902C279 283.771 267.359 299 253 299C238.641 299 227 283.771 227 271.902C227 260.032 238.641 242 253 242C267.359 242 279 260.032 279 271.902Z" fill="black"/>
<path d="M188 262.262C188 268.718 181.732 277 174 277C166.268 277 160 268.718 160 262.262C160 255.807 166.268 246 174 246C181.732 246 188 255.807 188 262.262Z" fill="white"/>
<path d="M279 259.262C279 265.718 272.732 274 265 274C257.268 274 251 265.718 251 259.262C251 252.807 257.268 243 265 243C272.732 243 279 252.807 279 259.262Z" fill="white"/>
<path d="M202.5 273.5C202.5 293.82 185.157 310.5 163.5 310.5C141.843 310.5 124.5 293.82 124.5 273.5C124.5 253.18 141.843 236.5 163.5 236.5C185.157 236.5 202.5 253.18 202.5 273.5Z" stroke="black" stroke-width="5"/>
<path d="M292.5 273.5C292.5 293.848 275.352 310.5 254 310.5C232.648 310.5 215.5 293.848 215.5 273.5C215.5 253.152 232.648 236.5 254 236.5C275.352 236.5 292.5 253.152 292.5 273.5Z" stroke="black" stroke-width="5"/>
<path d="M211.808 311C212.467 311 213.007 311.535 212.93 312.189C212.699 314.137 211.906 315.959 210.657 317.364C209.157 319.052 207.122 320 205 320C202.878 320 200.843 319.052 199.343 317.364C198.094 315.959 197.301 314.137 197.07 312.189C196.993 311.535 197.533 311 198.192 311V311C198.85 311 199.373 311.537 199.483 312.186C199.693 313.421 200.227 314.567 201.028 315.468C202.082 316.653 203.51 317.319 205 317.319C206.49 317.319 207.918 316.653 208.972 315.468C209.773 314.567 210.307 313.421 210.517 312.186C210.627 311.537 211.15 311 211.808 311V311Z" fill="black"/>
<path d="M225.808 311C226.467 311 227.007 311.535 226.93 312.189C226.699 314.137 225.906 315.959 224.657 317.364C223.157 319.052 221.122 320 219 320C216.878 320 214.843 319.052 213.343 317.364C212.094 315.959 211.301 314.137 211.07 312.189C210.993 311.535 211.533 311 212.192 311V311C212.85 311 213.373 311.537 213.483 312.186C213.693 313.421 214.227 314.567 215.028 315.468C216.082 316.653 217.51 317.319 219 317.319C220.49 317.319 221.918 316.653 222.972 315.468C223.773 314.567 224.307 313.421 224.517 312.186C224.627 311.537 225.15 311 225.808 311V311Z" fill="black"/>
<path d="M153.5 353C153.5 353 187.136 361.568 209 361C230.44 360.443 263 351 263 351L272 363.5L208.75 365L146.5 363.5L153.5 353Z" fill="#FF6699"/>
<path d="M195.025 386.883L198.67 398.865C198.67 398.865 217.667 347.336 207.314 347.568C184.464 348.079 239.028 382.308 239.028 382.308L230.061 381.827C230.061 381.827 178.021 348.397 205.759 342.87C236.235 336.797 195.025 386.883 195.025 386.883Z" fill="#FF6699"/>
</svg>
