<svg width="299" height="282" viewBox="0 0 299 282" fill="none" xmlns="http://www.w3.org/2000/svg">
<circle cx="149.5" cy="145.5" r="119.5" fill="#F7BACE"/>
<mask id="mask0_39_149" style="mask-type:alpha" maskUnits="userSpaceOnUse" x="45" y="54" width="211" height="211">
<circle cx="150.644" cy="159.794" r="105.206" fill="#C50505"/>
<circle cx="150.644" cy="159.794" r="105.206" fill="#C50505"/>
</mask>
<g mask="url(#mask0_39_149)">
<path d="M119.682 226.417C120.022 225.969 120.303 225.604 120.513 225.333H178.068C178.334 225.624 178.715 226.044 179.19 226.576C180.176 227.681 181.569 229.269 183.189 231.194C186.432 235.049 190.567 240.238 194.172 245.608C197.801 251.013 200.794 256.46 201.884 260.856C202.428 263.051 202.454 264.817 202.002 266.136C201.578 267.374 200.68 268.381 198.952 269.027C194.94 270.526 187.671 271.796 178.686 272.709C169.751 273.618 159.262 274.163 148.901 274.264C138.537 274.366 128.332 274.024 119.959 273.168C115.771 272.74 112.067 272.186 109.043 271.502C105.984 270.811 103.751 270.014 102.411 269.165C100.168 267.743 99.5396 264.789 100.633 260.152C101.7 255.627 104.275 250.201 107.308 244.906C110.327 239.636 113.74 234.598 116.404 230.872C117.734 229.01 118.875 227.48 119.682 226.417Z" fill="white" stroke="black" stroke-width="3"/>
<path d="M210.323 177.958C210.323 191.084 207.214 204.266 197.999 214.164C188.804 224.042 173.285 230.909 147.903 230.909C122.56 230.909 107.567 223.434 98.874 213.264C90.1421 203.049 87.5335 189.847 87.5335 177.958C87.5335 168.63 94.154 156.748 105.211 147.115C116.212 137.53 131.341 130.419 147.903 130.419C164.465 130.419 180.115 137.673 191.641 147.347C197.399 152.179 202.089 157.583 205.331 162.928C208.584 168.29 210.323 173.497 210.323 177.958Z" fill="white" stroke="black" stroke-width="3"/>
<path d="M150.032 191C150.567 191 151.006 191.435 150.938 191.966C150.744 193.465 150.102 194.867 149.096 195.95C147.877 197.263 146.224 198 144.5 198C142.776 198 141.123 197.263 139.904 195.95C138.898 194.867 138.256 193.465 138.062 191.966C137.994 191.435 138.433 191 138.968 191C139.503 191 139.927 191.437 140.025 191.963C140.2 192.908 140.631 193.784 141.273 194.475C142.129 195.397 143.29 195.915 144.5 195.915C145.71 195.915 146.871 195.397 147.727 194.475C148.369 193.784 148.8 192.908 148.975 191.963C149.073 191.437 149.497 191 150.032 191Z" fill="black"/>
<path d="M161.032 191C161.567 191 162.006 191.435 161.938 191.966C161.744 193.465 161.102 194.867 160.096 195.95C158.877 197.263 157.224 198 155.5 198C153.776 198 152.123 197.263 150.904 195.95C149.898 194.867 149.256 193.465 149.062 191.966C148.994 191.435 149.433 191 149.968 191C150.503 191 150.927 191.437 151.025 191.963C151.2 192.908 151.631 193.784 152.273 194.475C153.129 195.397 154.29 195.915 155.5 195.915C156.71 195.915 157.871 195.397 158.727 194.475C159.369 193.784 159.8 192.908 159.975 191.963C160.073 191.437 160.497 191 161.032 191Z" fill="black"/>
<path d="M136 177.869C136 180.992 133.314 185 130 185C126.686 185 124 180.992 124 177.869C124 174.745 126.686 170 130 170C133.314 170 136 174.745 136 177.869Z" fill="black"/>
<path d="M174 177.869C174 180.992 171.314 185 168 185C164.686 185 162 180.992 162 177.869C162 174.745 164.686 170 168 170C171.314 170 174 174.745 174 177.869Z" fill="black"/>
<path d="M90.8349 114.292C91.6696 113.704 92.9098 113.407 94.639 113.508C96.3591 113.609 98.4135 114.097 100.711 114.908C105.304 116.527 110.604 119.334 115.671 122.398C120.724 125.454 125.484 128.727 128.985 131.24C130.693 132.466 132.099 133.509 133.089 134.254L95.3948 160.801C95.0264 159.618 94.5179 157.943 93.9389 155.922C92.7524 151.779 91.2743 146.195 90.0997 140.407C88.9218 134.604 88.0642 128.668 88.087 123.798C88.0984 121.362 88.3305 119.263 88.8151 117.61C89.3021 115.947 90.0002 114.88 90.8349 114.292Z" fill="white" stroke="black" stroke-width="3"/>
<path d="M203.57 110.31C202.689 109.794 201.428 109.601 199.714 109.846C198.008 110.09 196.001 110.748 193.779 111.747C189.338 113.744 184.291 116.984 179.497 120.46C174.716 123.927 170.246 127.586 166.967 130.382C165.367 131.747 164.054 132.904 163.129 133.729L202.907 157.037C203.176 155.827 203.543 154.116 203.951 152.053C204.788 147.826 205.794 142.138 206.482 136.272C207.171 130.391 207.531 124.404 207.101 119.554C206.887 117.127 206.48 115.055 205.859 113.447C205.235 111.832 204.451 110.826 203.57 110.31Z" fill="white" stroke="black" stroke-width="3"/>
<path d="M95.3579 155.792L130 133.5L139.5 132.5L93.4665 165.512L95.3579 155.792Z" fill="white"/>
<path d="M202.5 152.5L171.513 134.636L158.388 132.663L198.958 162.367L202.5 152.5Z" fill="white"/>
<path d="M174.101 155.725L176.185 162.576C176.185 162.576 187.047 133.113 181.127 133.246C168.062 133.538 199.26 153.109 199.26 153.109L194.133 152.834C194.133 152.834 164.378 133.72 180.238 130.56C197.663 127.087 174.101 155.725 174.101 155.725Z" fill="#FF6699"/>
<path d="M110.564 178.417C94.5086 174.136 85.5072 171.735 69.4521 167.454" stroke="black" stroke-width="2"/>
<path d="M238.009 191.436C221.954 187.154 212.953 184.754 196.898 180.473" stroke="black" stroke-width="2"/>
<path d="M110.564 181.158C94.5086 185.439 85.5072 187.84 69.4521 192.121" stroke="black" stroke-width="2"/>
<path d="M196.898 177.047C212.953 172.765 221.954 170.365 238.009 166.084" stroke="black" stroke-width="2"/>
<mask id="path-18-inside-1_39_149" fill="white">
<path d="M123.517 266.892C123.496 267.997 122.583 268.874 121.478 268.853L94.205 268.317C93.1006 268.296 92.2229 267.383 92.2446 266.279L93.3235 211.314C93.493 202.678 100.631 195.815 109.267 195.984C117.902 196.154 124.766 203.292 124.596 211.928L123.517 266.892Z"/>
</mask>
<path d="M123.517 266.892C123.496 267.997 122.583 268.874 121.478 268.853L94.205 268.317C93.1006 268.296 92.2229 267.383 92.2446 266.279L93.3235 211.314C93.493 202.678 100.631 195.815 109.267 195.984C117.902 196.154 124.766 203.292 124.596 211.928L123.517 266.892Z" fill="white"/>
<path d="M123.478 268.892L92.2054 268.278L123.478 268.892ZM90.3241 211.255C90.5261 200.963 99.0334 192.783 109.326 192.985L109.326 192.985C119.618 193.187 127.798 201.694 127.596 211.986L121.597 211.869C121.734 204.889 116.187 199.121 109.208 198.984C102.229 198.847 96.4599 204.393 96.3229 211.373L90.3241 211.255ZM109.326 192.985C119.618 193.187 127.798 201.694 127.596 211.986L126.576 263.952C126.521 266.713 124.239 268.907 121.478 268.853L120.479 268.833C120.479 268.833 120.496 267.938 120.518 266.834L121.597 211.869C121.734 204.889 116.187 199.121 109.208 198.984L109.326 192.985ZM94.205 268.317C91.4441 268.263 89.2499 265.981 89.3041 263.22L90.3241 211.255C90.5261 200.963 99.0334 192.783 109.326 192.985L109.208 198.984C102.229 198.847 96.4599 204.393 96.3229 211.373L95.244 266.337C95.2224 267.442 95.2048 268.337 95.2048 268.337L94.205 268.317Z" fill="url(#paint0_linear_39_149)" mask="url(#path-18-inside-1_39_149)"/>
<path d="M143 174.836C143 181.916 136.06 191 127.5 191C118.94 191 112 181.916 112 174.836C112 167.756 118.94 157 127.5 157C136.06 157 143 167.756 143 174.836Z" fill="black"/>
<path d="M185 173.836C185 180.916 178.06 190 169.5 190C160.94 190 154 180.916 154 173.836C154 166.756 160.94 156 169.5 156C178.06 156 185 166.756 185 173.836Z" fill="black"/>
<path d="M143 167.442C143 171.191 139.194 176 134.5 176C129.806 176 126 171.191 126 167.442C126 163.694 129.806 158 134.5 158C139.194 158 143 163.694 143 167.442Z" fill="white"/>
<path d="M185 166.442C185 170.191 181.194 175 176.5 175C171.806 175 168 170.191 168 166.442C168 162.694 171.806 157 176.5 157C181.194 157 185 162.694 185 166.442Z" fill="white"/>
</g>
<path d="M115.871 220.107C115.871 223.651 112.492 224.835 108.63 222.471C105.411 225.511 101.871 223.651 101.871 220.107C101.871 216.562 105.341 212 108.63 212C111.918 212 115.871 216.562 115.871 220.107Z" fill="#F7BACE"/>
<ellipse cx="2.60091" cy="2.99436" rx="2.60091" ry="2.99436" transform="matrix(0.940055 -0.341023 0.417252 0.908791 97 210.845)" fill="#F7BACE"/>
<ellipse cx="2.60091" cy="2.99436" rx="2.60091" ry="2.99436" transform="matrix(-0.940055 -0.341023 -0.417252 0.908791 120.871 210.845)" fill="#F7BACE"/>
<path d="M109.871 208C109.871 210.209 110.99 212 112.371 212C113.752 212 114.871 210.209 114.871 208C114.871 205.791 113.752 204 112.371 204C110.99 204 109.871 205.791 109.871 208Z" fill="#F7BACE"/>
<path d="M103.871 208C103.871 210.209 104.99 212 106.371 212C107.752 212 108.871 210.209 108.871 208C108.871 205.791 107.752 204 106.371 204C104.99 204 103.871 205.791 103.871 208Z" fill="#F7BACE"/>
<defs>
<linearGradient id="paint0_linear_39_149" x1="107.842" y1="268.585" x2="109.267" y2="195.984" gradientUnits="userSpaceOnUse">
<stop stop-color="white"/>
<stop offset="0.47"/>
</linearGradient>
</defs>
</svg>
