<svg width="418" height="443" viewBox="0 0 418 443" fill="none" xmlns="http://www.w3.org/2000/svg">
<circle cx="209" cy="220" r="209" fill="#9AC2E6"/>
<path d="M157.611 353.683C157.661 353.618 157.709 353.557 157.753 353.5H259.459C259.541 353.59 259.635 353.692 259.739 353.806C260.21 354.321 260.898 355.08 261.764 356.049C263.496 357.989 265.939 360.775 268.78 364.152C274.465 370.911 281.726 380.02 288.062 389.458C294.422 398.931 299.752 408.593 301.707 416.482C302.684 420.424 302.775 423.755 301.886 426.351C301.025 428.865 299.188 430.86 295.883 432.095C288.717 434.773 275.875 437.003 260.159 438.601C244.492 440.195 226.113 441.148 207.963 441.326C189.81 441.504 171.918 440.906 157.219 439.403C149.869 438.652 143.343 437.677 137.995 436.468C132.612 435.251 128.553 433.824 126.042 432.233C121.459 429.328 120.51 423.45 122.441 415.263C124.345 407.188 128.913 397.584 134.233 388.298C139.539 379.036 145.531 370.193 150.202 363.658C152.537 360.392 154.539 357.707 155.956 355.84C156.664 354.907 157.226 354.178 157.611 353.683Z" fill="white" stroke="black" stroke-width="3"/>
<path d="M316.5 271.767C316.5 294.882 311.026 318.259 294.645 335.856C278.284 353.432 250.796 365.5 206.207 365.5C161.656 365.5 135.079 352.351 119.604 334.246C104.089 316.096 99.5001 292.699 99.5001 271.767C99.5001 254.995 111.342 233.931 130.802 216.977C150.206 200.072 176.92 187.5 206.207 187.5C235.493 187.5 263.112 200.322 283.426 217.37C293.576 225.889 301.865 235.433 307.607 244.898C313.359 254.381 316.5 263.692 316.5 271.767Z" fill="white" stroke="black" stroke-width="3"/>
<path d="M206.809 297C207.467 297 208.007 297.535 207.93 298.189C207.699 300.137 206.906 301.959 205.657 303.364C204.157 305.052 202.122 306 200 306C197.878 306 195.844 305.052 194.343 303.364C193.094 301.959 192.301 300.137 192.07 298.189C191.993 297.535 192.534 297 193.192 297C193.85 297 194.373 297.537 194.483 298.186C194.693 299.421 195.227 300.567 196.028 301.468C197.082 302.653 198.51 303.319 200 303.319C201.49 303.319 202.918 302.653 203.972 301.468C204.773 300.567 205.307 299.421 205.517 298.186C205.627 297.537 206.15 297 206.809 297Z" fill="black"/>
<path d="M220.809 297C221.467 297 222.007 297.535 221.93 298.189C221.699 300.137 220.906 301.959 219.657 303.364C218.157 305.052 216.122 306 214 306C211.878 306 209.844 305.052 208.343 303.364C207.094 301.959 206.301 300.137 206.07 298.189C205.993 297.535 206.534 297 207.192 297C207.85 297 208.373 297.537 208.483 298.186C208.693 299.421 209.227 300.567 210.028 301.468C211.082 302.653 212.51 303.319 214 303.319C215.49 303.319 216.918 302.653 217.972 301.468C218.773 300.567 219.307 299.421 219.517 298.186C219.627 297.537 220.15 297 220.809 297Z" fill="black"/>
<path d="M105.751 159.5C107.496 158.271 109.954 157.741 113.116 157.926C116.27 158.111 119.973 159 124.044 160.436C132.184 163.305 141.53 168.261 150.416 173.634C159.288 178.999 167.639 184.742 173.775 189.147C176.843 191.348 179.354 193.214 181.097 194.528C181.509 194.838 181.879 195.118 182.202 195.365L113.762 243.565C113.639 243.178 113.5 242.736 113.346 242.243C112.696 240.159 111.786 237.166 110.746 233.536C108.666 226.274 106.073 216.477 104.011 206.316C101.945 196.14 100.428 185.67 100.468 177.04C100.488 172.723 100.899 168.937 101.787 165.905C102.678 162.865 104.005 160.73 105.751 159.5Z" fill="white" stroke="black" stroke-width="3"/>
<path d="M304.134 152.485C302.291 151.406 299.798 151.082 296.662 151.531C293.535 151.978 289.919 153.174 285.982 154.944C278.11 158.483 269.21 164.201 260.804 170.297C252.41 176.384 244.568 182.803 238.82 187.705C235.948 190.155 233.601 192.223 231.974 193.678C231.588 194.023 231.244 194.332 230.942 194.605L303.167 236.925C303.257 236.529 303.358 236.077 303.47 235.572C303.944 233.441 304.601 230.383 305.334 226.68C306.801 219.269 308.568 209.29 309.775 198.992C310.984 188.679 311.622 178.119 310.861 169.522C310.481 165.222 309.756 161.483 308.618 158.537C307.477 155.582 305.976 153.564 304.134 152.485Z" fill="white" stroke="black" stroke-width="3"/>
<path d="M114.308 233L184 192.5L198.069 204.149L111 250L114.308 233Z" fill="white"/>
<path d="M299.5 233L247.5 196L224.545 192.548L295.5 244.5L299.5 233Z" fill="white"/>
<path d="M255.025 227.883L258.67 239.865C258.67 239.865 277.668 188.336 267.314 188.568C244.465 189.079 299.028 223.308 299.028 223.308L290.061 222.827C290.061 222.827 238.021 189.397 265.76 183.87C296.235 177.797 255.025 227.883 255.025 227.883Z" fill="#FF6699"/>
<path d="M311 249.767C311 263.03 308.31 276.164 303.084 288.418C297.857 300.672 290.197 311.806 280.539 321.185C270.882 330.563 259.417 338.003 246.799 343.079C234.181 348.154 220.658 350.767 207 350.767C193.343 350.767 179.819 348.154 167.201 343.079C154.583 338.003 143.118 330.563 133.461 321.185C123.804 311.806 116.143 300.672 110.917 288.418C105.69 276.164 103 263.03 103 249.767H114.576C114.576 261.554 116.967 273.226 121.611 284.116C126.256 295.006 133.064 304.901 141.646 313.235C150.229 321.57 160.417 328.182 171.631 332.693C182.844 337.203 194.863 339.525 207 339.525C219.137 339.525 231.156 337.203 242.369 332.693C253.583 328.182 263.772 321.57 272.354 313.235C280.936 304.901 287.744 295.006 292.389 284.116C297.034 273.226 299.424 261.554 299.424 249.767H311Z" fill="#4DCBFF"/>
<circle cx="303" cy="240" r="14" fill="#817F7F"/>
<path d="M140.902 272.571C112.823 265.083 97.0796 260.885 69 253.397" stroke="black" stroke-width="2"/>
<path d="M363.799 295.34C335.719 287.852 319.976 283.654 291.897 276.166" stroke="black" stroke-width="2"/>
<path d="M140.902 277.364C112.823 284.852 97.0796 289.05 69 296.538" stroke="black" stroke-width="2"/>
<path d="M291.897 270.174C319.976 262.686 335.719 258.488 363.799 251" stroke="black" stroke-width="2"/>
<mask id="path-17-inside-1_122_996" fill="white">
<path d="M159.546 434.967C159.525 436.072 158.612 436.949 157.508 436.928L111 436.015C109.895 435.993 109.018 435.08 109.039 433.976L110.997 334.254C111.27 320.306 122.799 309.222 136.746 309.496C150.693 309.769 161.778 321.298 161.504 335.245L159.546 434.967Z"/>
</mask>
<path d="M159.546 434.967C159.525 436.072 158.612 436.949 157.508 436.928L111 436.015C109.895 435.993 109.018 435.08 109.039 433.976L110.997 334.254C111.27 320.306 122.799 309.222 136.746 309.496C150.693 309.769 161.778 321.298 161.504 335.245L159.546 434.967Z" fill="white"/>
<path d="M159.507 436.967L109 435.976L159.507 436.967ZM107.997 334.195C108.304 318.591 121.201 306.19 136.805 306.496C152.409 306.803 164.81 319.7 164.503 335.304L158.504 335.186C158.746 322.895 148.978 312.736 136.687 312.495C124.396 312.254 114.237 322.022 113.996 334.312L107.997 334.195ZM136.805 306.496C152.409 306.803 164.81 319.7 164.503 335.304L162.605 432.027C162.551 434.788 160.268 436.982 157.508 436.928L156.508 436.908C156.508 436.908 156.525 436.013 156.547 434.908L158.504 335.186C158.746 322.895 148.978 312.736 136.687 312.495L136.805 306.496ZM111 436.015C108.239 435.961 106.045 433.679 106.099 430.918L107.997 334.195C108.304 318.591 121.201 306.19 136.805 306.496L136.687 312.495C124.396 312.254 114.237 322.022 113.996 334.312L112.039 434.035C112.017 435.139 111.999 436.034 111.999 436.034L111 436.015Z" fill="url(#paint0_linear_122_996)" mask="url(#path-17-inside-1_122_996)"/>
<path d="M192 274.902C192 286.771 180.36 302 166 302C151.641 302 140 286.771 140 274.902C140 263.032 151.641 245 166 245C180.36 245 192 263.032 192 274.902Z" fill="black"/>
<path d="M271 272.902C271 284.771 259.36 300 245 300C230.641 300 219 284.771 219 272.902C219 261.032 230.641 243 245 243C259.36 243 271 261.032 271 272.902Z" fill="black"/>
<path d="M192 262.262C192 268.718 185.732 277 178 277C170.268 277 164 268.718 164 262.262C164 255.807 170.268 246 178 246C185.732 246 192 255.807 192 262.262Z" fill="white"/>
<path d="M271 260.262C271 266.718 264.732 275 257 275C249.268 275 243 266.718 243 260.262C243 253.807 249.268 244 257 244C264.732 244 271 253.807 271 260.262Z" fill="white"/>
<circle cx="108" cy="245" r="14" fill="#817F7F"/>
<path d="M151 347.16C151 352.476 145.931 354.253 140.138 350.706C135.31 355.266 130 352.476 130 347.16C130 341.843 135.205 335 140.138 335C145.07 335 151 341.843 151 347.16Z" fill="#F7BACE"/>
<ellipse cx="4.03142" cy="4.64125" rx="4.03142" ry="4.64125" transform="matrix(0.940055 -0.341023 0.417252 0.908791 122 332.61)" fill="#F7BACE"/>
<ellipse cx="4.03142" cy="4.64125" rx="4.03142" ry="4.64125" transform="matrix(-0.940055 -0.341023 -0.417252 0.908791 159 332.61)" fill="#F7BACE"/>
<path d="M142 328C142 331.314 143.791 334 146 334C148.209 334 150 331.314 150 328C150 324.686 148.209 322 146 322C143.791 322 142 324.686 142 328Z" fill="#F7BACE"/>
<path d="M132 328C132 331.314 133.791 334 136 334C138.209 334 140 331.314 140 328C140 324.686 138.209 322 136 322C133.791 322 132 324.686 132 328Z" fill="#F7BACE"/>
<path d="M204 351.5C221 338 207.614 424.5 180 424.5C152.386 424.5 138.5 390.047 138.5 360.5C138.5 330.953 152.386 414 180 414C207.614 414 189.5 339.5 204 351.5Z" fill="#4DCBFF"/>
<circle cx="138.5" cy="340.5" r="27.5" fill="#FF7A2E"/>
<path d="M158.6 340C158.6 351.046 149.646 360 138.6 360C127.554 360 118.6 351.046 118.6 340C118.6 328.954 127.554 320 138.6 320C149.646 320 158.6 328.954 158.6 340Z" fill="#D81212"/>
<circle cx="75" cy="50" r="9.5" stroke="#FFFDF1" stroke-width="3"/>
<circle cx="197" cy="11" r="9.5" stroke="#FFFDF1" stroke-width="3"/>
<path d="M309.5 65C309.5 70.2467 305.247 74.5 300 74.5C294.753 74.5 290.5 70.2467 290.5 65C290.5 59.7533 294.753 55.5 300 55.5C305.247 55.5 309.5 59.7533 309.5 65Z" stroke="#FFFDF1" stroke-width="3"/>
<circle cx="388" cy="123" r="9.5" stroke="#FFFDF1" stroke-width="3"/>
<circle cx="236" cy="145" r="9.5" stroke="#FFFDF1" stroke-width="3"/>
<circle cx="75" cy="198" r="9.5" stroke="#FFFDF1" stroke-width="3"/>
<circle cx="33" cy="261" r="9.5" stroke="#FFFDF1" stroke-width="3"/>
<circle cx="69" cy="355" r="9.5" stroke="#FFFDF1" stroke-width="3"/>
<circle cx="328" cy="364" r="9.5" stroke="#FFFDF1" stroke-width="3"/>
<circle cx="350" cy="209" r="9.5" stroke="#FFFDF1" stroke-width="3"/>
<circle cx="136" cy="101" r="9.5" stroke="#FFFDF1" stroke-width="3"/>
<defs>
<linearGradient id="paint0_linear_122_996" x1="134.254" y1="436.471" x2="136.746" y2="309.496" gradientUnits="userSpaceOnUse">
<stop stop-color="white"/>
<stop offset="0.47"/>
</linearGradient>
</defs>
</svg>
