<svg width="277" height="297" viewBox="0 0 277 297" fill="none" xmlns="http://www.w3.org/2000/svg">
<path d="M222 121.609C222 147.733 218.369 170.779 205.806 187.293C193.314 203.714 171.723 214 135 214C102.358 214 81.2157 203.263 68.1834 186.529C55.0975 169.727 50 146.639 50 121.609C50 83.184 85.8663 51.6088 135 51.6088C184.182 51.6088 222 83.2239 222 121.609Z" fill="white" stroke="black" stroke-width="3"/>
<path d="M136.046 144.5C137.125 144.5 138.015 145.38 137.856 146.447C137.73 147.287 137.524 148.11 137.239 148.901C136.736 150.296 136 151.564 135.071 152.632C134.142 153.7 133.04 154.547 131.827 155.125C130.614 155.703 129.313 156 128 156C126.687 156 125.386 155.703 124.173 155.125C122.96 154.547 121.858 153.7 120.929 152.632C120 151.564 119.264 150.296 118.761 148.901C118.476 148.11 118.27 147.287 118.144 146.447C117.985 145.38 118.875 144.5 119.954 144.5V144.5C121.034 144.5 121.884 145.388 122.146 146.435C122.209 146.688 122.285 146.937 122.372 147.181C122.679 148.031 123.127 148.803 123.693 149.453C124.258 150.104 124.93 150.62 125.669 150.972C126.408 151.324 127.2 151.505 128 151.505C128.8 151.505 129.592 151.324 130.331 150.972C131.07 150.62 131.742 150.104 132.307 149.453C132.873 148.803 133.321 148.031 133.628 147.181C133.715 146.937 133.791 146.688 133.854 146.435C134.116 145.388 134.966 144.5 136.046 144.5V144.5Z" fill="black"/>
<path d="M152.046 144.5C153.125 144.5 154.015 145.38 153.856 146.447C153.73 147.287 153.524 148.11 153.239 148.901C152.736 150.296 152 151.564 151.071 152.632C150.142 153.7 149.04 154.547 147.827 155.125C146.614 155.703 145.313 156 144 156C142.687 156 141.386 155.703 140.173 155.125C138.96 154.547 137.858 153.7 136.929 152.632C136 151.564 135.264 150.296 134.761 148.901C134.476 148.11 134.27 147.287 134.144 146.447C133.985 145.38 134.875 144.5 135.954 144.5V144.5C137.034 144.5 137.884 145.388 138.146 146.435C138.209 146.688 138.285 146.937 138.372 147.181C138.679 148.031 139.127 148.803 139.693 149.453C140.258 150.104 140.93 150.62 141.669 150.972C142.408 151.324 143.2 151.505 144 151.505C144.8 151.505 145.592 151.324 146.331 150.972C147.07 150.62 147.742 150.104 148.307 149.453C148.873 148.803 149.321 148.031 149.628 147.181C149.715 146.937 149.791 146.688 149.854 146.435C150.116 145.388 150.966 144.5 152.046 144.5V144.5Z" fill="black"/>
<path d="M49.5569 26.1727C50.9875 25.2461 52.9902 24.883 55.5906 25.137C58.1821 25.39 61.2171 26.2427 64.554 27.5666C71.2248 30.2135 78.8413 34.6374 86.0718 39.4019C93.2888 44.1575 100.061 49.2117 105.032 53.0808C107.517 55.0144 109.549 56.6498 110.959 57.8008C111.186 57.9861 111.397 58.1589 111.591 58.3183L53.5326 95.9273C53.4664 95.6851 53.3949 95.422 53.3186 95.1391C52.8445 93.3819 52.1828 90.8589 51.434 87.8009C49.9354 81.682 48.0914 73.4356 46.7019 64.9051C45.3097 56.3586 44.3862 47.5991 44.6979 40.4291C44.8538 36.8426 45.3165 33.7242 46.145 31.2557C46.9763 28.7787 48.1264 27.0994 49.5569 26.1727Z" fill="white" stroke="black" stroke-width="3"/>
<path d="M227.864 29.4223C226.51 28.3879 224.541 27.8711 221.929 27.9233C219.326 27.9753 216.234 28.5909 212.805 29.653C205.949 31.7763 198.013 35.5983 190.436 39.7897C182.873 43.9733 175.731 48.489 170.475 51.9623C167.849 53.6981 165.697 55.1715 164.202 56.2101C163.961 56.3774 163.738 56.5333 163.532 56.6773L218.51 98.661C218.594 98.4246 218.686 98.1678 218.784 97.8916C219.392 96.1763 220.247 93.712 221.23 90.7211C223.197 84.7363 225.673 76.6571 227.717 68.2595C229.766 59.8461 231.364 51.1842 231.607 44.0116C231.729 40.4237 231.509 37.2789 230.873 34.7538C230.236 32.2199 229.219 30.4568 227.864 29.4223Z" fill="white" stroke="black" stroke-width="3"/>
<path d="M219.583 88.471L173 54L157 58L216.5 106L219.583 88.471Z" fill="white"/>
<path d="M184.697 92.7913L187.738 102.789C187.738 102.789 203.591 59.7909 194.952 59.984C175.884 60.4102 221.416 88.9734 221.416 88.9734L213.933 88.5722C213.933 88.5722 170.508 60.6761 193.654 56.0638C219.085 50.9965 184.697 92.7913 184.697 92.7913Z" fill="#FF6699"/>
<path d="M123 112.902C123 124.771 111.359 140 97 140C82.6406 140 71 124.771 71 112.902C71 101.032 82.6406 83 97 83C111.359 83 123 101.032 123 112.902Z" fill="black"/>
<path d="M201 112.902C201 124.771 189.359 140 175 140C160.641 140 149 124.771 149 112.902C149 101.032 160.641 83 175 83C189.359 83 201 101.032 201 112.902Z" fill="black"/>
<path d="M53.5 86.5L109.5 55.5L116.466 58.7738L56.0157 106L53.5 86.5Z" fill="white"/>
<path d="M76 133C52.5685 126.752 39.4315 123.248 16 117" stroke="black" stroke-width="2"/>
<path d="M262 152C238.569 145.752 225.431 142.248 202 136" stroke="black" stroke-width="2"/>
<path d="M76 137C52.5685 143.248 39.4315 146.752 16 153" stroke="black" stroke-width="2"/>
<path d="M202 131C225.431 124.752 238.569 121.248 262 115" stroke="black" stroke-width="2"/>
<path d="M178 124.836C178 131.916 171.06 141 162.5 141C153.94 141 147 131.916 147 124.836C147 117.756 153.94 107 162.5 107C171.06 107 178 117.756 178 124.836Z" fill="white"/>
<path d="M107 123.836C107 130.916 100.06 140 91.5 140C82.9396 140 76 130.916 76 123.836C76 116.756 82.9396 106 91.5 106C100.06 106 107 116.756 107 123.836Z" fill="white"/>
<rect x="39" y="174" width="196" height="58" fill="#704714"/>
<path d="M99.5 180C99.5 191.793 88.9578 201.5 77 201.5C65.256 201.5 57 192.011 57 180C57 167.989 65.256 158.5 77 158.5C88.9578 158.5 99.5 168.207 99.5 180Z" fill="white" stroke="black" stroke-width="3"/>
<path d="M85.2371 183.921C85.0188 183.266 85.3728 182.558 86.0277 182.34C86.6826 182.121 87.3905 182.475 87.6088 183.13L85.2371 183.921ZM89.2371 195.921L85.2371 183.921L87.6088 183.13L91.6088 195.13L89.2371 195.921Z" fill="black" fill-opacity="0.55"/>
<path d="M68.1859 184.395C68.4042 183.74 68.0502 183.032 67.3953 182.814C66.7404 182.596 66.0325 182.95 65.8141 183.605L68.1859 184.395ZM64.1859 196.395L68.1859 184.395L65.8141 183.605L61.8141 195.605L64.1859 196.395Z" fill="black" fill-opacity="0.55"/>
<path d="M78.75 184C78.75 183.31 78.1904 182.75 77.5 182.75C76.8096 182.75 76.25 183.31 76.25 184H78.75ZM78.75 201V184H76.25V201H78.75Z" fill="black" fill-opacity="0.55"/>
<path d="M207 180C207 191.793 196.458 201.5 184.5 201.5C172.756 201.5 164.5 192.011 164.5 180C164.5 167.989 172.756 158.5 184.5 158.5C196.458 158.5 207 168.207 207 180Z" fill="white" stroke="black" stroke-width="3"/>
<path d="M192.737 183.921C192.519 183.266 192.873 182.558 193.528 182.34C194.183 182.121 194.891 182.475 195.109 183.13L192.737 183.921ZM196.737 195.921L192.737 183.921L195.109 183.13L199.109 195.13L196.737 195.921Z" fill="black" fill-opacity="0.55"/>
<path d="M175.686 184.395C175.904 183.74 175.55 183.032 174.895 182.814C174.24 182.596 173.532 182.95 173.314 183.605L175.686 184.395ZM171.686 196.395L175.686 184.395L173.314 183.605L169.314 195.605L171.686 196.395Z" fill="black" fill-opacity="0.55"/>
<path d="M186.25 184C186.25 183.31 185.69 182.75 185 182.75C184.31 182.75 183.75 183.31 183.75 184H186.25ZM186.25 201V184H183.75V201H186.25Z" fill="black" fill-opacity="0.55"/>
</svg>
