<svg width="285" height="293" viewBox="0 0 285 293" fill="none" xmlns="http://www.w3.org/2000/svg">
<path d="M155.277 148.627C155.304 148.583 155.329 148.541 155.353 148.5H202.392C202.433 148.57 202.477 148.645 202.524 148.725C202.89 149.354 203.425 150.282 204.097 151.468C205.44 153.842 207.331 157.254 209.513 161.401C213.881 169.699 219.411 180.918 224.078 192.636C228.754 204.377 232.521 216.516 233.435 226.679C234.356 236.927 232.342 244.568 226.232 248.212C212.668 256.299 194.425 261.605 176.815 261.919C159.188 262.234 142.447 257.551 131.594 245.974C126.428 240.464 125.069 231.781 126.249 221.42C127.423 211.113 131.072 199.506 135.458 188.558C139.838 177.625 144.921 167.428 148.914 159.957C150.909 156.224 152.629 153.176 153.85 151.063C154.46 150.007 154.945 149.184 155.277 148.627Z" fill="white" stroke="black" stroke-width="3"/>
<path d="M229.5 121.265C229.5 131.939 228.522 142.894 222.052 150.952C215.654 158.92 203.535 164.445 180.254 163.365C156.951 162.285 145.183 156.109 139.15 148.308C133.073 140.452 132.5 130.582 132.5 121.265C132.5 107.255 137.84 97.9202 146.319 92.0239C154.885 86.0667 166.83 83.5 180.185 83.5C193.463 83.5 205.841 86.8529 214.855 93.2427C223.824 99.6007 229.5 108.979 229.5 121.265Z" fill="white" stroke="black" stroke-width="3"/>
<path d="M180.181 132.5C180.633 132.5 181.005 132.868 180.956 133.318C180.804 134.74 180.256 136.072 179.389 137.096C178.358 138.315 176.959 139 175.5 139C174.041 139 172.642 138.315 171.611 137.096C170.744 136.072 170.196 134.74 170.044 133.318C169.995 132.868 170.367 132.5 170.819 132.5C171.272 132.5 171.632 132.869 171.701 133.316C171.84 134.223 172.21 135.066 172.769 135.727C173.494 136.583 174.476 137.064 175.5 137.064C176.524 137.064 177.506 136.583 178.231 135.727C178.79 135.066 179.16 134.223 179.299 133.316C179.368 132.869 179.728 132.5 180.181 132.5Z" fill="black"/>
<path d="M190.181 132.5C190.633 132.5 191.005 132.868 190.956 133.318C190.804 134.74 190.256 136.072 189.389 137.096C188.358 138.315 186.959 139 185.5 139C184.041 139 182.642 138.315 181.611 137.096C180.744 136.072 180.196 134.74 180.044 133.318C179.995 132.868 180.367 132.5 180.819 132.5C181.272 132.5 181.632 132.869 181.701 133.316C181.84 134.223 182.21 135.066 182.769 135.727C183.494 136.583 184.476 137.064 185.5 137.064C186.524 137.064 187.506 136.583 188.231 135.727C188.79 135.066 189.16 134.223 189.299 133.316C189.368 132.869 189.728 132.5 190.181 132.5Z" fill="black"/>
<path d="M177 118.213C177 124.252 170.956 132 163.5 132C156.044 132 150 124.252 150 118.213C150 112.174 156.044 103 163.5 103C170.956 103 177 112.174 177 118.213Z" fill="black"/>
<path d="M177 118.213C177 124.252 170.956 132 163.5 132C156.044 132 150 124.252 150 118.213C150 112.174 156.044 103 163.5 103C170.956 103 177 112.174 177 118.213Z" fill="black"/>
<path d="M212 118.213C212 124.252 205.956 132 198.5 132C191.044 132 185 124.252 185 118.213C185 112.174 191.044 103 198.5 103C205.956 103 212 112.174 212 118.213Z" fill="black"/>
<path d="M177 111.869C177 114.993 173.642 119 169.5 119C165.358 119 162 114.993 162 111.869C162 108.745 165.358 104 169.5 104C173.642 104 177 108.745 177 111.869Z" fill="white"/>
<path d="M177 111.869C177 114.993 173.642 119 169.5 119C165.358 119 162 114.993 162 111.869C162 108.745 165.358 104 169.5 104C173.642 104 177 108.745 177 111.869Z" fill="white"/>
<path d="M212 111.869C212 114.993 208.642 119 204.5 119C200.358 119 197 114.993 197 111.869C197 108.745 200.358 104 204.5 104C208.642 104 212 108.745 212 111.869Z" fill="white"/>
<path d="M129.825 69.9173C130.516 69.3876 131.581 69.0781 133.12 69.1063C134.649 69.1343 136.498 69.4947 138.584 70.1371C142.754 71.421 147.607 73.7456 152.268 76.3134C156.914 78.8734 161.306 81.6395 164.54 83.7691C166.022 84.7451 167.259 85.5857 168.163 86.2092L135.587 111.173C135.22 110.138 134.73 108.725 134.173 107.04C132.957 103.363 131.428 98.4036 130.165 93.2514C128.897 88.0835 127.915 82.7929 127.759 78.4324C127.682 76.2506 127.814 74.372 128.185 72.8878C128.558 71.3947 129.134 70.447 129.825 69.9173Z" fill="white" stroke="black" stroke-width="3"/>
<path d="M231.848 67.8893C231.156 67.3607 230.091 67.053 228.552 67.0837C227.022 67.1142 225.174 67.4777 223.089 68.1235C218.921 69.4143 214.072 71.7468 209.416 74.3223C204.773 76.89 200.386 79.6633 197.156 81.7982C195.675 82.7767 194.44 83.6194 193.537 84.2443L226.154 109.154C226.519 108.119 227.007 106.705 227.561 105.019C228.771 101.341 230.291 96.3782 231.547 91.2239C232.806 86.0539 233.779 80.7618 233.928 76.401C234.002 74.2191 233.866 72.3407 233.493 70.857C233.117 69.3646 232.54 68.4179 231.848 67.8893Z" fill="white" stroke="black" stroke-width="3"/>
<path d="M227.025 104.713L198.29 85.393L190.525 85.393L227.025 117.213L227.025 104.713Z" fill="white"/>
<path d="M203.587 99.8459L205.215 105.201C205.215 105.201 213.705 82.1724 209.078 82.2759C198.867 82.5041 223.252 97.8013 223.252 97.8013L219.244 97.5864C219.244 97.5864 195.987 82.6465 208.384 80.1764C222.003 77.4625 203.587 99.8459 203.587 99.8459Z" fill="#FF6699"/>
<path d="M134.703 106.068L164.646 85.9182L178.146 85.5612L134.456 115.245L134.703 106.068Z" fill="white"/>
<path d="M144.596 125.844C130.975 122.212 123.339 120.175 109.718 116.543" stroke="black" stroke-width="2"/>
<path d="M252.72 136.889C239.099 133.257 231.462 131.22 217.841 127.588" stroke="black" stroke-width="2"/>
<path d="M144.596 128.169C130.975 131.801 123.339 133.838 109.718 137.47" stroke="black" stroke-width="2"/>
<path d="M217.841 124.681C231.462 121.049 239.099 119.013 252.72 115.38" stroke="black" stroke-width="2"/>
<mask id="path-20-inside-1_39_227" fill="white">
<path d="M184 196C184 194.895 184.895 194 186 194H206C207.105 194 208 194.895 208 196V253C208 259.627 202.627 265 196 265C189.373 265 184 259.627 184 253V196Z"/>
</mask>
<path d="M184 196C184 194.895 184.895 194 186 194H206C207.105 194 208 194.895 208 196V253C208 259.627 202.627 265 196 265C189.373 265 184 259.627 184 253V196Z" fill="white"/>
<path d="M184 194H208H184ZM211 253C211 261.284 204.284 268 196 268C187.716 268 181 261.284 181 253H187C187 257.971 191.029 262 196 262C200.971 262 205 257.971 205 253H211ZM196 268C187.716 268 181 261.284 181 253V199C181 196.239 183.239 194 186 194H187C187 194 187 194.895 187 196V253C187 257.971 191.029 262 196 262V268ZM206 194C208.761 194 211 196.239 211 199V253C211 261.284 204.284 268 196 268V262C200.971 262 205 257.971 205 253V196C205 194.895 205 194 205 194H206Z" fill="url(#paint0_linear_39_227)" mask="url(#path-20-inside-1_39_227)"/>
<mask id="path-22-inside-2_39_227" fill="white">
<path d="M158 196C158 194.895 158.895 194 160 194H179C180.105 194 181 194.895 181 196V255.5C181 261.851 175.851 267 169.5 267C163.149 267 158 261.851 158 255.5V196Z"/>
</mask>
<path d="M158 196C158 194.895 158.895 194 160 194H179C180.105 194 181 194.895 181 196V255.5C181 261.851 175.851 267 169.5 267C163.149 267 158 261.851 158 255.5V196Z" fill="white"/>
<path d="M158 194H181H158ZM184 255.5C184 263.508 177.508 270 169.5 270C161.492 270 155 263.508 155 255.5H161C161 260.194 164.806 264 169.5 264C174.194 264 178 260.194 178 255.5H184ZM169.5 270C161.492 270 155 263.508 155 255.5V199C155 196.239 157.239 194 160 194H161C161 194 161 194.895 161 196V255.5C161 260.194 164.806 264 169.5 264V270ZM179 194C181.761 194 184 196.239 184 199V255.5C184 263.508 177.508 270 169.5 270V264C174.194 264 178 260.194 178 255.5V196C178 194.895 178 194 178 194H179Z" fill="url(#paint1_linear_39_227)" mask="url(#path-22-inside-2_39_227)"/>
<path d="M189.515 266.882C190.377 264.826 190.459 263.478 190.065 262.481C189.67 261.478 188.633 260.425 186.278 259.353C183.939 258.288 180.541 257.314 175.822 256.325C171.121 255.339 165.195 254.354 157.842 253.242C142.158 250.868 135.279 236.269 131.75 224.673C130.855 221.734 130.16 218.937 129.589 216.51C129.415 215.768 129.253 215.068 129.101 214.41C128.764 212.949 128.476 211.7 128.205 210.691C121.807 229.126 122.684 241.745 128.402 251.638C134.255 261.765 145.339 269.351 160.006 277.294C165.114 280.061 171.591 279.588 177.379 277.233C183.194 274.867 187.881 270.776 189.515 266.882ZM127.511 208.687C127.505 208.678 127.506 208.68 127.513 208.689C127.512 208.688 127.512 208.687 127.511 208.687ZM129.013 208.737C129.018 208.731 129.021 208.728 129.021 208.728C129.021 208.728 129.018 208.731 129.013 208.737Z" fill="white" stroke="black" stroke-width="3"/>
<defs>
<linearGradient id="paint0_linear_39_227" x1="196" y1="194" x2="196" y2="265" gradientUnits="userSpaceOnUse">
<stop stop-color="white"/>
<stop offset="0.47"/>
</linearGradient>
<linearGradient id="paint1_linear_39_227" x1="169.5" y1="194" x2="169.5" y2="267" gradientUnits="userSpaceOnUse">
<stop stop-color="white"/>
<stop offset="0.47"/>
</linearGradient>
</defs>
</svg>
