<svg width="22" height="22" viewBox="0 0 22 22" fill="none" xmlns="http://www.w3.org/2000/svg">
<path opacity="0.6" d="M10.957 0C4.9152 0 0 4.62587 0 10.3125C0 12.7147 0.891258 15.0424 2.51329 16.8874C2.8343 18.2993 2.44466 19.7951 1.47787 20.8264C1.07362 21.2576 1.35949 22 1.93359 22C3.77025 22 5.54082 21.2326 6.85631 19.8791C8.15796 20.3746 9.53515 20.625 10.957 20.625C16.9989 20.625 22 15.9991 22 10.3125C22 4.62587 16.9989 0 10.957 0ZM5.88672 12.375C4.82049 12.375 3.95312 11.4498 3.95312 10.3125C3.95312 9.17519 4.82049 8.25 5.88672 8.25C6.95295 8.25 7.82031 9.17519 7.82031 10.3125C7.82031 11.4498 6.95295 12.375 5.88672 12.375ZM11.043 12.375C9.97674 12.375 9.10938 11.4498 9.10938 10.3125C9.10938 9.17519 9.97674 8.25 11.043 8.25C12.1092 8.25 12.9766 9.17519 12.9766 10.3125C12.9766 11.4498 12.1092 12.375 11.043 12.375ZM16.1992 12.375C15.133 12.375 14.2656 11.4498 14.2656 10.3125C14.2656 9.17519 15.133 8.25 16.1992 8.25C17.2654 8.25 18.1328 9.17519 18.1328 10.3125C18.1328 11.4498 17.2654 12.375 16.1992 12.375Z" fill="black"/>
</svg>
