<svg width="247" height="243" viewBox="0 0 247 243" fill="none" xmlns="http://www.w3.org/2000/svg">
<g filter="url(#filter0_d_167_3)">
<mask id="path-1-inside-1_167_3" fill="white">
<path d="M237 139.5C237 151.253 234.685 162.892 230.187 173.75C225.689 184.609 219.097 194.475 210.786 202.786C202.475 211.097 192.609 217.689 181.75 222.187C170.892 226.685 159.253 229 147.5 229L147.5 139.5H237Z"/>
</mask>
<path d="M237 139.5C237 151.253 234.685 162.892 230.187 173.75C225.689 184.609 219.097 194.475 210.786 202.786C202.475 211.097 192.609 217.689 181.75 222.187C170.892 226.685 159.253 229 147.5 229L147.5 139.5H237Z" fill="white"/>
<path d="M237 139.5C237 151.253 234.685 162.892 230.187 173.75C225.689 184.609 219.097 194.475 210.786 202.786C202.475 211.097 192.609 217.689 181.75 222.187C170.892 226.685 159.253 229 147.5 229L147.5 139.5H237Z" stroke="#F7BACE" stroke-width="6" mask="url(#path-1-inside-1_167_3)"/>
</g>
<g filter="url(#filter1_d_167_3)">
<path d="M10 139.5C10 151.253 12.315 162.892 16.8128 173.75C21.3106 184.609 27.9031 194.475 36.2139 202.786C44.5248 211.097 54.3912 217.689 65.2498 222.187C76.1085 226.685 87.7467 229 99.5 229L99.5 139.5H10Z" fill="white"/>
</g>
<g filter="url(#filter2_d_167_3)">
<path d="M10 95.5C10 83.7467 12.315 72.1085 16.8128 61.2498C21.3106 50.3912 27.9031 40.5248 36.2139 32.2139C44.5248 23.9031 54.3912 17.3106 65.2498 12.8128C76.1085 8.31499 87.7467 6 99.5 6L99.5 95.5H10Z" fill="white"/>
</g>
<g filter="url(#filter3_d_167_3)">
<path d="M237 95.5C237 83.7467 234.685 72.1085 230.187 61.2498C225.689 50.3912 219.097 40.5248 210.786 32.2139C202.475 23.9031 192.609 17.3106 181.75 12.8128C170.892 8.31499 159.253 6 147.5 6L147.5 95.5H237Z" fill="white"/>
</g>
<g filter="url(#filter4_d_167_3)">
<circle cx="123" cy="119" r="50" fill="white"/>
</g>
<defs>
<filter id="filter0_d_167_3" x="137.6" y="133.6" width="109.3" height="109.3" filterUnits="userSpaceOnUse" color-interpolation-filters="sRGB">
<feFlood flood-opacity="0" result="BackgroundImageFix"/>
<feColorMatrix in="SourceAlpha" type="matrix" values="0 0 0 0 0 0 0 0 0 0 0 0 0 0 0 0 0 0 127 0" result="hardAlpha"/>
<feMorphology radius="2" operator="erode" in="SourceAlpha" result="effect1_dropShadow_167_3"/>
<feOffset dy="4"/>
<feGaussianBlur stdDeviation="5.95"/>
<feComposite in2="hardAlpha" operator="out"/>
<feColorMatrix type="matrix" values="0 0 0 0 0.301667 0 0 0 0 0.11765 0 0 0 0 0.11765 0 0 0 0.25 0"/>
<feBlend mode="normal" in2="BackgroundImageFix" result="effect1_dropShadow_167_3"/>
<feBlend mode="normal" in="SourceGraphic" in2="effect1_dropShadow_167_3" result="shape"/>
</filter>
<filter id="filter1_d_167_3" x="0.1" y="133.6" width="109.3" height="109.3" filterUnits="userSpaceOnUse" color-interpolation-filters="sRGB">
<feFlood flood-opacity="0" result="BackgroundImageFix"/>
<feColorMatrix in="SourceAlpha" type="matrix" values="0 0 0 0 0 0 0 0 0 0 0 0 0 0 0 0 0 0 127 0" result="hardAlpha"/>
<feMorphology radius="2" operator="erode" in="SourceAlpha" result="effect1_dropShadow_167_3"/>
<feOffset dy="4"/>
<feGaussianBlur stdDeviation="5.95"/>
<feComposite in2="hardAlpha" operator="out"/>
<feColorMatrix type="matrix" values="0 0 0 0 0.301667 0 0 0 0 0.11765 0 0 0 0 0.11765 0 0 0 0.25 0"/>
<feBlend mode="normal" in2="BackgroundImageFix" result="effect1_dropShadow_167_3"/>
<feBlend mode="normal" in="SourceGraphic" in2="effect1_dropShadow_167_3" result="shape"/>
</filter>
<filter id="filter2_d_167_3" x="0.1" y="0.1" width="109.3" height="109.3" filterUnits="userSpaceOnUse" color-interpolation-filters="sRGB">
<feFlood flood-opacity="0" result="BackgroundImageFix"/>
<feColorMatrix in="SourceAlpha" type="matrix" values="0 0 0 0 0 0 0 0 0 0 0 0 0 0 0 0 0 0 127 0" result="hardAlpha"/>
<feMorphology radius="2" operator="erode" in="SourceAlpha" result="effect1_dropShadow_167_3"/>
<feOffset dy="4"/>
<feGaussianBlur stdDeviation="5.95"/>
<feComposite in2="hardAlpha" operator="out"/>
<feColorMatrix type="matrix" values="0 0 0 0 0.301667 0 0 0 0 0.11765 0 0 0 0 0.11765 0 0 0 0.25 0"/>
<feBlend mode="normal" in2="BackgroundImageFix" result="effect1_dropShadow_167_3"/>
<feBlend mode="normal" in="SourceGraphic" in2="effect1_dropShadow_167_3" result="shape"/>
</filter>
<filter id="filter3_d_167_3" x="137.6" y="0.1" width="109.3" height="109.3" filterUnits="userSpaceOnUse" color-interpolation-filters="sRGB">
<feFlood flood-opacity="0" result="BackgroundImageFix"/>
<feColorMatrix in="SourceAlpha" type="matrix" values="0 0 0 0 0 0 0 0 0 0 0 0 0 0 0 0 0 0 127 0" result="hardAlpha"/>
<feMorphology radius="2" operator="erode" in="SourceAlpha" result="effect1_dropShadow_167_3"/>
<feOffset dy="4"/>
<feGaussianBlur stdDeviation="5.95"/>
<feComposite in2="hardAlpha" operator="out"/>
<feColorMatrix type="matrix" values="0 0 0 0 0.301667 0 0 0 0 0.11765 0 0 0 0 0.11765 0 0 0 0.25 0"/>
<feBlend mode="normal" in2="BackgroundImageFix" result="effect1_dropShadow_167_3"/>
<feBlend mode="normal" in="SourceGraphic" in2="effect1_dropShadow_167_3" result="shape"/>
</filter>
<filter id="filter4_d_167_3" x="63.1" y="63.1" width="119.8" height="119.8" filterUnits="userSpaceOnUse" color-interpolation-filters="sRGB">
<feFlood flood-opacity="0" result="BackgroundImageFix"/>
<feColorMatrix in="SourceAlpha" type="matrix" values="0 0 0 0 0 0 0 0 0 0 0 0 0 0 0 0 0 0 127 0" result="hardAlpha"/>
<feMorphology radius="2" operator="erode" in="SourceAlpha" result="effect1_dropShadow_167_3"/>
<feOffset dy="4"/>
<feGaussianBlur stdDeviation="5.95"/>
<feComposite in2="hardAlpha" operator="out"/>
<feColorMatrix type="matrix" values="0 0 0 0 0.301667 0 0 0 0 0.11765 0 0 0 0 0.11765 0 0 0 0.25 0"/>
<feBlend mode="normal" in2="BackgroundImageFix" result="effect1_dropShadow_167_3"/>
<feBlend mode="normal" in="SourceGraphic" in2="effect1_dropShadow_167_3" result="shape"/>
</filter>
</defs>
</svg>
