<svg width="54" height="69" viewBox="0 0 54 69" fill="none" xmlns="http://www.w3.org/2000/svg">
<path d="M20.4891 50.7128C20.6148 50.6775 20.7325 50.6172 20.8353 50.5355C20.9382 50.4539 21.0242 50.3524 21.0885 50.2369C21.1528 50.1214 21.1942 49.9941 21.2101 49.8623C21.2261 49.7305 21.2164 49.5969 21.1816 49.4689C20.6381 47.4683 18.9001 47.1572 18.0558 47.2706C17.7947 47.306 17.5581 47.4456 17.398 47.6586C17.238 47.8716 17.1676 48.1406 17.2025 48.4064C17.2373 48.6722 17.3744 48.913 17.5837 49.0759C17.793 49.2388 18.0573 49.3104 18.3185 49.2749C18.4389 49.2577 19.0519 49.2167 19.2668 50.0078C19.3248 50.2209 19.4497 50.4088 19.6225 50.5428C19.7953 50.6768 20.0065 50.7494 20.2238 50.7496C20.3134 50.7497 20.4027 50.7374 20.4891 50.7128ZM33.5111 50.7128C33.3853 50.6775 33.2677 50.6172 33.1648 50.5355C33.0619 50.4539 32.9759 50.3524 32.9116 50.2369C32.8473 50.1214 32.8059 49.9941 32.79 49.8623C32.774 49.7305 32.7837 49.5969 32.8185 49.4689C33.362 47.4683 35.1 47.1572 35.9443 47.2706C36.2054 47.306 36.4421 47.4456 36.6021 47.6586C36.7621 47.8716 36.8325 48.1406 36.7976 48.4064C36.7628 48.6722 36.6257 48.913 36.4164 49.0759C36.2071 49.2388 35.9428 49.3104 35.6816 49.2749C35.5612 49.2577 34.9483 49.2167 34.7333 50.0078C34.6754 50.2209 34.5504 50.4088 34.3776 50.5428C34.2048 50.6768 33.9936 50.7494 33.7764 50.7496C33.6867 50.7497 33.5974 50.7374 33.5111 50.7128ZM41.9292 56.7298C41.0029 56.7298 40.2493 57.4967 40.2493 58.4396V60.3775C40.2493 61.3203 41.0028 62.0874 41.9292 62.0874H45.2631C46.1895 62.0874 46.9431 61.3204 46.9431 60.3775V58.4396C46.9431 57.4968 46.1896 56.7298 45.2631 56.7298H41.9292ZM44.9562 60.0653H42.236V58.7518H44.9562V60.0653ZM8.53951 58.1653H11.6962C12.2449 58.1653 12.6895 57.7128 12.6895 57.1543C12.6895 56.5958 12.2449 56.1433 11.6962 56.1433H8.53951C7.99077 56.1433 7.54614 56.5958 7.54614 57.1543C7.54614 57.7128 7.99077 58.1653 8.53951 58.1653ZM8.53951 61.5356H10.769C11.3178 61.5356 11.7624 61.083 11.7624 60.5246C11.7624 59.9661 11.3178 59.5136 10.769 59.5136H8.53951C7.99077 59.5136 7.54614 59.9661 7.54614 60.5246C7.54614 61.083 7.99077 61.5356 8.53951 61.5356Z" fill="#E481A0"/>
<path d="M4.96682 40.1625C4.83636 40.1625 4.70718 40.1887 4.58665 40.2395C4.46612 40.2903 4.35661 40.3647 4.26436 40.4586C4.17212 40.5525 4.09894 40.664 4.04903 40.7866C3.99911 40.9093 3.97343 41.0408 3.97345 41.1736V63.9449C3.97345 64.5033 4.41808 64.9559 4.96682 64.9559H49.0331C49.5819 64.9559 50.0265 64.5033 50.0265 63.9449V19.0532C50.0265 18.4947 49.5819 18.0422 49.0331 18.0422H4.96682C4.83636 18.0422 4.70718 18.0683 4.58665 18.1191C4.46612 18.1699 4.35661 18.2444 4.26436 18.3383C4.17212 18.4322 4.09894 18.5436 4.04903 18.6663C3.99911 18.789 3.97343 18.9204 3.97345 19.0532V37.1312C3.97345 37.6896 4.41808 38.1422 4.96682 38.1422C5.51555 38.1422 5.96019 37.6896 5.96019 37.1312V20.0642H48.0398V62.9337H36.3007C36.2877 62.8503 36.2757 62.7679 36.2644 62.6868C35.9341 60.3143 37.0669 57.9628 39.1522 56.695L39.2132 56.6577C41.1573 55.4555 42.4308 53.3451 42.6202 51.0121C42.6419 50.7449 42.5584 50.4798 42.3881 50.2753C42.2178 50.0707 41.9746 49.9434 41.712 49.9213C41.1673 49.874 40.6854 50.2892 40.6402 50.8456C40.5032 52.5356 39.584 54.0624 38.182 54.9293L38.1317 54.9601C35.3702 56.6392 33.8661 59.7658 34.2924 62.9337H30.694L30.301 47.0604L32.6536 45.5467C33.2811 45.1429 33.9508 44.886 34.643 44.7831L34.7092 44.7735C36.8178 44.4754 38.8693 45.518 39.9363 47.4294C40.0007 47.5449 40.0868 47.6463 40.1897 47.7279C40.2927 47.8095 40.4104 47.8696 40.5362 47.9049C40.662 47.9402 40.7933 47.9499 40.9228 47.9334C41.0523 47.917 41.1773 47.8747 41.2907 47.8091C41.5198 47.6766 41.6878 47.4569 41.7577 47.1984C41.8277 46.9399 41.7938 46.6637 41.6637 46.4305C40.1924 43.7946 37.3548 42.3586 34.435 42.7709L34.3567 42.7823C33.3865 42.9264 32.4562 43.2814 31.5919 43.8376L30.2426 44.7057L30.0435 36.6669C31.9673 36.9552 33.7555 37.867 35.1472 39.2835L36.737 40.9014C36.9309 41.0987 37.1852 41.1974 37.4393 41.1974C37.6935 41.1974 37.9478 41.0987 38.1419 40.9013C38.2341 40.8074 38.3073 40.6959 38.3572 40.5733C38.4071 40.4506 38.4328 40.3191 38.4328 40.1864C38.4328 40.0536 38.4071 39.9221 38.3571 39.7995C38.3072 39.6768 38.234 39.5654 38.1417 39.4716L36.5521 37.8538C34.7753 36.0455 32.4668 34.9121 29.9929 34.6212L29.9141 31.4389C30.9744 31.3819 32.0189 31.3818 33.0284 31.4391C35.2602 31.5655 37.3633 32.5246 38.9503 34.1399L40.5401 35.7579C40.7341 35.9553 40.9885 36.054 41.2426 36.054C41.4968 36.054 41.7511 35.9553 41.9451 35.7579C42.0374 35.6641 42.1106 35.5526 42.1605 35.4299C42.2104 35.3073 42.2361 35.1758 42.2361 35.043C42.2361 34.9103 42.2104 34.7788 42.1605 34.6561C42.1106 34.5335 42.0374 34.422 41.9451 34.3281L40.3553 32.7101C38.422 30.7426 35.8592 29.5742 33.1387 29.4203C32.0754 29.36 30.9773 29.3591 29.8642 29.4171L29.7829 26.1328C32.1891 25.7243 34.5072 25.58 36.6835 25.7026C38.9152 25.8291 41.0184 26.7882 42.6054 28.4035L44.1952 30.0215C44.3892 30.2189 44.6435 30.3175 44.8977 30.3175C45.1519 30.3175 45.4062 30.2189 45.6002 30.0215C45.6924 29.9276 45.7656 29.8162 45.8155 29.6935C45.8655 29.5708 45.8912 29.4394 45.8912 29.3066C45.8912 29.1738 45.8655 29.0423 45.8155 28.9197C45.7656 28.797 45.6924 28.6856 45.6002 28.5917L44.0104 26.9737C42.077 25.0061 39.5143 23.8378 36.7938 23.6839C34.5551 23.5574 32.1839 23.6948 29.7311 24.0926C29.6499 22.6134 28.4666 21.4673 27.0002 21.4673C25.5339 21.4673 24.3506 22.6133 24.2694 24.0926C21.8165 23.6948 19.4452 23.5573 17.2068 23.6839C14.4863 23.8379 11.9234 25.0063 9.99021 26.9737L8.40043 28.5917C8.30818 28.6856 8.23501 28.797 8.18509 28.9197C8.13517 29.0424 8.10948 29.1739 8.10948 29.3066C8.10949 29.4394 8.13519 29.5709 8.18512 29.6936C8.23506 29.8162 8.30824 29.9277 8.40049 30.0216C8.49275 30.1155 8.60227 30.1899 8.7228 30.2407C8.84333 30.2915 8.97252 30.3177 9.10298 30.3177C9.23344 30.3177 9.36263 30.2915 9.48316 30.2407C9.60369 30.1899 9.7132 30.1154 9.80545 30.0215L11.3952 28.4035C12.9822 26.7882 15.0854 25.8289 17.3172 25.7026C19.4929 25.5798 21.8114 25.7242 24.2176 26.1327L24.1363 29.4169C23.0231 29.359 21.9251 29.3598 20.8618 29.4202C18.1414 29.5741 15.5784 30.7426 13.645 32.7101L12.0554 34.3281C11.9164 34.4695 11.8217 34.6496 11.7833 34.8458C11.745 35.0419 11.7646 35.2452 11.8398 35.43C11.915 35.6147 12.0424 35.7726 12.2058 35.8837C12.3693 35.9947 12.5614 36.0539 12.7579 36.0538C12.8884 36.054 13.0176 36.0279 13.1382 35.9771C13.2587 35.9263 13.3682 35.8517 13.4604 35.7577L15.0499 34.1398C16.6372 32.5245 18.7405 31.5652 20.9721 31.4389C21.9815 31.3818 23.0258 31.3819 24.0862 31.4389L24.0074 34.6212C21.5335 34.9122 19.2251 36.0455 17.4485 37.8537L15.8588 39.4716C15.7665 39.5654 15.6933 39.6768 15.6433 39.7995C15.5934 39.9221 15.5677 40.0536 15.5677 40.1864C15.5677 40.3191 15.5934 40.4506 15.6433 40.5733C15.6932 40.6959 15.7664 40.8074 15.8586 40.9013C15.9508 40.9953 16.0603 41.0699 16.1808 41.1207C16.3014 41.1715 16.4306 41.1976 16.5611 41.1974C16.6916 41.1976 16.8208 41.1715 16.9413 41.1207C17.0619 41.0699 17.1714 40.9954 17.2635 40.9014L18.8534 39.2834C20.2449 37.867 22.0331 36.9552 23.9568 36.6669L23.7578 44.7057L22.4085 43.8376C21.544 43.2814 20.6137 42.9264 19.6332 42.7808L19.5646 42.7708C17.6728 42.5034 15.787 43.0094 14.2555 44.1956C12.7037 45.3978 11.7085 47.1418 11.4528 49.1072C11.4238 49.3309 11.3999 49.5553 11.3811 49.7802C11.1515 52.5367 12.4883 55.2362 14.785 56.6562L14.8498 56.696C16.9333 57.9627 18.0662 60.3144 17.736 62.6869C17.7247 62.768 17.7125 62.8504 17.6997 62.9337H5.96019V41.1736C5.96019 40.6151 5.51555 40.1625 4.96682 40.1625ZM28.4461 52.4171C27.4776 52.758 26.5226 52.758 25.5538 52.4171L25.6277 49.4343C26.0765 49.5487 26.5373 49.6068 27 49.6075C27.4576 49.6075 27.9153 49.5496 28.3722 49.4343L28.4461 52.4171ZM25.5021 54.5095C26.0008 54.6351 26.5004 54.6979 27 54.6979C27.4996 54.6979 27.9993 54.6351 28.498 54.5095L28.572 57.4972C27.5188 57.8551 26.4812 57.8552 25.4282 57.4972L25.5021 54.5095ZM25.8791 39.28C26.2461 39.3703 26.6223 39.4162 26.9998 39.4166C27.3741 39.4166 27.7484 39.371 28.1208 39.2801L28.1945 42.2617C27.3894 42.5708 26.6108 42.5708 25.8052 42.2617L25.8791 39.28ZM27.9433 32.108C27.3082 32.3704 26.692 32.3704 26.0568 32.108L26.1303 29.136C26.4196 29.2041 26.7098 29.2382 27.0001 29.2382C27.2903 29.2382 27.5805 29.2041 27.8696 29.1361L27.9433 32.108ZM27.0001 34.3269C27.3323 34.3269 27.6645 34.2871 27.9952 34.2077L28.0688 37.1843C27.3487 37.4711 26.6514 37.4713 25.931 37.1843L26.0046 34.2077C26.3355 34.2871 26.6678 34.3269 27.0001 34.3269ZM27.0001 44.517C27.4159 44.517 27.8315 44.4647 28.2466 44.36L28.3204 47.3378C27.4361 47.6606 26.564 47.6606 25.6796 47.3378L25.7534 44.3598C26.1611 44.4637 26.5798 44.5165 27.0001 44.517ZM25.2935 62.9337L25.3764 59.5859C25.9168 59.7213 26.4584 59.789 27 59.789C27.5416 59.789 28.0831 59.7211 28.6237 59.5858L28.7066 62.9337H25.2935ZM27 23.4892C27.4092 23.4892 27.738 23.8154 27.7482 24.2318L27.8176 27.0324C27.2641 27.2758 26.736 27.2758 26.1824 27.0323L26.2516 24.232C26.2555 24.0329 26.3361 23.8434 26.4762 23.7044C26.6162 23.5654 26.8044 23.4881 27 23.4892ZM15.8674 54.9596L15.8185 54.9294C14.1588 53.9033 13.1939 51.9491 13.3604 49.9505C13.376 49.761 13.3968 49.5662 13.4221 49.3722C13.6077 47.9451 14.3308 46.6781 15.4584 45.8045C16.5655 44.947 17.9266 44.5808 19.2901 44.7734L19.3565 44.7831C20.0492 44.886 20.7188 45.1429 21.3465 45.5467L23.699 47.0604L23.306 62.9337H19.7076C20.1337 59.7658 18.6297 56.6391 15.8674 54.9596Z" fill="#9BC0E4"/>
<path d="M53.0066 25.0472C53.5554 25.0472 54 24.5947 54 24.0362V16.6046C54 15.1674 52.8511 13.9983 51.4391 13.9983H47.6141L47.5209 13.48C46.9878 10.5197 44.5622 8.2236 41.6228 7.89658L37.5684 7.44513C35.6125 7.22743 33.9696 5.77805 33.4802 3.83854L32.7033 0.759566C32.5667 0.218747 32.0254 -0.106392 31.494 0.0317788C31.3676 0.0647991 31.2489 0.122827 31.1446 0.202548C31.0403 0.282269 30.9524 0.382123 30.886 0.496407C30.8196 0.610692 30.776 0.737169 30.7576 0.868617C30.7392 1.00006 30.7465 1.13391 30.7789 1.26251L31.5558 4.34162C32.2499 7.09141 34.5794 9.14658 37.3525 9.45514L41.4069 9.90672C43.4801 10.1374 45.1908 11.7567 45.5668 13.8446L45.5945 13.9985H8.40561L8.43329 13.8448C8.80932 11.7567 10.5199 10.1374 12.5931 9.90659L16.6475 9.45514C19.4207 9.14658 21.7501 7.09155 22.4443 4.34148L23.2212 1.26251C23.2537 1.13391 23.2609 1.00006 23.2425 0.868617C23.2242 0.737169 23.1805 0.610692 23.1141 0.496407C23.0477 0.382123 22.9599 0.282269 22.8555 0.202548C22.7512 0.122827 22.6325 0.0647991 22.5061 0.0317788C21.9749 -0.106257 21.4334 0.218747 21.2969 0.759566L20.5199 3.83841C20.0305 5.77805 18.3875 7.22743 16.4316 7.44513L12.3772 7.89644C9.43779 8.2236 7.01238 10.5197 6.47927 13.4801L6.38603 13.9983H2.5609C1.14886 13.9983 0 15.1674 0 16.6046V66.3936C0 67.8307 1.14886 69 2.5609 69H51.4391C52.8511 69 54 67.8307 54 66.3936V28.0785C54 27.52 53.5554 27.0675 53.0066 27.0675C52.4579 27.0675 52.0133 27.52 52.0133 28.0785V66.3935C52.0131 66.5484 51.9526 66.697 51.8449 66.8065C51.7373 66.9161 51.5913 66.9777 51.4391 66.9779H2.5609C2.40867 66.9777 2.26271 66.9161 2.15506 66.8065C2.04741 66.697 1.98688 66.5484 1.98674 66.3935V16.6046C1.98691 16.4496 2.04746 16.3011 2.15511 16.1916C2.26275 16.0821 2.40869 16.0205 2.5609 16.0203H51.4391C51.5913 16.0205 51.7373 16.0821 51.8449 16.1916C51.9525 16.3011 52.0131 16.4496 52.0133 16.6046V24.0362C52.0133 24.3044 52.1179 24.5615 52.3042 24.7511C52.4905 24.9407 52.7432 25.0472 53.0066 25.0472Z" fill="#E481A0"/>
</svg>
