<svg width="54" height="70" viewBox="0 0 54 70" fill="none" xmlns="http://www.w3.org/2000/svg">
<path d="M53.0847 70H0.915254C0.672514 70 0.439715 69.9129 0.268072 69.7579C0.0964282 69.6028 0 69.3926 0 69.1733V8.82667C0 8.60742 0.0964282 8.39716 0.268072 8.24213C0.439715 8.0871 0.672514 8 0.915254 8H14.6441C14.8868 8 15.1196 8.0871 15.2913 8.24213C15.4629 8.39716 15.5593 8.60742 15.5593 8.82667C15.5593 9.04591 15.4629 9.25618 15.2913 9.41121C15.1196 9.56624 14.8868 9.65333 14.6441 9.65333H1.83051V68.3467H52.1695V9.65333H39.3559C39.1132 9.65333 38.8804 9.56624 38.7087 9.41121C38.5371 9.25618 38.4407 9.04591 38.4407 8.82667C38.4407 8.60742 38.5371 8.39716 38.7087 8.24213C38.8804 8.0871 39.1132 8 39.3559 8H53.0847C53.3275 8 53.5603 8.0871 53.7319 8.24213C53.9036 8.39716 54 8.60742 54 8.82667V69.1733C54 69.3926 53.9036 69.6028 53.7319 69.7579C53.5603 69.9129 53.3275 70 53.0847 70Z" fill="#9BC0E4"/>
<path d="M38.1724 15H15.8276C15.6081 15 15.3976 14.9122 15.2424 14.7559C15.0872 14.5996 15 14.3877 15 14.1667V5.83333C15 5.61232 15.0872 5.40036 15.2424 5.24408C15.3976 5.0878 15.6081 5 15.8276 5H21.6364C21.8484 2.20722 24.1731 0 27 0C29.8269 0 32.1516 2.20722 32.3636 5H38.1724C38.3919 5 38.6024 5.0878 38.7576 5.24408C38.9128 5.40036 39 5.61232 39 5.83333V14.1667C39 14.3877 38.9128 14.5996 38.7576 14.7559C38.6024 14.9122 38.3919 15 38.1724 15ZM16.6552 13.3333H37.3448V6.66667H31.5517C31.3322 6.66667 31.1217 6.57887 30.9665 6.42259C30.8113 6.26631 30.7241 6.05435 30.7241 5.83333V5.41667C30.7241 3.34889 29.0535 1.66667 27 1.66667C24.9465 1.66667 23.2759 3.34889 23.2759 5.41667V5.83333C23.2759 6.05435 23.1887 6.26631 23.0335 6.42259C22.8783 6.57887 22.6678 6.66667 22.4483 6.66667H16.6552V13.3333Z" fill="#9BC0E4"/>
<path d="M48.0638 65H5.93617C5.68788 65 5.44976 64.913 5.2742 64.7582C5.09863 64.6035 5 64.3935 5 64.1746V13.8254C5 13.6065 5.09863 13.3965 5.2742 13.2418C5.44976 13.087 5.68788 13 5.93617 13H14.3617C14.61 13 14.8481 13.087 15.0237 13.2418C15.1992 13.3965 15.2979 13.6065 15.2979 13.8254C15.2979 14.0443 15.1992 14.2542 15.0237 14.409C14.8481 14.5638 14.61 14.6508 14.3617 14.6508H6.87234V63.3492H47.1277V14.6508H39.6383C39.39 14.6508 39.1519 14.5638 38.9763 14.409C38.8008 14.2542 38.7021 14.0443 38.7021 13.8254C38.7021 13.6065 38.8008 13.3965 38.9763 13.2418C39.1519 13.087 39.39 13 39.6383 13H48.0638C48.3121 13 48.5502 13.087 48.7258 13.2418C48.9014 13.3965 49 13.6065 49 13.8254V64.1746C49 64.3935 48.9014 64.6035 48.7258 64.7582C48.5502 64.913 48.3121 65 48.0638 65Z" fill="#9BC0E4"/>
<path d="M40.2 36.2941H13.8C13.5878 36.2941 13.3843 36.2074 13.2343 36.0529C13.0843 35.8985 13 35.689 13 35.4706C13 35.2522 13.0843 35.0427 13.2343 34.8883C13.3843 34.7338 13.5878 34.6471 13.8 34.6471H40.2C40.4122 34.6471 40.6157 34.7338 40.7657 34.8883C40.9157 35.0427 41 35.2522 41 35.4706C41 35.689 40.9157 35.8985 40.7657 36.0529C40.6157 36.2074 40.4122 36.2941 40.2 36.2941ZM40.2 40.4118H13.8C13.5878 40.4118 13.3843 40.325 13.2343 40.1706C13.0843 40.0161 13 39.8066 13 39.5882C13 39.3698 13.0843 39.1604 13.2343 39.0059C13.3843 38.8515 13.5878 38.7647 13.8 38.7647H40.2C40.4122 38.7647 40.6157 38.8515 40.7657 39.0059C40.9157 39.1604 41 39.3698 41 39.5882C41 39.8066 40.9157 40.0161 40.7657 40.1706C40.6157 40.325 40.4122 40.4118 40.2 40.4118ZM40.2 44.5294H13.8C13.5878 44.5294 13.3843 44.4426 13.2343 44.2882C13.0843 44.1338 13 43.9243 13 43.7059C13 43.4875 13.0843 43.278 13.2343 43.1236C13.3843 42.9691 13.5878 42.8824 13.8 42.8824H40.2C40.4122 42.8824 40.6157 42.9691 40.7657 43.1236C40.9157 43.278 41 43.4875 41 43.7059C41 43.9243 40.9157 44.1338 40.7657 44.2882C40.6157 44.4426 40.4122 44.5294 40.2 44.5294ZM40.2 48.6471H13.8C13.5878 48.6471 13.3843 48.5603 13.2343 48.4059C13.0843 48.2514 13 48.0419 13 47.8235C13 47.6051 13.0843 47.3956 13.2343 47.2412C13.3843 47.0868 13.5878 47 13.8 47H40.2C40.4122 47 40.6157 47.0868 40.7657 47.2412C40.9157 47.3956 41 47.6051 41 47.8235C41 48.0419 40.9157 48.2514 40.7657 48.4059C40.6157 48.5603 40.4122 48.6471 40.2 48.6471ZM28.2 30.5294H25C24.7878 30.5294 24.5843 30.4426 24.4343 30.2882C24.2843 30.1338 24.2 29.9243 24.2 29.7059V27.2353H21.8C21.5878 27.2353 21.3843 27.1485 21.2343 26.9941C21.0843 26.8396 21 26.6302 21 26.4118V23.1176C21 22.8992 21.0843 22.6898 21.2343 22.5353C21.3843 22.3809 21.5878 22.2941 21.8 22.2941H24.2V19.8235C24.2 19.6051 24.2843 19.3956 24.4343 19.2412C24.5843 19.0868 24.7878 19 25 19H28.2C28.4122 19 28.6157 19.0868 28.7657 19.2412C28.9157 19.3956 29 19.6051 29 19.8235V22.2941H31.4C31.6122 22.2941 31.8157 22.3809 31.9657 22.5353C32.1157 22.6898 32.2 22.8992 32.2 23.1176V26.4118C32.2 26.6302 32.1157 26.8396 31.9657 26.9941C31.8157 27.1485 31.6122 27.2353 31.4 27.2353H29V29.7059C29 29.9243 28.9157 30.1338 28.7657 30.2882C28.6157 30.4426 28.4122 30.5294 28.2 30.5294ZM25.8 28.8824H27.4V26.4118C27.4 26.1934 27.4843 25.9839 27.6343 25.8294C27.7843 25.675 27.9878 25.5882 28.2 25.5882H30.6V23.9412H28.2C27.9878 23.9412 27.7843 23.8544 27.6343 23.7C27.4843 23.5455 27.4 23.3361 27.4 23.1176V20.6471H25.8V23.1176C25.8 23.3361 25.7157 23.5455 25.5657 23.7C25.4157 23.8544 25.2122 23.9412 25 23.9412H22.6V25.5882H25C25.2122 25.5882 25.4157 25.675 25.5657 25.8294C25.7157 25.9839 25.8 26.1934 25.8 26.4118V28.8824ZM29.8 60C27.5944 60 25.8 58.1528 25.8 55.8824C25.8 53.6119 27.5944 51.7647 29.8 51.7647C32.0056 51.7647 33.8 53.6119 33.8 55.8824C33.8 58.1528 32.0056 60 29.8 60ZM29.8 53.4118C28.4767 53.4118 27.4 54.5201 27.4 55.8824C27.4 57.2446 28.4767 58.3529 29.8 58.3529C31.1233 58.3529 32.2 57.2446 32.2 55.8824C32.2 54.5201 31.1233 53.4118 29.8 53.4118Z" fill="#E481A0"/>
<path d="M46.4091 57H30.5758C30.4231 57 30.2766 56.9398 30.1686 56.8326C30.0607 56.7255 30 56.5801 30 56.4286C30 56.277 30.0607 56.1317 30.1686 56.0245C30.2766 55.9173 30.4231 55.8571 30.5758 55.8571H46.4091C47.2028 55.8571 47.8485 55.2163 47.8485 54.4286V53.8571C47.8485 53.0694 47.2028 52.4286 46.4091 52.4286H45.2576C43.8289 52.4286 42.6667 51.275 42.6667 49.8571C42.6667 48.4392 43.8289 47.2857 45.2576 47.2857H46.4091C47.2028 47.2857 47.8485 46.6449 47.8485 45.8571V37.5714C47.8485 37.4199 47.9091 37.2745 48.0171 37.1674C48.1251 37.0602 48.2715 37 48.4242 37C48.5769 37 48.7234 37.0602 48.8314 37.1674C48.9393 37.2745 49 37.4199 49 37.5714V45.8571C49 47.275 47.8377 48.4286 46.4091 48.4286H45.2576C44.4639 48.4286 43.8182 49.0694 43.8182 49.8571C43.8182 50.6449 44.4639 51.2857 45.2576 51.2857H46.4091C47.8377 51.2857 49 52.4392 49 53.8571V54.4286C49 55.8465 47.8377 57 46.4091 57Z" fill="#E481A0"/>
<path d="M48.5 38C45.4673 38 43 35.6389 43 32.7368V28.5263C43 28.3867 43.0579 28.2529 43.1611 28.1542C43.2642 28.0555 43.4041 28 43.55 28H45.75C45.8959 28 46.0358 28.0555 46.1389 28.1542C46.2421 28.2529 46.3 28.3867 46.3 28.5263C46.3 28.6659 46.2421 28.7998 46.1389 28.8985C46.0358 28.9972 45.8959 29.0526 45.75 29.0526H44.1V32.7368C44.1 35.0585 46.0739 36.9474 48.5 36.9474C50.9261 36.9474 52.9 35.0585 52.9 32.7368V29.0526H51.25C51.1041 29.0526 50.9642 28.9972 50.8611 28.8985C50.7579 28.7998 50.7 28.6659 50.7 28.5263C50.7 28.3867 50.7579 28.2529 50.8611 28.1542C50.9642 28.0555 51.1041 28 51.25 28H53.45C53.5959 28 53.7358 28.0555 53.8389 28.1542C53.9421 28.2529 54 28.3867 54 28.5263V32.7368C54 35.6389 51.5327 38 48.5 38Z" fill="#E481A0"/>
</svg>
